%TF.GenerationSoftware,KiCad,Pcbnew,9.0.2*%
%TF.CreationDate,2025-08-02T19:20:04+02:00*%
%TF.ProjectId,Smart Exhaust Control,536d6172-7420-4457-9868-617573742043,rev?*%
%TF.SameCoordinates,Original*%
%TF.FileFunction,Legend,Top*%
%TF.FilePolarity,Positive*%
%FSLAX46Y46*%
G04 Gerber Fmt 4.6, Leading zero omitted, Abs format (unit mm)*
G04 Created by KiCad (PCBNEW 9.0.2) date 2025-08-02 19:20:04*
%MOMM*%
%LPD*%
G01*
G04 APERTURE LIST*
%ADD10C,0.100000*%
%ADD11C,0.093750*%
%ADD12C,0.150000*%
%ADD13C,0.160000*%
%ADD14C,0.125000*%
%ADD15C,0.120000*%
G04 APERTURE END LIST*
D10*
X100801657Y-80115163D02*
X100763561Y-80153258D01*
X100763561Y-80153258D02*
X100649276Y-80229449D01*
X100649276Y-80229449D02*
X100573085Y-80267544D01*
X100573085Y-80267544D02*
X100458800Y-80305639D01*
X100458800Y-80305639D02*
X100268323Y-80343734D01*
X100268323Y-80343734D02*
X100115942Y-80343734D01*
X100115942Y-80343734D02*
X99925466Y-80305639D01*
X99925466Y-80305639D02*
X99811180Y-80267544D01*
X99811180Y-80267544D02*
X99734990Y-80229449D01*
X99734990Y-80229449D02*
X99620704Y-80153258D01*
X99620704Y-80153258D02*
X99582609Y-80115163D01*
X100496895Y-79391354D02*
X100496895Y-79848497D01*
X100496895Y-79619925D02*
X99696895Y-79619925D01*
X99696895Y-79619925D02*
X99811180Y-79696116D01*
X99811180Y-79696116D02*
X99887371Y-79772306D01*
X99887371Y-79772306D02*
X99925466Y-79848497D01*
X99773085Y-79086592D02*
X99734990Y-79048496D01*
X99734990Y-79048496D02*
X99696895Y-78972306D01*
X99696895Y-78972306D02*
X99696895Y-78781830D01*
X99696895Y-78781830D02*
X99734990Y-78705639D01*
X99734990Y-78705639D02*
X99773085Y-78667544D01*
X99773085Y-78667544D02*
X99849276Y-78629449D01*
X99849276Y-78629449D02*
X99925466Y-78629449D01*
X99925466Y-78629449D02*
X100039752Y-78667544D01*
X100039752Y-78667544D02*
X100496895Y-79124687D01*
X100496895Y-79124687D02*
X100496895Y-78629449D01*
X99696895Y-78400877D02*
X100496895Y-78134210D01*
X100496895Y-78134210D02*
X99696895Y-77867544D01*
X99963561Y-77105639D02*
X99963561Y-76800877D01*
X99696895Y-76991353D02*
X100382609Y-76991353D01*
X100382609Y-76991353D02*
X100458800Y-76953258D01*
X100458800Y-76953258D02*
X100496895Y-76877068D01*
X100496895Y-76877068D02*
X100496895Y-76800877D01*
X100496895Y-76419925D02*
X100458800Y-76496115D01*
X100458800Y-76496115D02*
X100420704Y-76534210D01*
X100420704Y-76534210D02*
X100344514Y-76572306D01*
X100344514Y-76572306D02*
X100115942Y-76572306D01*
X100115942Y-76572306D02*
X100039752Y-76534210D01*
X100039752Y-76534210D02*
X100001657Y-76496115D01*
X100001657Y-76496115D02*
X99963561Y-76419925D01*
X99963561Y-76419925D02*
X99963561Y-76305639D01*
X99963561Y-76305639D02*
X100001657Y-76229448D01*
X100001657Y-76229448D02*
X100039752Y-76191353D01*
X100039752Y-76191353D02*
X100115942Y-76153258D01*
X100115942Y-76153258D02*
X100344514Y-76153258D01*
X100344514Y-76153258D02*
X100420704Y-76191353D01*
X100420704Y-76191353D02*
X100458800Y-76229448D01*
X100458800Y-76229448D02*
X100496895Y-76305639D01*
X100496895Y-76305639D02*
X100496895Y-76419925D01*
X99696895Y-74819924D02*
X99696895Y-75200876D01*
X99696895Y-75200876D02*
X100077847Y-75238972D01*
X100077847Y-75238972D02*
X100039752Y-75200876D01*
X100039752Y-75200876D02*
X100001657Y-75124686D01*
X100001657Y-75124686D02*
X100001657Y-74934210D01*
X100001657Y-74934210D02*
X100039752Y-74858019D01*
X100039752Y-74858019D02*
X100077847Y-74819924D01*
X100077847Y-74819924D02*
X100154038Y-74781829D01*
X100154038Y-74781829D02*
X100344514Y-74781829D01*
X100344514Y-74781829D02*
X100420704Y-74819924D01*
X100420704Y-74819924D02*
X100458800Y-74858019D01*
X100458800Y-74858019D02*
X100496895Y-74934210D01*
X100496895Y-74934210D02*
X100496895Y-75124686D01*
X100496895Y-75124686D02*
X100458800Y-75200876D01*
X100458800Y-75200876D02*
X100420704Y-75238972D01*
X99696895Y-74553257D02*
X100496895Y-74286590D01*
X100496895Y-74286590D02*
X99696895Y-74019924D01*
X100496895Y-72686590D02*
X100115942Y-72953257D01*
X100496895Y-73143733D02*
X99696895Y-73143733D01*
X99696895Y-73143733D02*
X99696895Y-72838971D01*
X99696895Y-72838971D02*
X99734990Y-72762781D01*
X99734990Y-72762781D02*
X99773085Y-72724686D01*
X99773085Y-72724686D02*
X99849276Y-72686590D01*
X99849276Y-72686590D02*
X99963561Y-72686590D01*
X99963561Y-72686590D02*
X100039752Y-72724686D01*
X100039752Y-72724686D02*
X100077847Y-72762781D01*
X100077847Y-72762781D02*
X100115942Y-72838971D01*
X100115942Y-72838971D02*
X100115942Y-73143733D01*
X100458800Y-72038971D02*
X100496895Y-72115162D01*
X100496895Y-72115162D02*
X100496895Y-72267543D01*
X100496895Y-72267543D02*
X100458800Y-72343733D01*
X100458800Y-72343733D02*
X100382609Y-72381829D01*
X100382609Y-72381829D02*
X100077847Y-72381829D01*
X100077847Y-72381829D02*
X100001657Y-72343733D01*
X100001657Y-72343733D02*
X99963561Y-72267543D01*
X99963561Y-72267543D02*
X99963561Y-72115162D01*
X99963561Y-72115162D02*
X100001657Y-72038971D01*
X100001657Y-72038971D02*
X100077847Y-72000876D01*
X100077847Y-72000876D02*
X100154038Y-72000876D01*
X100154038Y-72000876D02*
X100230228Y-72381829D01*
X99963561Y-71315162D02*
X100611180Y-71315162D01*
X100611180Y-71315162D02*
X100687371Y-71353257D01*
X100687371Y-71353257D02*
X100725466Y-71391353D01*
X100725466Y-71391353D02*
X100763561Y-71467543D01*
X100763561Y-71467543D02*
X100763561Y-71581829D01*
X100763561Y-71581829D02*
X100725466Y-71658019D01*
X100458800Y-71315162D02*
X100496895Y-71391353D01*
X100496895Y-71391353D02*
X100496895Y-71543734D01*
X100496895Y-71543734D02*
X100458800Y-71619924D01*
X100458800Y-71619924D02*
X100420704Y-71658019D01*
X100420704Y-71658019D02*
X100344514Y-71696115D01*
X100344514Y-71696115D02*
X100115942Y-71696115D01*
X100115942Y-71696115D02*
X100039752Y-71658019D01*
X100039752Y-71658019D02*
X100001657Y-71619924D01*
X100001657Y-71619924D02*
X99963561Y-71543734D01*
X99963561Y-71543734D02*
X99963561Y-71391353D01*
X99963561Y-71391353D02*
X100001657Y-71315162D01*
X99963561Y-70591352D02*
X100496895Y-70591352D01*
X99963561Y-70934209D02*
X100382609Y-70934209D01*
X100382609Y-70934209D02*
X100458800Y-70896114D01*
X100458800Y-70896114D02*
X100496895Y-70819924D01*
X100496895Y-70819924D02*
X100496895Y-70705638D01*
X100496895Y-70705638D02*
X100458800Y-70629447D01*
X100458800Y-70629447D02*
X100420704Y-70591352D01*
X100496895Y-70096114D02*
X100458800Y-70172304D01*
X100458800Y-70172304D02*
X100382609Y-70210399D01*
X100382609Y-70210399D02*
X99696895Y-70210399D01*
X100496895Y-69448494D02*
X100077847Y-69448494D01*
X100077847Y-69448494D02*
X100001657Y-69486589D01*
X100001657Y-69486589D02*
X99963561Y-69562780D01*
X99963561Y-69562780D02*
X99963561Y-69715161D01*
X99963561Y-69715161D02*
X100001657Y-69791351D01*
X100458800Y-69448494D02*
X100496895Y-69524685D01*
X100496895Y-69524685D02*
X100496895Y-69715161D01*
X100496895Y-69715161D02*
X100458800Y-69791351D01*
X100458800Y-69791351D02*
X100382609Y-69829447D01*
X100382609Y-69829447D02*
X100306419Y-69829447D01*
X100306419Y-69829447D02*
X100230228Y-69791351D01*
X100230228Y-69791351D02*
X100192133Y-69715161D01*
X100192133Y-69715161D02*
X100192133Y-69524685D01*
X100192133Y-69524685D02*
X100154038Y-69448494D01*
X99963561Y-69181827D02*
X99963561Y-68877065D01*
X99696895Y-69067541D02*
X100382609Y-69067541D01*
X100382609Y-69067541D02*
X100458800Y-69029446D01*
X100458800Y-69029446D02*
X100496895Y-68953256D01*
X100496895Y-68953256D02*
X100496895Y-68877065D01*
X100496895Y-68496113D02*
X100458800Y-68572303D01*
X100458800Y-68572303D02*
X100420704Y-68610398D01*
X100420704Y-68610398D02*
X100344514Y-68648494D01*
X100344514Y-68648494D02*
X100115942Y-68648494D01*
X100115942Y-68648494D02*
X100039752Y-68610398D01*
X100039752Y-68610398D02*
X100001657Y-68572303D01*
X100001657Y-68572303D02*
X99963561Y-68496113D01*
X99963561Y-68496113D02*
X99963561Y-68381827D01*
X99963561Y-68381827D02*
X100001657Y-68305636D01*
X100001657Y-68305636D02*
X100039752Y-68267541D01*
X100039752Y-68267541D02*
X100115942Y-68229446D01*
X100115942Y-68229446D02*
X100344514Y-68229446D01*
X100344514Y-68229446D02*
X100420704Y-68267541D01*
X100420704Y-68267541D02*
X100458800Y-68305636D01*
X100458800Y-68305636D02*
X100496895Y-68381827D01*
X100496895Y-68381827D02*
X100496895Y-68496113D01*
X100496895Y-67886588D02*
X99963561Y-67886588D01*
X100115942Y-67886588D02*
X100039752Y-67848493D01*
X100039752Y-67848493D02*
X100001657Y-67810398D01*
X100001657Y-67810398D02*
X99963561Y-67734207D01*
X99963561Y-67734207D02*
X99963561Y-67658017D01*
X100801657Y-67467541D02*
X100763561Y-67429446D01*
X100763561Y-67429446D02*
X100649276Y-67353255D01*
X100649276Y-67353255D02*
X100573085Y-67315160D01*
X100573085Y-67315160D02*
X100458800Y-67277065D01*
X100458800Y-67277065D02*
X100268323Y-67238969D01*
X100268323Y-67238969D02*
X100115942Y-67238969D01*
X100115942Y-67238969D02*
X99925466Y-67277065D01*
X99925466Y-67277065D02*
X99811180Y-67315160D01*
X99811180Y-67315160D02*
X99734990Y-67353255D01*
X99734990Y-67353255D02*
X99620704Y-67429446D01*
X99620704Y-67429446D02*
X99582609Y-67467541D01*
X124196895Y-59043734D02*
X123396895Y-59043734D01*
X123396895Y-59043734D02*
X123396895Y-58853258D01*
X123396895Y-58853258D02*
X123434990Y-58738972D01*
X123434990Y-58738972D02*
X123511180Y-58662782D01*
X123511180Y-58662782D02*
X123587371Y-58624687D01*
X123587371Y-58624687D02*
X123739752Y-58586591D01*
X123739752Y-58586591D02*
X123854038Y-58586591D01*
X123854038Y-58586591D02*
X124006419Y-58624687D01*
X124006419Y-58624687D02*
X124082609Y-58662782D01*
X124082609Y-58662782D02*
X124158800Y-58738972D01*
X124158800Y-58738972D02*
X124196895Y-58853258D01*
X124196895Y-58853258D02*
X124196895Y-59043734D01*
X124196895Y-58243734D02*
X123396895Y-58243734D01*
X123777847Y-58243734D02*
X123777847Y-57786591D01*
X124196895Y-57786591D02*
X123396895Y-57786591D01*
X123396895Y-57519925D02*
X123396895Y-57062782D01*
X124196895Y-57291354D02*
X123396895Y-57291354D01*
X123473085Y-56834211D02*
X123434990Y-56796115D01*
X123434990Y-56796115D02*
X123396895Y-56719925D01*
X123396895Y-56719925D02*
X123396895Y-56529449D01*
X123396895Y-56529449D02*
X123434990Y-56453258D01*
X123434990Y-56453258D02*
X123473085Y-56415163D01*
X123473085Y-56415163D02*
X123549276Y-56377068D01*
X123549276Y-56377068D02*
X123625466Y-56377068D01*
X123625466Y-56377068D02*
X123739752Y-56415163D01*
X123739752Y-56415163D02*
X124196895Y-56872306D01*
X124196895Y-56872306D02*
X124196895Y-56377068D01*
X123473085Y-56072306D02*
X123434990Y-56034210D01*
X123434990Y-56034210D02*
X123396895Y-55958020D01*
X123396895Y-55958020D02*
X123396895Y-55767544D01*
X123396895Y-55767544D02*
X123434990Y-55691353D01*
X123434990Y-55691353D02*
X123473085Y-55653258D01*
X123473085Y-55653258D02*
X123549276Y-55615163D01*
X123549276Y-55615163D02*
X123625466Y-55615163D01*
X123625466Y-55615163D02*
X123739752Y-55653258D01*
X123739752Y-55653258D02*
X124196895Y-56110401D01*
X124196895Y-56110401D02*
X124196895Y-55615163D01*
D11*
X101252153Y-34478172D02*
X101518819Y-34478172D01*
X101633105Y-34897220D02*
X101252153Y-34897220D01*
X101252153Y-34897220D02*
X101252153Y-34097220D01*
X101252153Y-34097220D02*
X101633105Y-34097220D01*
X101937867Y-34859125D02*
X102052153Y-34897220D01*
X102052153Y-34897220D02*
X102242629Y-34897220D01*
X102242629Y-34897220D02*
X102318820Y-34859125D01*
X102318820Y-34859125D02*
X102356915Y-34821029D01*
X102356915Y-34821029D02*
X102395010Y-34744839D01*
X102395010Y-34744839D02*
X102395010Y-34668648D01*
X102395010Y-34668648D02*
X102356915Y-34592458D01*
X102356915Y-34592458D02*
X102318820Y-34554363D01*
X102318820Y-34554363D02*
X102242629Y-34516267D01*
X102242629Y-34516267D02*
X102090248Y-34478172D01*
X102090248Y-34478172D02*
X102014058Y-34440077D01*
X102014058Y-34440077D02*
X101975963Y-34401982D01*
X101975963Y-34401982D02*
X101937867Y-34325791D01*
X101937867Y-34325791D02*
X101937867Y-34249601D01*
X101937867Y-34249601D02*
X101975963Y-34173410D01*
X101975963Y-34173410D02*
X102014058Y-34135315D01*
X102014058Y-34135315D02*
X102090248Y-34097220D01*
X102090248Y-34097220D02*
X102280725Y-34097220D01*
X102280725Y-34097220D02*
X102395010Y-34135315D01*
X102737868Y-34897220D02*
X102737868Y-34097220D01*
X102737868Y-34097220D02*
X103042630Y-34097220D01*
X103042630Y-34097220D02*
X103118820Y-34135315D01*
X103118820Y-34135315D02*
X103156915Y-34173410D01*
X103156915Y-34173410D02*
X103195011Y-34249601D01*
X103195011Y-34249601D02*
X103195011Y-34363886D01*
X103195011Y-34363886D02*
X103156915Y-34440077D01*
X103156915Y-34440077D02*
X103118820Y-34478172D01*
X103118820Y-34478172D02*
X103042630Y-34516267D01*
X103042630Y-34516267D02*
X102737868Y-34516267D01*
X103461677Y-34097220D02*
X103956915Y-34097220D01*
X103956915Y-34097220D02*
X103690249Y-34401982D01*
X103690249Y-34401982D02*
X103804534Y-34401982D01*
X103804534Y-34401982D02*
X103880725Y-34440077D01*
X103880725Y-34440077D02*
X103918820Y-34478172D01*
X103918820Y-34478172D02*
X103956915Y-34554363D01*
X103956915Y-34554363D02*
X103956915Y-34744839D01*
X103956915Y-34744839D02*
X103918820Y-34821029D01*
X103918820Y-34821029D02*
X103880725Y-34859125D01*
X103880725Y-34859125D02*
X103804534Y-34897220D01*
X103804534Y-34897220D02*
X103575963Y-34897220D01*
X103575963Y-34897220D02*
X103499772Y-34859125D01*
X103499772Y-34859125D02*
X103461677Y-34821029D01*
X104261677Y-34173410D02*
X104299773Y-34135315D01*
X104299773Y-34135315D02*
X104375963Y-34097220D01*
X104375963Y-34097220D02*
X104566439Y-34097220D01*
X104566439Y-34097220D02*
X104642630Y-34135315D01*
X104642630Y-34135315D02*
X104680725Y-34173410D01*
X104680725Y-34173410D02*
X104718820Y-34249601D01*
X104718820Y-34249601D02*
X104718820Y-34325791D01*
X104718820Y-34325791D02*
X104680725Y-34440077D01*
X104680725Y-34440077D02*
X104223582Y-34897220D01*
X104223582Y-34897220D02*
X104718820Y-34897220D01*
X105061678Y-34592458D02*
X105671202Y-34592458D01*
X106509297Y-34821029D02*
X106471201Y-34859125D01*
X106471201Y-34859125D02*
X106356916Y-34897220D01*
X106356916Y-34897220D02*
X106280725Y-34897220D01*
X106280725Y-34897220D02*
X106166439Y-34859125D01*
X106166439Y-34859125D02*
X106090249Y-34782934D01*
X106090249Y-34782934D02*
X106052154Y-34706744D01*
X106052154Y-34706744D02*
X106014058Y-34554363D01*
X106014058Y-34554363D02*
X106014058Y-34440077D01*
X106014058Y-34440077D02*
X106052154Y-34287696D01*
X106052154Y-34287696D02*
X106090249Y-34211505D01*
X106090249Y-34211505D02*
X106166439Y-34135315D01*
X106166439Y-34135315D02*
X106280725Y-34097220D01*
X106280725Y-34097220D02*
X106356916Y-34097220D01*
X106356916Y-34097220D02*
X106471201Y-34135315D01*
X106471201Y-34135315D02*
X106509297Y-34173410D01*
X106775963Y-34097220D02*
X107271201Y-34097220D01*
X107271201Y-34097220D02*
X107004535Y-34401982D01*
X107004535Y-34401982D02*
X107118820Y-34401982D01*
X107118820Y-34401982D02*
X107195011Y-34440077D01*
X107195011Y-34440077D02*
X107233106Y-34478172D01*
X107233106Y-34478172D02*
X107271201Y-34554363D01*
X107271201Y-34554363D02*
X107271201Y-34744839D01*
X107271201Y-34744839D02*
X107233106Y-34821029D01*
X107233106Y-34821029D02*
X107195011Y-34859125D01*
X107195011Y-34859125D02*
X107118820Y-34897220D01*
X107118820Y-34897220D02*
X106890249Y-34897220D01*
X106890249Y-34897220D02*
X106814058Y-34859125D01*
X106814058Y-34859125D02*
X106775963Y-34821029D01*
X107614059Y-34592458D02*
X108223583Y-34592458D01*
X108604535Y-34897220D02*
X108604535Y-34097220D01*
X108604535Y-34097220D02*
X108795011Y-34097220D01*
X108795011Y-34097220D02*
X108909297Y-34135315D01*
X108909297Y-34135315D02*
X108985487Y-34211505D01*
X108985487Y-34211505D02*
X109023582Y-34287696D01*
X109023582Y-34287696D02*
X109061678Y-34440077D01*
X109061678Y-34440077D02*
X109061678Y-34554363D01*
X109061678Y-34554363D02*
X109023582Y-34706744D01*
X109023582Y-34706744D02*
X108985487Y-34782934D01*
X108985487Y-34782934D02*
X108909297Y-34859125D01*
X108909297Y-34859125D02*
X108795011Y-34897220D01*
X108795011Y-34897220D02*
X108604535Y-34897220D01*
X109709297Y-34859125D02*
X109633106Y-34897220D01*
X109633106Y-34897220D02*
X109480725Y-34897220D01*
X109480725Y-34897220D02*
X109404535Y-34859125D01*
X109404535Y-34859125D02*
X109366439Y-34782934D01*
X109366439Y-34782934D02*
X109366439Y-34478172D01*
X109366439Y-34478172D02*
X109404535Y-34401982D01*
X109404535Y-34401982D02*
X109480725Y-34363886D01*
X109480725Y-34363886D02*
X109633106Y-34363886D01*
X109633106Y-34363886D02*
X109709297Y-34401982D01*
X109709297Y-34401982D02*
X109747392Y-34478172D01*
X109747392Y-34478172D02*
X109747392Y-34554363D01*
X109747392Y-34554363D02*
X109366439Y-34630553D01*
X110014058Y-34363886D02*
X110204534Y-34897220D01*
X110204534Y-34897220D02*
X110395011Y-34363886D01*
X110699773Y-34897220D02*
X110699773Y-34097220D01*
X111156916Y-34897220D02*
X110814058Y-34440077D01*
X111156916Y-34097220D02*
X110699773Y-34554363D01*
X111499773Y-34897220D02*
X111499773Y-34363886D01*
X111499773Y-34097220D02*
X111461677Y-34135315D01*
X111461677Y-34135315D02*
X111499773Y-34173410D01*
X111499773Y-34173410D02*
X111537868Y-34135315D01*
X111537868Y-34135315D02*
X111499773Y-34097220D01*
X111499773Y-34097220D02*
X111499773Y-34173410D01*
X111766439Y-34363886D02*
X112071201Y-34363886D01*
X111880725Y-34097220D02*
X111880725Y-34782934D01*
X111880725Y-34782934D02*
X111918820Y-34859125D01*
X111918820Y-34859125D02*
X111995010Y-34897220D01*
X111995010Y-34897220D02*
X112071201Y-34897220D01*
X112337868Y-34897220D02*
X112337868Y-34097220D01*
X112337868Y-34097220D02*
X112604534Y-34668648D01*
X112604534Y-34668648D02*
X112871201Y-34097220D01*
X112871201Y-34097220D02*
X112871201Y-34897220D01*
X113252154Y-34592458D02*
X113861678Y-34592458D01*
X114661677Y-34897220D02*
X114204534Y-34897220D01*
X114433106Y-34897220D02*
X114433106Y-34097220D01*
X114433106Y-34097220D02*
X114356915Y-34211505D01*
X114356915Y-34211505D02*
X114280725Y-34287696D01*
X114280725Y-34287696D02*
X114204534Y-34325791D01*
D12*
X128289160Y-34606340D02*
X128289160Y-33806340D01*
X128632016Y-33882530D02*
X128670112Y-33844435D01*
X128670112Y-33844435D02*
X128746302Y-33806340D01*
X128746302Y-33806340D02*
X128936778Y-33806340D01*
X128936778Y-33806340D02*
X129012969Y-33844435D01*
X129012969Y-33844435D02*
X129051064Y-33882530D01*
X129051064Y-33882530D02*
X129089159Y-33958721D01*
X129089159Y-33958721D02*
X129089159Y-34034911D01*
X129089159Y-34034911D02*
X129051064Y-34149197D01*
X129051064Y-34149197D02*
X128593921Y-34606340D01*
X128593921Y-34606340D02*
X129089159Y-34606340D01*
X129889160Y-34530149D02*
X129851064Y-34568245D01*
X129851064Y-34568245D02*
X129736779Y-34606340D01*
X129736779Y-34606340D02*
X129660588Y-34606340D01*
X129660588Y-34606340D02*
X129546302Y-34568245D01*
X129546302Y-34568245D02*
X129470112Y-34492054D01*
X129470112Y-34492054D02*
X129432017Y-34415864D01*
X129432017Y-34415864D02*
X129393921Y-34263483D01*
X129393921Y-34263483D02*
X129393921Y-34149197D01*
X129393921Y-34149197D02*
X129432017Y-33996816D01*
X129432017Y-33996816D02*
X129470112Y-33920625D01*
X129470112Y-33920625D02*
X129546302Y-33844435D01*
X129546302Y-33844435D02*
X129660588Y-33806340D01*
X129660588Y-33806340D02*
X129736779Y-33806340D01*
X129736779Y-33806340D02*
X129851064Y-33844435D01*
X129851064Y-33844435D02*
X129889160Y-33882530D01*
X130993922Y-33806340D02*
X131146303Y-33806340D01*
X131146303Y-33806340D02*
X131222493Y-33844435D01*
X131222493Y-33844435D02*
X131298684Y-33920625D01*
X131298684Y-33920625D02*
X131336779Y-34073006D01*
X131336779Y-34073006D02*
X131336779Y-34339673D01*
X131336779Y-34339673D02*
X131298684Y-34492054D01*
X131298684Y-34492054D02*
X131222493Y-34568245D01*
X131222493Y-34568245D02*
X131146303Y-34606340D01*
X131146303Y-34606340D02*
X130993922Y-34606340D01*
X130993922Y-34606340D02*
X130917731Y-34568245D01*
X130917731Y-34568245D02*
X130841541Y-34492054D01*
X130841541Y-34492054D02*
X130803445Y-34339673D01*
X130803445Y-34339673D02*
X130803445Y-34073006D01*
X130803445Y-34073006D02*
X130841541Y-33920625D01*
X130841541Y-33920625D02*
X130917731Y-33844435D01*
X130917731Y-33844435D02*
X130993922Y-33806340D01*
X132060588Y-34606340D02*
X131679636Y-34606340D01*
X131679636Y-34606340D02*
X131679636Y-33806340D01*
X132327255Y-34187292D02*
X132593921Y-34187292D01*
X132708207Y-34606340D02*
X132327255Y-34606340D01*
X132327255Y-34606340D02*
X132327255Y-33806340D01*
X132327255Y-33806340D02*
X132708207Y-33806340D01*
X133051065Y-34606340D02*
X133051065Y-33806340D01*
X133051065Y-33806340D02*
X133241541Y-33806340D01*
X133241541Y-33806340D02*
X133355827Y-33844435D01*
X133355827Y-33844435D02*
X133432017Y-33920625D01*
X133432017Y-33920625D02*
X133470112Y-33996816D01*
X133470112Y-33996816D02*
X133508208Y-34149197D01*
X133508208Y-34149197D02*
X133508208Y-34263483D01*
X133508208Y-34263483D02*
X133470112Y-34415864D01*
X133470112Y-34415864D02*
X133432017Y-34492054D01*
X133432017Y-34492054D02*
X133355827Y-34568245D01*
X133355827Y-34568245D02*
X133241541Y-34606340D01*
X133241541Y-34606340D02*
X133051065Y-34606340D01*
X128289160Y-35894295D02*
X128289160Y-35094295D01*
X128289160Y-35094295D02*
X128479636Y-35094295D01*
X128479636Y-35094295D02*
X128593922Y-35132390D01*
X128593922Y-35132390D02*
X128670112Y-35208580D01*
X128670112Y-35208580D02*
X128708207Y-35284771D01*
X128708207Y-35284771D02*
X128746303Y-35437152D01*
X128746303Y-35437152D02*
X128746303Y-35551438D01*
X128746303Y-35551438D02*
X128708207Y-35703819D01*
X128708207Y-35703819D02*
X128670112Y-35780009D01*
X128670112Y-35780009D02*
X128593922Y-35856200D01*
X128593922Y-35856200D02*
X128479636Y-35894295D01*
X128479636Y-35894295D02*
X128289160Y-35894295D01*
X129089160Y-35894295D02*
X129089160Y-35360961D01*
X129089160Y-35094295D02*
X129051064Y-35132390D01*
X129051064Y-35132390D02*
X129089160Y-35170485D01*
X129089160Y-35170485D02*
X129127255Y-35132390D01*
X129127255Y-35132390D02*
X129089160Y-35094295D01*
X129089160Y-35094295D02*
X129089160Y-35170485D01*
X129432016Y-35856200D02*
X129508207Y-35894295D01*
X129508207Y-35894295D02*
X129660588Y-35894295D01*
X129660588Y-35894295D02*
X129736778Y-35856200D01*
X129736778Y-35856200D02*
X129774874Y-35780009D01*
X129774874Y-35780009D02*
X129774874Y-35741914D01*
X129774874Y-35741914D02*
X129736778Y-35665723D01*
X129736778Y-35665723D02*
X129660588Y-35627628D01*
X129660588Y-35627628D02*
X129546302Y-35627628D01*
X129546302Y-35627628D02*
X129470112Y-35589533D01*
X129470112Y-35589533D02*
X129432016Y-35513342D01*
X129432016Y-35513342D02*
X129432016Y-35475247D01*
X129432016Y-35475247D02*
X129470112Y-35399057D01*
X129470112Y-35399057D02*
X129546302Y-35360961D01*
X129546302Y-35360961D02*
X129660588Y-35360961D01*
X129660588Y-35360961D02*
X129736778Y-35399057D01*
X130117731Y-35360961D02*
X130117731Y-36160961D01*
X130117731Y-35399057D02*
X130193921Y-35360961D01*
X130193921Y-35360961D02*
X130346302Y-35360961D01*
X130346302Y-35360961D02*
X130422493Y-35399057D01*
X130422493Y-35399057D02*
X130460588Y-35437152D01*
X130460588Y-35437152D02*
X130498683Y-35513342D01*
X130498683Y-35513342D02*
X130498683Y-35741914D01*
X130498683Y-35741914D02*
X130460588Y-35818104D01*
X130460588Y-35818104D02*
X130422493Y-35856200D01*
X130422493Y-35856200D02*
X130346302Y-35894295D01*
X130346302Y-35894295D02*
X130193921Y-35894295D01*
X130193921Y-35894295D02*
X130117731Y-35856200D01*
X130955826Y-35894295D02*
X130879636Y-35856200D01*
X130879636Y-35856200D02*
X130841541Y-35780009D01*
X130841541Y-35780009D02*
X130841541Y-35094295D01*
X131603446Y-35894295D02*
X131603446Y-35475247D01*
X131603446Y-35475247D02*
X131565351Y-35399057D01*
X131565351Y-35399057D02*
X131489160Y-35360961D01*
X131489160Y-35360961D02*
X131336779Y-35360961D01*
X131336779Y-35360961D02*
X131260589Y-35399057D01*
X131603446Y-35856200D02*
X131527255Y-35894295D01*
X131527255Y-35894295D02*
X131336779Y-35894295D01*
X131336779Y-35894295D02*
X131260589Y-35856200D01*
X131260589Y-35856200D02*
X131222493Y-35780009D01*
X131222493Y-35780009D02*
X131222493Y-35703819D01*
X131222493Y-35703819D02*
X131260589Y-35627628D01*
X131260589Y-35627628D02*
X131336779Y-35589533D01*
X131336779Y-35589533D02*
X131527255Y-35589533D01*
X131527255Y-35589533D02*
X131603446Y-35551438D01*
X131908208Y-35360961D02*
X132098684Y-35894295D01*
X132289161Y-35360961D02*
X132098684Y-35894295D01*
X132098684Y-35894295D02*
X132022494Y-36084771D01*
X132022494Y-36084771D02*
X131984399Y-36122866D01*
X131984399Y-36122866D02*
X131908208Y-36160961D01*
D13*
X130290977Y-79029910D02*
X130390977Y-78229910D01*
X130786215Y-79029910D02*
X130714786Y-78991815D01*
X130714786Y-78991815D02*
X130681453Y-78953719D01*
X130681453Y-78953719D02*
X130652881Y-78877529D01*
X130652881Y-78877529D02*
X130681453Y-78648957D01*
X130681453Y-78648957D02*
X130729072Y-78572767D01*
X130729072Y-78572767D02*
X130771929Y-78534672D01*
X130771929Y-78534672D02*
X130852881Y-78496576D01*
X130852881Y-78496576D02*
X130967167Y-78496576D01*
X130967167Y-78496576D02*
X131038595Y-78534672D01*
X131038595Y-78534672D02*
X131071929Y-78572767D01*
X131071929Y-78572767D02*
X131100500Y-78648957D01*
X131100500Y-78648957D02*
X131071929Y-78877529D01*
X131071929Y-78877529D02*
X131024310Y-78953719D01*
X131024310Y-78953719D02*
X130981453Y-78991815D01*
X130981453Y-78991815D02*
X130900500Y-79029910D01*
X130900500Y-79029910D02*
X130786215Y-79029910D01*
X131381453Y-78229910D02*
X131838596Y-78229910D01*
X131510025Y-79029910D02*
X131610025Y-78229910D01*
X133081453Y-78953719D02*
X133038596Y-78991815D01*
X133038596Y-78991815D02*
X132919549Y-79029910D01*
X132919549Y-79029910D02*
X132843358Y-79029910D01*
X132843358Y-79029910D02*
X132733834Y-78991815D01*
X132733834Y-78991815D02*
X132667168Y-78915624D01*
X132667168Y-78915624D02*
X132638596Y-78839434D01*
X132638596Y-78839434D02*
X132619549Y-78687053D01*
X132619549Y-78687053D02*
X132633834Y-78572767D01*
X132633834Y-78572767D02*
X132690977Y-78420386D01*
X132690977Y-78420386D02*
X132738596Y-78344195D01*
X132738596Y-78344195D02*
X132824311Y-78268005D01*
X132824311Y-78268005D02*
X132943358Y-78229910D01*
X132943358Y-78229910D02*
X133019549Y-78229910D01*
X133019549Y-78229910D02*
X133129073Y-78268005D01*
X133129073Y-78268005D02*
X133162406Y-78306100D01*
X133529073Y-79029910D02*
X133457644Y-78991815D01*
X133457644Y-78991815D02*
X133424311Y-78953719D01*
X133424311Y-78953719D02*
X133395739Y-78877529D01*
X133395739Y-78877529D02*
X133424311Y-78648957D01*
X133424311Y-78648957D02*
X133471930Y-78572767D01*
X133471930Y-78572767D02*
X133514787Y-78534672D01*
X133514787Y-78534672D02*
X133595739Y-78496576D01*
X133595739Y-78496576D02*
X133710025Y-78496576D01*
X133710025Y-78496576D02*
X133781453Y-78534672D01*
X133781453Y-78534672D02*
X133814787Y-78572767D01*
X133814787Y-78572767D02*
X133843358Y-78648957D01*
X133843358Y-78648957D02*
X133814787Y-78877529D01*
X133814787Y-78877529D02*
X133767168Y-78953719D01*
X133767168Y-78953719D02*
X133724311Y-78991815D01*
X133724311Y-78991815D02*
X133643358Y-79029910D01*
X133643358Y-79029910D02*
X133529073Y-79029910D01*
X134205263Y-78496576D02*
X134138597Y-79029910D01*
X134195740Y-78572767D02*
X134238597Y-78534672D01*
X134238597Y-78534672D02*
X134319549Y-78496576D01*
X134319549Y-78496576D02*
X134433835Y-78496576D01*
X134433835Y-78496576D02*
X134505263Y-78534672D01*
X134505263Y-78534672D02*
X134533835Y-78610862D01*
X134533835Y-78610862D02*
X134481454Y-79029910D01*
X134814788Y-78496576D02*
X135119550Y-78496576D01*
X134962407Y-78229910D02*
X134876693Y-78915624D01*
X134876693Y-78915624D02*
X134905264Y-78991815D01*
X134905264Y-78991815D02*
X134976693Y-79029910D01*
X134976693Y-79029910D02*
X135052883Y-79029910D01*
X135319550Y-79029910D02*
X135386216Y-78496576D01*
X135367169Y-78648957D02*
X135414788Y-78572767D01*
X135414788Y-78572767D02*
X135457645Y-78534672D01*
X135457645Y-78534672D02*
X135538597Y-78496576D01*
X135538597Y-78496576D02*
X135614788Y-78496576D01*
X135929074Y-79029910D02*
X135857645Y-78991815D01*
X135857645Y-78991815D02*
X135824312Y-78953719D01*
X135824312Y-78953719D02*
X135795740Y-78877529D01*
X135795740Y-78877529D02*
X135824312Y-78648957D01*
X135824312Y-78648957D02*
X135871931Y-78572767D01*
X135871931Y-78572767D02*
X135914788Y-78534672D01*
X135914788Y-78534672D02*
X135995740Y-78496576D01*
X135995740Y-78496576D02*
X136110026Y-78496576D01*
X136110026Y-78496576D02*
X136181454Y-78534672D01*
X136181454Y-78534672D02*
X136214788Y-78572767D01*
X136214788Y-78572767D02*
X136243359Y-78648957D01*
X136243359Y-78648957D02*
X136214788Y-78877529D01*
X136214788Y-78877529D02*
X136167169Y-78953719D01*
X136167169Y-78953719D02*
X136124312Y-78991815D01*
X136124312Y-78991815D02*
X136043359Y-79029910D01*
X136043359Y-79029910D02*
X135929074Y-79029910D01*
X136652884Y-79029910D02*
X136581455Y-78991815D01*
X136581455Y-78991815D02*
X136552884Y-78915624D01*
X136552884Y-78915624D02*
X136638598Y-78229910D01*
X137071932Y-79029910D02*
X137000503Y-78991815D01*
X137000503Y-78991815D02*
X136971932Y-78915624D01*
X136971932Y-78915624D02*
X137057646Y-78229910D01*
X137686218Y-78991815D02*
X137605265Y-79029910D01*
X137605265Y-79029910D02*
X137452884Y-79029910D01*
X137452884Y-79029910D02*
X137381456Y-78991815D01*
X137381456Y-78991815D02*
X137352884Y-78915624D01*
X137352884Y-78915624D02*
X137390980Y-78610862D01*
X137390980Y-78610862D02*
X137438599Y-78534672D01*
X137438599Y-78534672D02*
X137519551Y-78496576D01*
X137519551Y-78496576D02*
X137671932Y-78496576D01*
X137671932Y-78496576D02*
X137743360Y-78534672D01*
X137743360Y-78534672D02*
X137771932Y-78610862D01*
X137771932Y-78610862D02*
X137762408Y-78687053D01*
X137762408Y-78687053D02*
X137371932Y-78763243D01*
X138405265Y-79029910D02*
X138505265Y-78229910D01*
X138410027Y-78991815D02*
X138329074Y-79029910D01*
X138329074Y-79029910D02*
X138176694Y-79029910D01*
X138176694Y-79029910D02*
X138105265Y-78991815D01*
X138105265Y-78991815D02*
X138071932Y-78953719D01*
X138071932Y-78953719D02*
X138043360Y-78877529D01*
X138043360Y-78877529D02*
X138071932Y-78648957D01*
X138071932Y-78648957D02*
X138119551Y-78572767D01*
X138119551Y-78572767D02*
X138162408Y-78534672D01*
X138162408Y-78534672D02*
X138243360Y-78496576D01*
X138243360Y-78496576D02*
X138395741Y-78496576D01*
X138395741Y-78496576D02*
X138467170Y-78534672D01*
X130290977Y-80317865D02*
X130390977Y-79517865D01*
X130390977Y-79517865D02*
X130586215Y-80089293D01*
X130586215Y-80089293D02*
X130924310Y-79517865D01*
X130924310Y-79517865D02*
X130824310Y-80317865D01*
X131319549Y-80317865D02*
X131248120Y-80279770D01*
X131248120Y-80279770D02*
X131214787Y-80241674D01*
X131214787Y-80241674D02*
X131186215Y-80165484D01*
X131186215Y-80165484D02*
X131214787Y-79936912D01*
X131214787Y-79936912D02*
X131262406Y-79860722D01*
X131262406Y-79860722D02*
X131305263Y-79822627D01*
X131305263Y-79822627D02*
X131386215Y-79784531D01*
X131386215Y-79784531D02*
X131500501Y-79784531D01*
X131500501Y-79784531D02*
X131571929Y-79822627D01*
X131571929Y-79822627D02*
X131605263Y-79860722D01*
X131605263Y-79860722D02*
X131633834Y-79936912D01*
X131633834Y-79936912D02*
X131605263Y-80165484D01*
X131605263Y-80165484D02*
X131557644Y-80241674D01*
X131557644Y-80241674D02*
X131514787Y-80279770D01*
X131514787Y-80279770D02*
X131433834Y-80317865D01*
X131433834Y-80317865D02*
X131319549Y-80317865D01*
X131881454Y-79784531D02*
X132186216Y-79784531D01*
X132029073Y-79517865D02*
X131943359Y-80203579D01*
X131943359Y-80203579D02*
X131971930Y-80279770D01*
X131971930Y-80279770D02*
X132043359Y-80317865D01*
X132043359Y-80317865D02*
X132119549Y-80317865D01*
X132500502Y-80317865D02*
X132429073Y-80279770D01*
X132429073Y-80279770D02*
X132395740Y-80241674D01*
X132395740Y-80241674D02*
X132367168Y-80165484D01*
X132367168Y-80165484D02*
X132395740Y-79936912D01*
X132395740Y-79936912D02*
X132443359Y-79860722D01*
X132443359Y-79860722D02*
X132486216Y-79822627D01*
X132486216Y-79822627D02*
X132567168Y-79784531D01*
X132567168Y-79784531D02*
X132681454Y-79784531D01*
X132681454Y-79784531D02*
X132752882Y-79822627D01*
X132752882Y-79822627D02*
X132786216Y-79860722D01*
X132786216Y-79860722D02*
X132814787Y-79936912D01*
X132814787Y-79936912D02*
X132786216Y-80165484D01*
X132786216Y-80165484D02*
X132738597Y-80241674D01*
X132738597Y-80241674D02*
X132695740Y-80279770D01*
X132695740Y-80279770D02*
X132614787Y-80317865D01*
X132614787Y-80317865D02*
X132500502Y-80317865D01*
X133110026Y-80317865D02*
X133176692Y-79784531D01*
X133157645Y-79936912D02*
X133205264Y-79860722D01*
X133205264Y-79860722D02*
X133248121Y-79822627D01*
X133248121Y-79822627D02*
X133329073Y-79784531D01*
X133329073Y-79784531D02*
X133405264Y-79784531D01*
X133605264Y-80317865D02*
X133671930Y-79784531D01*
X133705264Y-79517865D02*
X133662407Y-79555960D01*
X133662407Y-79555960D02*
X133695740Y-79594055D01*
X133695740Y-79594055D02*
X133738597Y-79555960D01*
X133738597Y-79555960D02*
X133705264Y-79517865D01*
X133705264Y-79517865D02*
X133695740Y-79594055D01*
X133976692Y-79784531D02*
X134395740Y-79784531D01*
X134395740Y-79784531D02*
X133910025Y-80317865D01*
X133910025Y-80317865D02*
X134329073Y-80317865D01*
X134943359Y-80279770D02*
X134862406Y-80317865D01*
X134862406Y-80317865D02*
X134710025Y-80317865D01*
X134710025Y-80317865D02*
X134638597Y-80279770D01*
X134638597Y-80279770D02*
X134610025Y-80203579D01*
X134610025Y-80203579D02*
X134648121Y-79898817D01*
X134648121Y-79898817D02*
X134695740Y-79822627D01*
X134695740Y-79822627D02*
X134776692Y-79784531D01*
X134776692Y-79784531D02*
X134929073Y-79784531D01*
X134929073Y-79784531D02*
X135000501Y-79822627D01*
X135000501Y-79822627D02*
X135029073Y-79898817D01*
X135029073Y-79898817D02*
X135019549Y-79975008D01*
X135019549Y-79975008D02*
X134629073Y-80051198D01*
X135662406Y-80317865D02*
X135762406Y-79517865D01*
X135667168Y-80279770D02*
X135586215Y-80317865D01*
X135586215Y-80317865D02*
X135433835Y-80317865D01*
X135433835Y-80317865D02*
X135362406Y-80279770D01*
X135362406Y-80279770D02*
X135329073Y-80241674D01*
X135329073Y-80241674D02*
X135300501Y-80165484D01*
X135300501Y-80165484D02*
X135329073Y-79936912D01*
X135329073Y-79936912D02*
X135376692Y-79860722D01*
X135376692Y-79860722D02*
X135419549Y-79822627D01*
X135419549Y-79822627D02*
X135500501Y-79784531D01*
X135500501Y-79784531D02*
X135652882Y-79784531D01*
X135652882Y-79784531D02*
X135724311Y-79822627D01*
X136638597Y-79517865D02*
X136805264Y-80317865D01*
X136805264Y-80317865D02*
X137171930Y-79517865D01*
X137648121Y-80279770D02*
X137567168Y-80317865D01*
X137567168Y-80317865D02*
X137414787Y-80317865D01*
X137414787Y-80317865D02*
X137343359Y-80279770D01*
X137343359Y-80279770D02*
X137314787Y-80203579D01*
X137314787Y-80203579D02*
X137352883Y-79898817D01*
X137352883Y-79898817D02*
X137400502Y-79822627D01*
X137400502Y-79822627D02*
X137481454Y-79784531D01*
X137481454Y-79784531D02*
X137633835Y-79784531D01*
X137633835Y-79784531D02*
X137705263Y-79822627D01*
X137705263Y-79822627D02*
X137733835Y-79898817D01*
X137733835Y-79898817D02*
X137724311Y-79975008D01*
X137724311Y-79975008D02*
X137333835Y-80051198D01*
X138090977Y-79784531D02*
X138024311Y-80317865D01*
X138081454Y-79860722D02*
X138124311Y-79822627D01*
X138124311Y-79822627D02*
X138205263Y-79784531D01*
X138205263Y-79784531D02*
X138319549Y-79784531D01*
X138319549Y-79784531D02*
X138390977Y-79822627D01*
X138390977Y-79822627D02*
X138419549Y-79898817D01*
X138419549Y-79898817D02*
X138367168Y-80317865D01*
X138700502Y-79784531D02*
X139005264Y-79784531D01*
X138848121Y-79517865D02*
X138762407Y-80203579D01*
X138762407Y-80203579D02*
X138790978Y-80279770D01*
X138790978Y-80279770D02*
X138862407Y-80317865D01*
X138862407Y-80317865D02*
X138938597Y-80317865D01*
X139781454Y-80279770D02*
X139890978Y-80317865D01*
X139890978Y-80317865D02*
X140081454Y-80317865D01*
X140081454Y-80317865D02*
X140162407Y-80279770D01*
X140162407Y-80279770D02*
X140205264Y-80241674D01*
X140205264Y-80241674D02*
X140252883Y-80165484D01*
X140252883Y-80165484D02*
X140262407Y-80089293D01*
X140262407Y-80089293D02*
X140233835Y-80013103D01*
X140233835Y-80013103D02*
X140200502Y-79975008D01*
X140200502Y-79975008D02*
X140129074Y-79936912D01*
X140129074Y-79936912D02*
X139981454Y-79898817D01*
X139981454Y-79898817D02*
X139910026Y-79860722D01*
X139910026Y-79860722D02*
X139876693Y-79822627D01*
X139876693Y-79822627D02*
X139848121Y-79746436D01*
X139848121Y-79746436D02*
X139857645Y-79670246D01*
X139857645Y-79670246D02*
X139905264Y-79594055D01*
X139905264Y-79594055D02*
X139948121Y-79555960D01*
X139948121Y-79555960D02*
X140029074Y-79517865D01*
X140029074Y-79517865D02*
X140219550Y-79517865D01*
X140219550Y-79517865D02*
X140329074Y-79555960D01*
X140567169Y-79784531D02*
X140690979Y-80317865D01*
X140948121Y-79784531D02*
X140690979Y-80317865D01*
X140690979Y-80317865D02*
X140590979Y-80508341D01*
X140590979Y-80508341D02*
X140548121Y-80546436D01*
X140548121Y-80546436D02*
X140467169Y-80584531D01*
X141152883Y-80279770D02*
X141224312Y-80317865D01*
X141224312Y-80317865D02*
X141376693Y-80317865D01*
X141376693Y-80317865D02*
X141457645Y-80279770D01*
X141457645Y-80279770D02*
X141505264Y-80203579D01*
X141505264Y-80203579D02*
X141510026Y-80165484D01*
X141510026Y-80165484D02*
X141481455Y-80089293D01*
X141481455Y-80089293D02*
X141410026Y-80051198D01*
X141410026Y-80051198D02*
X141295741Y-80051198D01*
X141295741Y-80051198D02*
X141224312Y-80013103D01*
X141224312Y-80013103D02*
X141195741Y-79936912D01*
X141195741Y-79936912D02*
X141200503Y-79898817D01*
X141200503Y-79898817D02*
X141248122Y-79822627D01*
X141248122Y-79822627D02*
X141329074Y-79784531D01*
X141329074Y-79784531D02*
X141443360Y-79784531D01*
X141443360Y-79784531D02*
X141514788Y-79822627D01*
X141786217Y-79784531D02*
X142090979Y-79784531D01*
X141933836Y-79517865D02*
X141848122Y-80203579D01*
X141848122Y-80203579D02*
X141876693Y-80279770D01*
X141876693Y-80279770D02*
X141948122Y-80317865D01*
X141948122Y-80317865D02*
X142024312Y-80317865D01*
X142600503Y-80279770D02*
X142519550Y-80317865D01*
X142519550Y-80317865D02*
X142367169Y-80317865D01*
X142367169Y-80317865D02*
X142295741Y-80279770D01*
X142295741Y-80279770D02*
X142267169Y-80203579D01*
X142267169Y-80203579D02*
X142305265Y-79898817D01*
X142305265Y-79898817D02*
X142352884Y-79822627D01*
X142352884Y-79822627D02*
X142433836Y-79784531D01*
X142433836Y-79784531D02*
X142586217Y-79784531D01*
X142586217Y-79784531D02*
X142657645Y-79822627D01*
X142657645Y-79822627D02*
X142686217Y-79898817D01*
X142686217Y-79898817D02*
X142676693Y-79975008D01*
X142676693Y-79975008D02*
X142286217Y-80051198D01*
X142976693Y-80317865D02*
X143043359Y-79784531D01*
X143033836Y-79860722D02*
X143076693Y-79822627D01*
X143076693Y-79822627D02*
X143157645Y-79784531D01*
X143157645Y-79784531D02*
X143271931Y-79784531D01*
X143271931Y-79784531D02*
X143343359Y-79822627D01*
X143343359Y-79822627D02*
X143371931Y-79898817D01*
X143371931Y-79898817D02*
X143319550Y-80317865D01*
X143371931Y-79898817D02*
X143419550Y-79822627D01*
X143419550Y-79822627D02*
X143500502Y-79784531D01*
X143500502Y-79784531D02*
X143614788Y-79784531D01*
X143614788Y-79784531D02*
X143686217Y-79822627D01*
X143686217Y-79822627D02*
X143714788Y-79898817D01*
X143714788Y-79898817D02*
X143662407Y-80317865D01*
X130257643Y-81567725D02*
X130367167Y-81605820D01*
X130367167Y-81605820D02*
X130557643Y-81605820D01*
X130557643Y-81605820D02*
X130638596Y-81567725D01*
X130638596Y-81567725D02*
X130681453Y-81529629D01*
X130681453Y-81529629D02*
X130729072Y-81453439D01*
X130729072Y-81453439D02*
X130738596Y-81377248D01*
X130738596Y-81377248D02*
X130710024Y-81301058D01*
X130710024Y-81301058D02*
X130676691Y-81262963D01*
X130676691Y-81262963D02*
X130605263Y-81224867D01*
X130605263Y-81224867D02*
X130457643Y-81186772D01*
X130457643Y-81186772D02*
X130386215Y-81148677D01*
X130386215Y-81148677D02*
X130352882Y-81110582D01*
X130352882Y-81110582D02*
X130324310Y-81034391D01*
X130324310Y-81034391D02*
X130333834Y-80958201D01*
X130333834Y-80958201D02*
X130381453Y-80882010D01*
X130381453Y-80882010D02*
X130424310Y-80843915D01*
X130424310Y-80843915D02*
X130505263Y-80805820D01*
X130505263Y-80805820D02*
X130695739Y-80805820D01*
X130695739Y-80805820D02*
X130805263Y-80843915D01*
X131052882Y-81605820D02*
X131119548Y-81072486D01*
X131110025Y-81148677D02*
X131152882Y-81110582D01*
X131152882Y-81110582D02*
X131233834Y-81072486D01*
X131233834Y-81072486D02*
X131348120Y-81072486D01*
X131348120Y-81072486D02*
X131419548Y-81110582D01*
X131419548Y-81110582D02*
X131448120Y-81186772D01*
X131448120Y-81186772D02*
X131395739Y-81605820D01*
X131448120Y-81186772D02*
X131495739Y-81110582D01*
X131495739Y-81110582D02*
X131576691Y-81072486D01*
X131576691Y-81072486D02*
X131690977Y-81072486D01*
X131690977Y-81072486D02*
X131762406Y-81110582D01*
X131762406Y-81110582D02*
X131790977Y-81186772D01*
X131790977Y-81186772D02*
X131738596Y-81605820D01*
X132462406Y-81605820D02*
X132514787Y-81186772D01*
X132514787Y-81186772D02*
X132486215Y-81110582D01*
X132486215Y-81110582D02*
X132414787Y-81072486D01*
X132414787Y-81072486D02*
X132262406Y-81072486D01*
X132262406Y-81072486D02*
X132181454Y-81110582D01*
X132467168Y-81567725D02*
X132386215Y-81605820D01*
X132386215Y-81605820D02*
X132195739Y-81605820D01*
X132195739Y-81605820D02*
X132124311Y-81567725D01*
X132124311Y-81567725D02*
X132095739Y-81491534D01*
X132095739Y-81491534D02*
X132105263Y-81415344D01*
X132105263Y-81415344D02*
X132152882Y-81339153D01*
X132152882Y-81339153D02*
X132233835Y-81301058D01*
X132233835Y-81301058D02*
X132424311Y-81301058D01*
X132424311Y-81301058D02*
X132505263Y-81262963D01*
X132843359Y-81605820D02*
X132910025Y-81072486D01*
X132890978Y-81224867D02*
X132938597Y-81148677D01*
X132938597Y-81148677D02*
X132981454Y-81110582D01*
X132981454Y-81110582D02*
X133062406Y-81072486D01*
X133062406Y-81072486D02*
X133138597Y-81072486D01*
X133290978Y-81072486D02*
X133595740Y-81072486D01*
X133438597Y-80805820D02*
X133352883Y-81491534D01*
X133352883Y-81491534D02*
X133381454Y-81567725D01*
X133381454Y-81567725D02*
X133452883Y-81605820D01*
X133452883Y-81605820D02*
X133529073Y-81605820D01*
X134457645Y-81186772D02*
X134724311Y-81186772D01*
X134786216Y-81605820D02*
X134405264Y-81605820D01*
X134405264Y-81605820D02*
X134505264Y-80805820D01*
X134505264Y-80805820D02*
X134886216Y-80805820D01*
X135052883Y-81605820D02*
X135538598Y-81072486D01*
X135119550Y-81072486D02*
X135471931Y-81605820D01*
X135776693Y-81605820D02*
X135876693Y-80805820D01*
X136119550Y-81605820D02*
X136171931Y-81186772D01*
X136171931Y-81186772D02*
X136143359Y-81110582D01*
X136143359Y-81110582D02*
X136071931Y-81072486D01*
X136071931Y-81072486D02*
X135957645Y-81072486D01*
X135957645Y-81072486D02*
X135876693Y-81110582D01*
X135876693Y-81110582D02*
X135833836Y-81148677D01*
X136843360Y-81605820D02*
X136895741Y-81186772D01*
X136895741Y-81186772D02*
X136867169Y-81110582D01*
X136867169Y-81110582D02*
X136795741Y-81072486D01*
X136795741Y-81072486D02*
X136643360Y-81072486D01*
X136643360Y-81072486D02*
X136562408Y-81110582D01*
X136848122Y-81567725D02*
X136767169Y-81605820D01*
X136767169Y-81605820D02*
X136576693Y-81605820D01*
X136576693Y-81605820D02*
X136505265Y-81567725D01*
X136505265Y-81567725D02*
X136476693Y-81491534D01*
X136476693Y-81491534D02*
X136486217Y-81415344D01*
X136486217Y-81415344D02*
X136533836Y-81339153D01*
X136533836Y-81339153D02*
X136614789Y-81301058D01*
X136614789Y-81301058D02*
X136805265Y-81301058D01*
X136805265Y-81301058D02*
X136886217Y-81262963D01*
X137633837Y-81072486D02*
X137567170Y-81605820D01*
X137290979Y-81072486D02*
X137238599Y-81491534D01*
X137238599Y-81491534D02*
X137267170Y-81567725D01*
X137267170Y-81567725D02*
X137338599Y-81605820D01*
X137338599Y-81605820D02*
X137452884Y-81605820D01*
X137452884Y-81605820D02*
X137533837Y-81567725D01*
X137533837Y-81567725D02*
X137576694Y-81529629D01*
X137914789Y-81567725D02*
X137986218Y-81605820D01*
X137986218Y-81605820D02*
X138138599Y-81605820D01*
X138138599Y-81605820D02*
X138219551Y-81567725D01*
X138219551Y-81567725D02*
X138267170Y-81491534D01*
X138267170Y-81491534D02*
X138271932Y-81453439D01*
X138271932Y-81453439D02*
X138243361Y-81377248D01*
X138243361Y-81377248D02*
X138171932Y-81339153D01*
X138171932Y-81339153D02*
X138057647Y-81339153D01*
X138057647Y-81339153D02*
X137986218Y-81301058D01*
X137986218Y-81301058D02*
X137957647Y-81224867D01*
X137957647Y-81224867D02*
X137962409Y-81186772D01*
X137962409Y-81186772D02*
X138010028Y-81110582D01*
X138010028Y-81110582D02*
X138090980Y-81072486D01*
X138090980Y-81072486D02*
X138205266Y-81072486D01*
X138205266Y-81072486D02*
X138276694Y-81110582D01*
X138548123Y-81072486D02*
X138852885Y-81072486D01*
X138695742Y-80805820D02*
X138610028Y-81491534D01*
X138610028Y-81491534D02*
X138638599Y-81567725D01*
X138638599Y-81567725D02*
X138710028Y-81605820D01*
X138710028Y-81605820D02*
X138786218Y-81605820D01*
X140129075Y-81529629D02*
X140086218Y-81567725D01*
X140086218Y-81567725D02*
X139967171Y-81605820D01*
X139967171Y-81605820D02*
X139890980Y-81605820D01*
X139890980Y-81605820D02*
X139781456Y-81567725D01*
X139781456Y-81567725D02*
X139714790Y-81491534D01*
X139714790Y-81491534D02*
X139686218Y-81415344D01*
X139686218Y-81415344D02*
X139667171Y-81262963D01*
X139667171Y-81262963D02*
X139681456Y-81148677D01*
X139681456Y-81148677D02*
X139738599Y-80996296D01*
X139738599Y-80996296D02*
X139786218Y-80920105D01*
X139786218Y-80920105D02*
X139871933Y-80843915D01*
X139871933Y-80843915D02*
X139990980Y-80805820D01*
X139990980Y-80805820D02*
X140067171Y-80805820D01*
X140067171Y-80805820D02*
X140176695Y-80843915D01*
X140176695Y-80843915D02*
X140210028Y-80882010D01*
X140576695Y-81605820D02*
X140505266Y-81567725D01*
X140505266Y-81567725D02*
X140471933Y-81529629D01*
X140471933Y-81529629D02*
X140443361Y-81453439D01*
X140443361Y-81453439D02*
X140471933Y-81224867D01*
X140471933Y-81224867D02*
X140519552Y-81148677D01*
X140519552Y-81148677D02*
X140562409Y-81110582D01*
X140562409Y-81110582D02*
X140643361Y-81072486D01*
X140643361Y-81072486D02*
X140757647Y-81072486D01*
X140757647Y-81072486D02*
X140829075Y-81110582D01*
X140829075Y-81110582D02*
X140862409Y-81148677D01*
X140862409Y-81148677D02*
X140890980Y-81224867D01*
X140890980Y-81224867D02*
X140862409Y-81453439D01*
X140862409Y-81453439D02*
X140814790Y-81529629D01*
X140814790Y-81529629D02*
X140771933Y-81567725D01*
X140771933Y-81567725D02*
X140690980Y-81605820D01*
X140690980Y-81605820D02*
X140576695Y-81605820D01*
X141252885Y-81072486D02*
X141186219Y-81605820D01*
X141243362Y-81148677D02*
X141286219Y-81110582D01*
X141286219Y-81110582D02*
X141367171Y-81072486D01*
X141367171Y-81072486D02*
X141481457Y-81072486D01*
X141481457Y-81072486D02*
X141552885Y-81110582D01*
X141552885Y-81110582D02*
X141581457Y-81186772D01*
X141581457Y-81186772D02*
X141529076Y-81605820D01*
X141862410Y-81072486D02*
X142167172Y-81072486D01*
X142010029Y-80805820D02*
X141924315Y-81491534D01*
X141924315Y-81491534D02*
X141952886Y-81567725D01*
X141952886Y-81567725D02*
X142024315Y-81605820D01*
X142024315Y-81605820D02*
X142100505Y-81605820D01*
X142367172Y-81605820D02*
X142433838Y-81072486D01*
X142414791Y-81224867D02*
X142462410Y-81148677D01*
X142462410Y-81148677D02*
X142505267Y-81110582D01*
X142505267Y-81110582D02*
X142586219Y-81072486D01*
X142586219Y-81072486D02*
X142662410Y-81072486D01*
X142976696Y-81605820D02*
X142905267Y-81567725D01*
X142905267Y-81567725D02*
X142871934Y-81529629D01*
X142871934Y-81529629D02*
X142843362Y-81453439D01*
X142843362Y-81453439D02*
X142871934Y-81224867D01*
X142871934Y-81224867D02*
X142919553Y-81148677D01*
X142919553Y-81148677D02*
X142962410Y-81110582D01*
X142962410Y-81110582D02*
X143043362Y-81072486D01*
X143043362Y-81072486D02*
X143157648Y-81072486D01*
X143157648Y-81072486D02*
X143229076Y-81110582D01*
X143229076Y-81110582D02*
X143262410Y-81148677D01*
X143262410Y-81148677D02*
X143290981Y-81224867D01*
X143290981Y-81224867D02*
X143262410Y-81453439D01*
X143262410Y-81453439D02*
X143214791Y-81529629D01*
X143214791Y-81529629D02*
X143171934Y-81567725D01*
X143171934Y-81567725D02*
X143090981Y-81605820D01*
X143090981Y-81605820D02*
X142976696Y-81605820D01*
X143700506Y-81605820D02*
X143629077Y-81567725D01*
X143629077Y-81567725D02*
X143600506Y-81491534D01*
X143600506Y-81491534D02*
X143686220Y-80805820D01*
X130343358Y-82169965D02*
X130386215Y-82131870D01*
X130386215Y-82131870D02*
X130467167Y-82093775D01*
X130467167Y-82093775D02*
X130657643Y-82093775D01*
X130657643Y-82093775D02*
X130729072Y-82131870D01*
X130729072Y-82131870D02*
X130762405Y-82169965D01*
X130762405Y-82169965D02*
X130790977Y-82246156D01*
X130790977Y-82246156D02*
X130781453Y-82322346D01*
X130781453Y-82322346D02*
X130729072Y-82436632D01*
X130729072Y-82436632D02*
X130214786Y-82893775D01*
X130214786Y-82893775D02*
X130710024Y-82893775D01*
X131305263Y-82093775D02*
X131381453Y-82093775D01*
X131381453Y-82093775D02*
X131452882Y-82131870D01*
X131452882Y-82131870D02*
X131486215Y-82169965D01*
X131486215Y-82169965D02*
X131514787Y-82246156D01*
X131514787Y-82246156D02*
X131533834Y-82398537D01*
X131533834Y-82398537D02*
X131510025Y-82589013D01*
X131510025Y-82589013D02*
X131452882Y-82741394D01*
X131452882Y-82741394D02*
X131405263Y-82817584D01*
X131405263Y-82817584D02*
X131362406Y-82855680D01*
X131362406Y-82855680D02*
X131281453Y-82893775D01*
X131281453Y-82893775D02*
X131205263Y-82893775D01*
X131205263Y-82893775D02*
X131133834Y-82855680D01*
X131133834Y-82855680D02*
X131100501Y-82817584D01*
X131100501Y-82817584D02*
X131071929Y-82741394D01*
X131071929Y-82741394D02*
X131052882Y-82589013D01*
X131052882Y-82589013D02*
X131076691Y-82398537D01*
X131076691Y-82398537D02*
X131133834Y-82246156D01*
X131133834Y-82246156D02*
X131181453Y-82169965D01*
X131181453Y-82169965D02*
X131224310Y-82131870D01*
X131224310Y-82131870D02*
X131305263Y-82093775D01*
X131867168Y-82169965D02*
X131910025Y-82131870D01*
X131910025Y-82131870D02*
X131990977Y-82093775D01*
X131990977Y-82093775D02*
X132181453Y-82093775D01*
X132181453Y-82093775D02*
X132252882Y-82131870D01*
X132252882Y-82131870D02*
X132286215Y-82169965D01*
X132286215Y-82169965D02*
X132314787Y-82246156D01*
X132314787Y-82246156D02*
X132305263Y-82322346D01*
X132305263Y-82322346D02*
X132252882Y-82436632D01*
X132252882Y-82436632D02*
X131738596Y-82893775D01*
X131738596Y-82893775D02*
X132233834Y-82893775D01*
X133057644Y-82093775D02*
X132676692Y-82093775D01*
X132676692Y-82093775D02*
X132590978Y-82474727D01*
X132590978Y-82474727D02*
X132633835Y-82436632D01*
X132633835Y-82436632D02*
X132714787Y-82398537D01*
X132714787Y-82398537D02*
X132905263Y-82398537D01*
X132905263Y-82398537D02*
X132976692Y-82436632D01*
X132976692Y-82436632D02*
X133010025Y-82474727D01*
X133010025Y-82474727D02*
X133038597Y-82550918D01*
X133038597Y-82550918D02*
X133014787Y-82741394D01*
X133014787Y-82741394D02*
X132967168Y-82817584D01*
X132967168Y-82817584D02*
X132924311Y-82855680D01*
X132924311Y-82855680D02*
X132843358Y-82893775D01*
X132843358Y-82893775D02*
X132652882Y-82893775D01*
X132652882Y-82893775D02*
X132581454Y-82855680D01*
X132581454Y-82855680D02*
X132548120Y-82817584D01*
D14*
X105344140Y-94071119D02*
X104772712Y-94071119D01*
X105058426Y-94071119D02*
X105058426Y-93071119D01*
X105058426Y-93071119D02*
X104963188Y-93213976D01*
X104963188Y-93213976D02*
X104867950Y-93309214D01*
X104867950Y-93309214D02*
X104772712Y-93356833D01*
X106058426Y-94452071D02*
X106010807Y-94404452D01*
X106010807Y-94404452D02*
X105915569Y-94261595D01*
X105915569Y-94261595D02*
X105867950Y-94166357D01*
X105867950Y-94166357D02*
X105820331Y-94023500D01*
X105820331Y-94023500D02*
X105772712Y-93785404D01*
X105772712Y-93785404D02*
X105772712Y-93594928D01*
X105772712Y-93594928D02*
X105820331Y-93356833D01*
X105820331Y-93356833D02*
X105867950Y-93213976D01*
X105867950Y-93213976D02*
X105915569Y-93118738D01*
X105915569Y-93118738D02*
X106010807Y-92975880D01*
X106010807Y-92975880D02*
X106058426Y-92928261D01*
X106439379Y-94071119D02*
X106439379Y-93071119D01*
X106439379Y-93071119D02*
X106820331Y-93071119D01*
X106820331Y-93071119D02*
X106915569Y-93118738D01*
X106915569Y-93118738D02*
X106963188Y-93166357D01*
X106963188Y-93166357D02*
X107010807Y-93261595D01*
X107010807Y-93261595D02*
X107010807Y-93404452D01*
X107010807Y-93404452D02*
X106963188Y-93499690D01*
X106963188Y-93499690D02*
X106915569Y-93547309D01*
X106915569Y-93547309D02*
X106820331Y-93594928D01*
X106820331Y-93594928D02*
X106439379Y-93594928D01*
X107344141Y-93071119D02*
X107582236Y-94071119D01*
X107582236Y-94071119D02*
X107772712Y-93356833D01*
X107772712Y-93356833D02*
X107963188Y-94071119D01*
X107963188Y-94071119D02*
X108201284Y-93071119D01*
X108582236Y-94071119D02*
X108582236Y-93071119D01*
X108582236Y-93071119D02*
X108915569Y-93785404D01*
X108915569Y-93785404D02*
X109248902Y-93071119D01*
X109248902Y-93071119D02*
X109248902Y-94071119D01*
X109629855Y-94452071D02*
X109677474Y-94404452D01*
X109677474Y-94404452D02*
X109772712Y-94261595D01*
X109772712Y-94261595D02*
X109820331Y-94166357D01*
X109820331Y-94166357D02*
X109867950Y-94023500D01*
X109867950Y-94023500D02*
X109915569Y-93785404D01*
X109915569Y-93785404D02*
X109915569Y-93594928D01*
X109915569Y-93594928D02*
X109867950Y-93356833D01*
X109867950Y-93356833D02*
X109820331Y-93213976D01*
X109820331Y-93213976D02*
X109772712Y-93118738D01*
X109772712Y-93118738D02*
X109677474Y-92975880D01*
X109677474Y-92975880D02*
X109629855Y-92928261D01*
X110391760Y-93690166D02*
X111153665Y-93690166D01*
X111582236Y-93166357D02*
X111629855Y-93118738D01*
X111629855Y-93118738D02*
X111725093Y-93071119D01*
X111725093Y-93071119D02*
X111963188Y-93071119D01*
X111963188Y-93071119D02*
X112058426Y-93118738D01*
X112058426Y-93118738D02*
X112106045Y-93166357D01*
X112106045Y-93166357D02*
X112153664Y-93261595D01*
X112153664Y-93261595D02*
X112153664Y-93356833D01*
X112153664Y-93356833D02*
X112106045Y-93499690D01*
X112106045Y-93499690D02*
X111534617Y-94071119D01*
X111534617Y-94071119D02*
X112153664Y-94071119D01*
X112867950Y-94452071D02*
X112820331Y-94404452D01*
X112820331Y-94404452D02*
X112725093Y-94261595D01*
X112725093Y-94261595D02*
X112677474Y-94166357D01*
X112677474Y-94166357D02*
X112629855Y-94023500D01*
X112629855Y-94023500D02*
X112582236Y-93785404D01*
X112582236Y-93785404D02*
X112582236Y-93594928D01*
X112582236Y-93594928D02*
X112629855Y-93356833D01*
X112629855Y-93356833D02*
X112677474Y-93213976D01*
X112677474Y-93213976D02*
X112725093Y-93118738D01*
X112725093Y-93118738D02*
X112820331Y-92975880D01*
X112820331Y-92975880D02*
X112867950Y-92928261D01*
X113725093Y-93071119D02*
X113248903Y-93071119D01*
X113248903Y-93071119D02*
X113201284Y-93547309D01*
X113201284Y-93547309D02*
X113248903Y-93499690D01*
X113248903Y-93499690D02*
X113344141Y-93452071D01*
X113344141Y-93452071D02*
X113582236Y-93452071D01*
X113582236Y-93452071D02*
X113677474Y-93499690D01*
X113677474Y-93499690D02*
X113725093Y-93547309D01*
X113725093Y-93547309D02*
X113772712Y-93642547D01*
X113772712Y-93642547D02*
X113772712Y-93880642D01*
X113772712Y-93880642D02*
X113725093Y-93975880D01*
X113725093Y-93975880D02*
X113677474Y-94023500D01*
X113677474Y-94023500D02*
X113582236Y-94071119D01*
X113582236Y-94071119D02*
X113344141Y-94071119D01*
X113344141Y-94071119D02*
X113248903Y-94023500D01*
X113248903Y-94023500D02*
X113201284Y-93975880D01*
X114058427Y-93071119D02*
X114391760Y-94071119D01*
X114391760Y-94071119D02*
X114725093Y-93071119D01*
X114963189Y-94452071D02*
X115010808Y-94404452D01*
X115010808Y-94404452D02*
X115106046Y-94261595D01*
X115106046Y-94261595D02*
X115153665Y-94166357D01*
X115153665Y-94166357D02*
X115201284Y-94023500D01*
X115201284Y-94023500D02*
X115248903Y-93785404D01*
X115248903Y-93785404D02*
X115248903Y-93594928D01*
X115248903Y-93594928D02*
X115201284Y-93356833D01*
X115201284Y-93356833D02*
X115153665Y-93213976D01*
X115153665Y-93213976D02*
X115106046Y-93118738D01*
X115106046Y-93118738D02*
X115010808Y-92975880D01*
X115010808Y-92975880D02*
X114963189Y-92928261D01*
X115725094Y-93690166D02*
X116486999Y-93690166D01*
X116867951Y-93071119D02*
X117486998Y-93071119D01*
X117486998Y-93071119D02*
X117153665Y-93452071D01*
X117153665Y-93452071D02*
X117296522Y-93452071D01*
X117296522Y-93452071D02*
X117391760Y-93499690D01*
X117391760Y-93499690D02*
X117439379Y-93547309D01*
X117439379Y-93547309D02*
X117486998Y-93642547D01*
X117486998Y-93642547D02*
X117486998Y-93880642D01*
X117486998Y-93880642D02*
X117439379Y-93975880D01*
X117439379Y-93975880D02*
X117391760Y-94023500D01*
X117391760Y-94023500D02*
X117296522Y-94071119D01*
X117296522Y-94071119D02*
X117010808Y-94071119D01*
X117010808Y-94071119D02*
X116915570Y-94023500D01*
X116915570Y-94023500D02*
X116867951Y-93975880D01*
X118201284Y-94452071D02*
X118153665Y-94404452D01*
X118153665Y-94404452D02*
X118058427Y-94261595D01*
X118058427Y-94261595D02*
X118010808Y-94166357D01*
X118010808Y-94166357D02*
X117963189Y-94023500D01*
X117963189Y-94023500D02*
X117915570Y-93785404D01*
X117915570Y-93785404D02*
X117915570Y-93594928D01*
X117915570Y-93594928D02*
X117963189Y-93356833D01*
X117963189Y-93356833D02*
X118010808Y-93213976D01*
X118010808Y-93213976D02*
X118058427Y-93118738D01*
X118058427Y-93118738D02*
X118153665Y-92975880D01*
X118153665Y-92975880D02*
X118201284Y-92928261D01*
X119106046Y-93118738D02*
X119010808Y-93071119D01*
X119010808Y-93071119D02*
X118867951Y-93071119D01*
X118867951Y-93071119D02*
X118725094Y-93118738D01*
X118725094Y-93118738D02*
X118629856Y-93213976D01*
X118629856Y-93213976D02*
X118582237Y-93309214D01*
X118582237Y-93309214D02*
X118534618Y-93499690D01*
X118534618Y-93499690D02*
X118534618Y-93642547D01*
X118534618Y-93642547D02*
X118582237Y-93833023D01*
X118582237Y-93833023D02*
X118629856Y-93928261D01*
X118629856Y-93928261D02*
X118725094Y-94023500D01*
X118725094Y-94023500D02*
X118867951Y-94071119D01*
X118867951Y-94071119D02*
X118963189Y-94071119D01*
X118963189Y-94071119D02*
X119106046Y-94023500D01*
X119106046Y-94023500D02*
X119153665Y-93975880D01*
X119153665Y-93975880D02*
X119153665Y-93642547D01*
X119153665Y-93642547D02*
X118963189Y-93642547D01*
X119582237Y-94071119D02*
X119582237Y-93071119D01*
X119582237Y-93071119D02*
X120153665Y-94071119D01*
X120153665Y-94071119D02*
X120153665Y-93071119D01*
X120629856Y-94071119D02*
X120629856Y-93071119D01*
X120629856Y-93071119D02*
X120867951Y-93071119D01*
X120867951Y-93071119D02*
X121010808Y-93118738D01*
X121010808Y-93118738D02*
X121106046Y-93213976D01*
X121106046Y-93213976D02*
X121153665Y-93309214D01*
X121153665Y-93309214D02*
X121201284Y-93499690D01*
X121201284Y-93499690D02*
X121201284Y-93642547D01*
X121201284Y-93642547D02*
X121153665Y-93833023D01*
X121153665Y-93833023D02*
X121106046Y-93928261D01*
X121106046Y-93928261D02*
X121010808Y-94023500D01*
X121010808Y-94023500D02*
X120867951Y-94071119D01*
X120867951Y-94071119D02*
X120629856Y-94071119D01*
X121534618Y-94452071D02*
X121582237Y-94404452D01*
X121582237Y-94404452D02*
X121677475Y-94261595D01*
X121677475Y-94261595D02*
X121725094Y-94166357D01*
X121725094Y-94166357D02*
X121772713Y-94023500D01*
X121772713Y-94023500D02*
X121820332Y-93785404D01*
X121820332Y-93785404D02*
X121820332Y-93594928D01*
X121820332Y-93594928D02*
X121772713Y-93356833D01*
X121772713Y-93356833D02*
X121725094Y-93213976D01*
X121725094Y-93213976D02*
X121677475Y-93118738D01*
X121677475Y-93118738D02*
X121582237Y-92975880D01*
X121582237Y-92975880D02*
X121534618Y-92928261D01*
D13*
X95562405Y-83474727D02*
X95295739Y-83474727D01*
X95295739Y-83893775D02*
X95295739Y-83093775D01*
X95295739Y-83093775D02*
X95676691Y-83093775D01*
X96324310Y-83360441D02*
X96324310Y-83893775D01*
X95981453Y-83360441D02*
X95981453Y-83779489D01*
X95981453Y-83779489D02*
X96019548Y-83855680D01*
X96019548Y-83855680D02*
X96095738Y-83893775D01*
X96095738Y-83893775D02*
X96210024Y-83893775D01*
X96210024Y-83893775D02*
X96286215Y-83855680D01*
X96286215Y-83855680D02*
X96324310Y-83817584D01*
X96667167Y-83855680D02*
X96743358Y-83893775D01*
X96743358Y-83893775D02*
X96895739Y-83893775D01*
X96895739Y-83893775D02*
X96971929Y-83855680D01*
X96971929Y-83855680D02*
X97010025Y-83779489D01*
X97010025Y-83779489D02*
X97010025Y-83741394D01*
X97010025Y-83741394D02*
X96971929Y-83665203D01*
X96971929Y-83665203D02*
X96895739Y-83627108D01*
X96895739Y-83627108D02*
X96781453Y-83627108D01*
X96781453Y-83627108D02*
X96705263Y-83589013D01*
X96705263Y-83589013D02*
X96667167Y-83512822D01*
X96667167Y-83512822D02*
X96667167Y-83474727D01*
X96667167Y-83474727D02*
X96705263Y-83398537D01*
X96705263Y-83398537D02*
X96781453Y-83360441D01*
X96781453Y-83360441D02*
X96895739Y-83360441D01*
X96895739Y-83360441D02*
X96971929Y-83398537D01*
X97657644Y-83855680D02*
X97581453Y-83893775D01*
X97581453Y-83893775D02*
X97429072Y-83893775D01*
X97429072Y-83893775D02*
X97352882Y-83855680D01*
X97352882Y-83855680D02*
X97314786Y-83779489D01*
X97314786Y-83779489D02*
X97314786Y-83474727D01*
X97314786Y-83474727D02*
X97352882Y-83398537D01*
X97352882Y-83398537D02*
X97429072Y-83360441D01*
X97429072Y-83360441D02*
X97581453Y-83360441D01*
X97581453Y-83360441D02*
X97657644Y-83398537D01*
X97657644Y-83398537D02*
X97695739Y-83474727D01*
X97695739Y-83474727D02*
X97695739Y-83550918D01*
X97695739Y-83550918D02*
X97314786Y-83627108D01*
D11*
X128365220Y-89933335D02*
X127565220Y-89933335D01*
X127565220Y-89933335D02*
X128136648Y-89666669D01*
X128136648Y-89666669D02*
X127565220Y-89400002D01*
X127565220Y-89400002D02*
X128365220Y-89400002D01*
X128365220Y-88904764D02*
X128327125Y-88980954D01*
X128327125Y-88980954D02*
X128289029Y-89019049D01*
X128289029Y-89019049D02*
X128212839Y-89057145D01*
X128212839Y-89057145D02*
X127984267Y-89057145D01*
X127984267Y-89057145D02*
X127908077Y-89019049D01*
X127908077Y-89019049D02*
X127869982Y-88980954D01*
X127869982Y-88980954D02*
X127831886Y-88904764D01*
X127831886Y-88904764D02*
X127831886Y-88790478D01*
X127831886Y-88790478D02*
X127869982Y-88714287D01*
X127869982Y-88714287D02*
X127908077Y-88676192D01*
X127908077Y-88676192D02*
X127984267Y-88638097D01*
X127984267Y-88638097D02*
X128212839Y-88638097D01*
X128212839Y-88638097D02*
X128289029Y-88676192D01*
X128289029Y-88676192D02*
X128327125Y-88714287D01*
X128327125Y-88714287D02*
X128365220Y-88790478D01*
X128365220Y-88790478D02*
X128365220Y-88904764D01*
X127831886Y-88409525D02*
X127831886Y-88104763D01*
X127565220Y-88295239D02*
X128250934Y-88295239D01*
X128250934Y-88295239D02*
X128327125Y-88257144D01*
X128327125Y-88257144D02*
X128365220Y-88180954D01*
X128365220Y-88180954D02*
X128365220Y-88104763D01*
X128365220Y-87723811D02*
X128327125Y-87800001D01*
X128327125Y-87800001D02*
X128289029Y-87838096D01*
X128289029Y-87838096D02*
X128212839Y-87876192D01*
X128212839Y-87876192D02*
X127984267Y-87876192D01*
X127984267Y-87876192D02*
X127908077Y-87838096D01*
X127908077Y-87838096D02*
X127869982Y-87800001D01*
X127869982Y-87800001D02*
X127831886Y-87723811D01*
X127831886Y-87723811D02*
X127831886Y-87609525D01*
X127831886Y-87609525D02*
X127869982Y-87533334D01*
X127869982Y-87533334D02*
X127908077Y-87495239D01*
X127908077Y-87495239D02*
X127984267Y-87457144D01*
X127984267Y-87457144D02*
X128212839Y-87457144D01*
X128212839Y-87457144D02*
X128289029Y-87495239D01*
X128289029Y-87495239D02*
X128327125Y-87533334D01*
X128327125Y-87533334D02*
X128365220Y-87609525D01*
X128365220Y-87609525D02*
X128365220Y-87723811D01*
X128365220Y-87114286D02*
X127831886Y-87114286D01*
X127984267Y-87114286D02*
X127908077Y-87076191D01*
X127908077Y-87076191D02*
X127869982Y-87038096D01*
X127869982Y-87038096D02*
X127831886Y-86961905D01*
X127831886Y-86961905D02*
X127831886Y-86885715D01*
X128289029Y-85552381D02*
X128327125Y-85590477D01*
X128327125Y-85590477D02*
X128365220Y-85704762D01*
X128365220Y-85704762D02*
X128365220Y-85780953D01*
X128365220Y-85780953D02*
X128327125Y-85895239D01*
X128327125Y-85895239D02*
X128250934Y-85971429D01*
X128250934Y-85971429D02*
X128174744Y-86009524D01*
X128174744Y-86009524D02*
X128022363Y-86047620D01*
X128022363Y-86047620D02*
X127908077Y-86047620D01*
X127908077Y-86047620D02*
X127755696Y-86009524D01*
X127755696Y-86009524D02*
X127679505Y-85971429D01*
X127679505Y-85971429D02*
X127603315Y-85895239D01*
X127603315Y-85895239D02*
X127565220Y-85780953D01*
X127565220Y-85780953D02*
X127565220Y-85704762D01*
X127565220Y-85704762D02*
X127603315Y-85590477D01*
X127603315Y-85590477D02*
X127641410Y-85552381D01*
X128365220Y-85095239D02*
X128327125Y-85171429D01*
X128327125Y-85171429D02*
X128289029Y-85209524D01*
X128289029Y-85209524D02*
X128212839Y-85247620D01*
X128212839Y-85247620D02*
X127984267Y-85247620D01*
X127984267Y-85247620D02*
X127908077Y-85209524D01*
X127908077Y-85209524D02*
X127869982Y-85171429D01*
X127869982Y-85171429D02*
X127831886Y-85095239D01*
X127831886Y-85095239D02*
X127831886Y-84980953D01*
X127831886Y-84980953D02*
X127869982Y-84904762D01*
X127869982Y-84904762D02*
X127908077Y-84866667D01*
X127908077Y-84866667D02*
X127984267Y-84828572D01*
X127984267Y-84828572D02*
X128212839Y-84828572D01*
X128212839Y-84828572D02*
X128289029Y-84866667D01*
X128289029Y-84866667D02*
X128327125Y-84904762D01*
X128327125Y-84904762D02*
X128365220Y-84980953D01*
X128365220Y-84980953D02*
X128365220Y-85095239D01*
X127831886Y-84485714D02*
X128365220Y-84485714D01*
X127908077Y-84485714D02*
X127869982Y-84447619D01*
X127869982Y-84447619D02*
X127831886Y-84371429D01*
X127831886Y-84371429D02*
X127831886Y-84257143D01*
X127831886Y-84257143D02*
X127869982Y-84180952D01*
X127869982Y-84180952D02*
X127946172Y-84142857D01*
X127946172Y-84142857D02*
X128365220Y-84142857D01*
X127831886Y-83876190D02*
X127831886Y-83571428D01*
X127565220Y-83761904D02*
X128250934Y-83761904D01*
X128250934Y-83761904D02*
X128327125Y-83723809D01*
X128327125Y-83723809D02*
X128365220Y-83647619D01*
X128365220Y-83647619D02*
X128365220Y-83571428D01*
X128365220Y-83304761D02*
X127831886Y-83304761D01*
X127984267Y-83304761D02*
X127908077Y-83266666D01*
X127908077Y-83266666D02*
X127869982Y-83228571D01*
X127869982Y-83228571D02*
X127831886Y-83152380D01*
X127831886Y-83152380D02*
X127831886Y-83076190D01*
X128365220Y-82695238D02*
X128327125Y-82771428D01*
X128327125Y-82771428D02*
X128289029Y-82809523D01*
X128289029Y-82809523D02*
X128212839Y-82847619D01*
X128212839Y-82847619D02*
X127984267Y-82847619D01*
X127984267Y-82847619D02*
X127908077Y-82809523D01*
X127908077Y-82809523D02*
X127869982Y-82771428D01*
X127869982Y-82771428D02*
X127831886Y-82695238D01*
X127831886Y-82695238D02*
X127831886Y-82580952D01*
X127831886Y-82580952D02*
X127869982Y-82504761D01*
X127869982Y-82504761D02*
X127908077Y-82466666D01*
X127908077Y-82466666D02*
X127984267Y-82428571D01*
X127984267Y-82428571D02*
X128212839Y-82428571D01*
X128212839Y-82428571D02*
X128289029Y-82466666D01*
X128289029Y-82466666D02*
X128327125Y-82504761D01*
X128327125Y-82504761D02*
X128365220Y-82580952D01*
X128365220Y-82580952D02*
X128365220Y-82695238D01*
X128365220Y-81971428D02*
X128327125Y-82047618D01*
X128327125Y-82047618D02*
X128250934Y-82085713D01*
X128250934Y-82085713D02*
X127565220Y-82085713D01*
X128669982Y-80828570D02*
X128631886Y-80866665D01*
X128631886Y-80866665D02*
X128517601Y-80942856D01*
X128517601Y-80942856D02*
X128441410Y-80980951D01*
X128441410Y-80980951D02*
X128327125Y-81019046D01*
X128327125Y-81019046D02*
X128136648Y-81057141D01*
X128136648Y-81057141D02*
X127984267Y-81057141D01*
X127984267Y-81057141D02*
X127793791Y-81019046D01*
X127793791Y-81019046D02*
X127679505Y-80980951D01*
X127679505Y-80980951D02*
X127603315Y-80942856D01*
X127603315Y-80942856D02*
X127489029Y-80866665D01*
X127489029Y-80866665D02*
X127450934Y-80828570D01*
X128365220Y-80523808D02*
X127565220Y-80523808D01*
X127565220Y-80523808D02*
X127565220Y-80219046D01*
X127565220Y-80219046D02*
X127603315Y-80142856D01*
X127603315Y-80142856D02*
X127641410Y-80104761D01*
X127641410Y-80104761D02*
X127717601Y-80066665D01*
X127717601Y-80066665D02*
X127831886Y-80066665D01*
X127831886Y-80066665D02*
X127908077Y-80104761D01*
X127908077Y-80104761D02*
X127946172Y-80142856D01*
X127946172Y-80142856D02*
X127984267Y-80219046D01*
X127984267Y-80219046D02*
X127984267Y-80523808D01*
X127565220Y-79799999D02*
X128365220Y-79609523D01*
X128365220Y-79609523D02*
X127793791Y-79457142D01*
X127793791Y-79457142D02*
X128365220Y-79304761D01*
X128365220Y-79304761D02*
X127565220Y-79114285D01*
X128365220Y-78809522D02*
X127565220Y-78809522D01*
X127565220Y-78809522D02*
X128136648Y-78542856D01*
X128136648Y-78542856D02*
X127565220Y-78276189D01*
X127565220Y-78276189D02*
X128365220Y-78276189D01*
X127831886Y-77399998D02*
X127831886Y-77095236D01*
X127565220Y-77285712D02*
X128250934Y-77285712D01*
X128250934Y-77285712D02*
X128327125Y-77247617D01*
X128327125Y-77247617D02*
X128365220Y-77171427D01*
X128365220Y-77171427D02*
X128365220Y-77095236D01*
X128365220Y-76714284D02*
X128327125Y-76790474D01*
X128327125Y-76790474D02*
X128289029Y-76828569D01*
X128289029Y-76828569D02*
X128212839Y-76866665D01*
X128212839Y-76866665D02*
X127984267Y-76866665D01*
X127984267Y-76866665D02*
X127908077Y-76828569D01*
X127908077Y-76828569D02*
X127869982Y-76790474D01*
X127869982Y-76790474D02*
X127831886Y-76714284D01*
X127831886Y-76714284D02*
X127831886Y-76599998D01*
X127831886Y-76599998D02*
X127869982Y-76523807D01*
X127869982Y-76523807D02*
X127908077Y-76485712D01*
X127908077Y-76485712D02*
X127984267Y-76447617D01*
X127984267Y-76447617D02*
X128212839Y-76447617D01*
X128212839Y-76447617D02*
X128289029Y-76485712D01*
X128289029Y-76485712D02*
X128327125Y-76523807D01*
X128327125Y-76523807D02*
X128365220Y-76599998D01*
X128365220Y-76599998D02*
X128365220Y-76714284D01*
X128327125Y-75533331D02*
X128365220Y-75419045D01*
X128365220Y-75419045D02*
X128365220Y-75228569D01*
X128365220Y-75228569D02*
X128327125Y-75152378D01*
X128327125Y-75152378D02*
X128289029Y-75114283D01*
X128289029Y-75114283D02*
X128212839Y-75076188D01*
X128212839Y-75076188D02*
X128136648Y-75076188D01*
X128136648Y-75076188D02*
X128060458Y-75114283D01*
X128060458Y-75114283D02*
X128022363Y-75152378D01*
X128022363Y-75152378D02*
X127984267Y-75228569D01*
X127984267Y-75228569D02*
X127946172Y-75380950D01*
X127946172Y-75380950D02*
X127908077Y-75457140D01*
X127908077Y-75457140D02*
X127869982Y-75495235D01*
X127869982Y-75495235D02*
X127793791Y-75533331D01*
X127793791Y-75533331D02*
X127717601Y-75533331D01*
X127717601Y-75533331D02*
X127641410Y-75495235D01*
X127641410Y-75495235D02*
X127603315Y-75457140D01*
X127603315Y-75457140D02*
X127565220Y-75380950D01*
X127565220Y-75380950D02*
X127565220Y-75190473D01*
X127565220Y-75190473D02*
X127603315Y-75076188D01*
X128327125Y-74428568D02*
X128365220Y-74504759D01*
X128365220Y-74504759D02*
X128365220Y-74657140D01*
X128365220Y-74657140D02*
X128327125Y-74733330D01*
X128327125Y-74733330D02*
X128250934Y-74771426D01*
X128250934Y-74771426D02*
X127946172Y-74771426D01*
X127946172Y-74771426D02*
X127869982Y-74733330D01*
X127869982Y-74733330D02*
X127831886Y-74657140D01*
X127831886Y-74657140D02*
X127831886Y-74504759D01*
X127831886Y-74504759D02*
X127869982Y-74428568D01*
X127869982Y-74428568D02*
X127946172Y-74390473D01*
X127946172Y-74390473D02*
X128022363Y-74390473D01*
X128022363Y-74390473D02*
X128098553Y-74771426D01*
X128365220Y-74047616D02*
X127831886Y-74047616D01*
X127984267Y-74047616D02*
X127908077Y-74009521D01*
X127908077Y-74009521D02*
X127869982Y-73971426D01*
X127869982Y-73971426D02*
X127831886Y-73895235D01*
X127831886Y-73895235D02*
X127831886Y-73819045D01*
X127831886Y-73628569D02*
X128365220Y-73438093D01*
X128365220Y-73438093D02*
X127831886Y-73247616D01*
X128365220Y-72828569D02*
X128327125Y-72904759D01*
X128327125Y-72904759D02*
X128289029Y-72942854D01*
X128289029Y-72942854D02*
X128212839Y-72980950D01*
X128212839Y-72980950D02*
X127984267Y-72980950D01*
X127984267Y-72980950D02*
X127908077Y-72942854D01*
X127908077Y-72942854D02*
X127869982Y-72904759D01*
X127869982Y-72904759D02*
X127831886Y-72828569D01*
X127831886Y-72828569D02*
X127831886Y-72714283D01*
X127831886Y-72714283D02*
X127869982Y-72638092D01*
X127869982Y-72638092D02*
X127908077Y-72599997D01*
X127908077Y-72599997D02*
X127984267Y-72561902D01*
X127984267Y-72561902D02*
X128212839Y-72561902D01*
X128212839Y-72561902D02*
X128289029Y-72599997D01*
X128289029Y-72599997D02*
X128327125Y-72638092D01*
X128327125Y-72638092D02*
X128365220Y-72714283D01*
X128365220Y-72714283D02*
X128365220Y-72828569D01*
X128669982Y-72295235D02*
X128631886Y-72257140D01*
X128631886Y-72257140D02*
X128517601Y-72180949D01*
X128517601Y-72180949D02*
X128441410Y-72142854D01*
X128441410Y-72142854D02*
X128327125Y-72104759D01*
X128327125Y-72104759D02*
X128136648Y-72066663D01*
X128136648Y-72066663D02*
X127984267Y-72066663D01*
X127984267Y-72066663D02*
X127793791Y-72104759D01*
X127793791Y-72104759D02*
X127679505Y-72142854D01*
X127679505Y-72142854D02*
X127603315Y-72180949D01*
X127603315Y-72180949D02*
X127489029Y-72257140D01*
X127489029Y-72257140D02*
X127450934Y-72295235D01*
D10*
X78413408Y-66032749D02*
X78375312Y-66070845D01*
X78375312Y-66070845D02*
X78261027Y-66108940D01*
X78261027Y-66108940D02*
X78184836Y-66108940D01*
X78184836Y-66108940D02*
X78070550Y-66070845D01*
X78070550Y-66070845D02*
X77994360Y-65994654D01*
X77994360Y-65994654D02*
X77956265Y-65918464D01*
X77956265Y-65918464D02*
X77918169Y-65766083D01*
X77918169Y-65766083D02*
X77918169Y-65651797D01*
X77918169Y-65651797D02*
X77956265Y-65499416D01*
X77956265Y-65499416D02*
X77994360Y-65423225D01*
X77994360Y-65423225D02*
X78070550Y-65347035D01*
X78070550Y-65347035D02*
X78184836Y-65308940D01*
X78184836Y-65308940D02*
X78261027Y-65308940D01*
X78261027Y-65308940D02*
X78375312Y-65347035D01*
X78375312Y-65347035D02*
X78413408Y-65385130D01*
X79175312Y-66108940D02*
X78718169Y-66108940D01*
X78946741Y-66108940D02*
X78946741Y-65308940D01*
X78946741Y-65308940D02*
X78870550Y-65423225D01*
X78870550Y-65423225D02*
X78794360Y-65499416D01*
X78794360Y-65499416D02*
X78718169Y-65537511D01*
X79746741Y-66413702D02*
X79708646Y-66375606D01*
X79708646Y-66375606D02*
X79632455Y-66261321D01*
X79632455Y-66261321D02*
X79594360Y-66185130D01*
X79594360Y-66185130D02*
X79556265Y-66070845D01*
X79556265Y-66070845D02*
X79518170Y-65880368D01*
X79518170Y-65880368D02*
X79518170Y-65727987D01*
X79518170Y-65727987D02*
X79556265Y-65537511D01*
X79556265Y-65537511D02*
X79594360Y-65423225D01*
X79594360Y-65423225D02*
X79632455Y-65347035D01*
X79632455Y-65347035D02*
X79708646Y-65232749D01*
X79708646Y-65232749D02*
X79746741Y-65194654D01*
X80470550Y-66108940D02*
X80013407Y-66108940D01*
X80241979Y-66108940D02*
X80241979Y-65308940D01*
X80241979Y-65308940D02*
X80165788Y-65423225D01*
X80165788Y-65423225D02*
X80089598Y-65499416D01*
X80089598Y-65499416D02*
X80013407Y-65537511D01*
X80965789Y-65308940D02*
X81041979Y-65308940D01*
X81041979Y-65308940D02*
X81118170Y-65347035D01*
X81118170Y-65347035D02*
X81156265Y-65385130D01*
X81156265Y-65385130D02*
X81194360Y-65461321D01*
X81194360Y-65461321D02*
X81232455Y-65613702D01*
X81232455Y-65613702D02*
X81232455Y-65804178D01*
X81232455Y-65804178D02*
X81194360Y-65956559D01*
X81194360Y-65956559D02*
X81156265Y-66032749D01*
X81156265Y-66032749D02*
X81118170Y-66070845D01*
X81118170Y-66070845D02*
X81041979Y-66108940D01*
X81041979Y-66108940D02*
X80965789Y-66108940D01*
X80965789Y-66108940D02*
X80889598Y-66070845D01*
X80889598Y-66070845D02*
X80851503Y-66032749D01*
X80851503Y-66032749D02*
X80813408Y-65956559D01*
X80813408Y-65956559D02*
X80775312Y-65804178D01*
X80775312Y-65804178D02*
X80775312Y-65613702D01*
X80775312Y-65613702D02*
X80813408Y-65461321D01*
X80813408Y-65461321D02*
X80851503Y-65385130D01*
X80851503Y-65385130D02*
X80889598Y-65347035D01*
X80889598Y-65347035D02*
X80965789Y-65308940D01*
X81575313Y-65575606D02*
X81575313Y-66375606D01*
X81956265Y-65994654D02*
X81994360Y-66070845D01*
X81994360Y-66070845D02*
X82070551Y-66108940D01*
X81575313Y-65994654D02*
X81613408Y-66070845D01*
X81613408Y-66070845D02*
X81689598Y-66108940D01*
X81689598Y-66108940D02*
X81841979Y-66108940D01*
X81841979Y-66108940D02*
X81918170Y-66070845D01*
X81918170Y-66070845D02*
X81956265Y-65994654D01*
X81956265Y-65994654D02*
X81956265Y-65575606D01*
X82680074Y-65689892D02*
X82413408Y-65689892D01*
X82413408Y-66108940D02*
X82413408Y-65308940D01*
X82413408Y-65308940D02*
X82794360Y-65308940D01*
X83022931Y-66413702D02*
X83061026Y-66375606D01*
X83061026Y-66375606D02*
X83137217Y-66261321D01*
X83137217Y-66261321D02*
X83175312Y-66185130D01*
X83175312Y-66185130D02*
X83213407Y-66070845D01*
X83213407Y-66070845D02*
X83251503Y-65880368D01*
X83251503Y-65880368D02*
X83251503Y-65727987D01*
X83251503Y-65727987D02*
X83213407Y-65537511D01*
X83213407Y-65537511D02*
X83175312Y-65423225D01*
X83175312Y-65423225D02*
X83137217Y-65347035D01*
X83137217Y-65347035D02*
X83061026Y-65232749D01*
X83061026Y-65232749D02*
X83022931Y-65194654D01*
X78413408Y-67320704D02*
X78375312Y-67358800D01*
X78375312Y-67358800D02*
X78261027Y-67396895D01*
X78261027Y-67396895D02*
X78184836Y-67396895D01*
X78184836Y-67396895D02*
X78070550Y-67358800D01*
X78070550Y-67358800D02*
X77994360Y-67282609D01*
X77994360Y-67282609D02*
X77956265Y-67206419D01*
X77956265Y-67206419D02*
X77918169Y-67054038D01*
X77918169Y-67054038D02*
X77918169Y-66939752D01*
X77918169Y-66939752D02*
X77956265Y-66787371D01*
X77956265Y-66787371D02*
X77994360Y-66711180D01*
X77994360Y-66711180D02*
X78070550Y-66634990D01*
X78070550Y-66634990D02*
X78184836Y-66596895D01*
X78184836Y-66596895D02*
X78261027Y-66596895D01*
X78261027Y-66596895D02*
X78375312Y-66634990D01*
X78375312Y-66634990D02*
X78413408Y-66673085D01*
X78718169Y-66673085D02*
X78756265Y-66634990D01*
X78756265Y-66634990D02*
X78832455Y-66596895D01*
X78832455Y-66596895D02*
X79022931Y-66596895D01*
X79022931Y-66596895D02*
X79099122Y-66634990D01*
X79099122Y-66634990D02*
X79137217Y-66673085D01*
X79137217Y-66673085D02*
X79175312Y-66749276D01*
X79175312Y-66749276D02*
X79175312Y-66825466D01*
X79175312Y-66825466D02*
X79137217Y-66939752D01*
X79137217Y-66939752D02*
X78680074Y-67396895D01*
X78680074Y-67396895D02*
X79175312Y-67396895D01*
X79746741Y-67701657D02*
X79708646Y-67663561D01*
X79708646Y-67663561D02*
X79632455Y-67549276D01*
X79632455Y-67549276D02*
X79594360Y-67473085D01*
X79594360Y-67473085D02*
X79556265Y-67358800D01*
X79556265Y-67358800D02*
X79518170Y-67168323D01*
X79518170Y-67168323D02*
X79518170Y-67015942D01*
X79518170Y-67015942D02*
X79556265Y-66825466D01*
X79556265Y-66825466D02*
X79594360Y-66711180D01*
X79594360Y-66711180D02*
X79632455Y-66634990D01*
X79632455Y-66634990D02*
X79708646Y-66520704D01*
X79708646Y-66520704D02*
X79746741Y-66482609D01*
X80470550Y-67396895D02*
X80013407Y-67396895D01*
X80241979Y-67396895D02*
X80241979Y-66596895D01*
X80241979Y-66596895D02*
X80165788Y-66711180D01*
X80165788Y-66711180D02*
X80089598Y-66787371D01*
X80089598Y-66787371D02*
X80013407Y-66825466D01*
X80965789Y-66596895D02*
X81041979Y-66596895D01*
X81041979Y-66596895D02*
X81118170Y-66634990D01*
X81118170Y-66634990D02*
X81156265Y-66673085D01*
X81156265Y-66673085D02*
X81194360Y-66749276D01*
X81194360Y-66749276D02*
X81232455Y-66901657D01*
X81232455Y-66901657D02*
X81232455Y-67092133D01*
X81232455Y-67092133D02*
X81194360Y-67244514D01*
X81194360Y-67244514D02*
X81156265Y-67320704D01*
X81156265Y-67320704D02*
X81118170Y-67358800D01*
X81118170Y-67358800D02*
X81041979Y-67396895D01*
X81041979Y-67396895D02*
X80965789Y-67396895D01*
X80965789Y-67396895D02*
X80889598Y-67358800D01*
X80889598Y-67358800D02*
X80851503Y-67320704D01*
X80851503Y-67320704D02*
X80813408Y-67244514D01*
X80813408Y-67244514D02*
X80775312Y-67092133D01*
X80775312Y-67092133D02*
X80775312Y-66901657D01*
X80775312Y-66901657D02*
X80813408Y-66749276D01*
X80813408Y-66749276D02*
X80851503Y-66673085D01*
X80851503Y-66673085D02*
X80889598Y-66634990D01*
X80889598Y-66634990D02*
X80965789Y-66596895D01*
X81575313Y-66863561D02*
X81575313Y-67663561D01*
X81956265Y-67282609D02*
X81994360Y-67358800D01*
X81994360Y-67358800D02*
X82070551Y-67396895D01*
X81575313Y-67282609D02*
X81613408Y-67358800D01*
X81613408Y-67358800D02*
X81689598Y-67396895D01*
X81689598Y-67396895D02*
X81841979Y-67396895D01*
X81841979Y-67396895D02*
X81918170Y-67358800D01*
X81918170Y-67358800D02*
X81956265Y-67282609D01*
X81956265Y-67282609D02*
X81956265Y-66863561D01*
X82680074Y-66977847D02*
X82413408Y-66977847D01*
X82413408Y-67396895D02*
X82413408Y-66596895D01*
X82413408Y-66596895D02*
X82794360Y-66596895D01*
X83022931Y-67701657D02*
X83061026Y-67663561D01*
X83061026Y-67663561D02*
X83137217Y-67549276D01*
X83137217Y-67549276D02*
X83175312Y-67473085D01*
X83175312Y-67473085D02*
X83213407Y-67358800D01*
X83213407Y-67358800D02*
X83251503Y-67168323D01*
X83251503Y-67168323D02*
X83251503Y-67015942D01*
X83251503Y-67015942D02*
X83213407Y-66825466D01*
X83213407Y-66825466D02*
X83175312Y-66711180D01*
X83175312Y-66711180D02*
X83137217Y-66634990D01*
X83137217Y-66634990D02*
X83061026Y-66520704D01*
X83061026Y-66520704D02*
X83022931Y-66482609D01*
D12*
X90454819Y-69861904D02*
X91264342Y-69861904D01*
X91264342Y-69861904D02*
X91359580Y-69814285D01*
X91359580Y-69814285D02*
X91407200Y-69766666D01*
X91407200Y-69766666D02*
X91454819Y-69671428D01*
X91454819Y-69671428D02*
X91454819Y-69480952D01*
X91454819Y-69480952D02*
X91407200Y-69385714D01*
X91407200Y-69385714D02*
X91359580Y-69338095D01*
X91359580Y-69338095D02*
X91264342Y-69290476D01*
X91264342Y-69290476D02*
X90454819Y-69290476D01*
X90454819Y-68909523D02*
X90454819Y-68290476D01*
X90454819Y-68290476D02*
X90835771Y-68623809D01*
X90835771Y-68623809D02*
X90835771Y-68480952D01*
X90835771Y-68480952D02*
X90883390Y-68385714D01*
X90883390Y-68385714D02*
X90931009Y-68338095D01*
X90931009Y-68338095D02*
X91026247Y-68290476D01*
X91026247Y-68290476D02*
X91264342Y-68290476D01*
X91264342Y-68290476D02*
X91359580Y-68338095D01*
X91359580Y-68338095D02*
X91407200Y-68385714D01*
X91407200Y-68385714D02*
X91454819Y-68480952D01*
X91454819Y-68480952D02*
X91454819Y-68766666D01*
X91454819Y-68766666D02*
X91407200Y-68861904D01*
X91407200Y-68861904D02*
X91359580Y-68909523D01*
X118090476Y-73854819D02*
X118090476Y-72854819D01*
X118090476Y-72854819D02*
X118423809Y-73569104D01*
X118423809Y-73569104D02*
X118757142Y-72854819D01*
X118757142Y-72854819D02*
X118757142Y-73854819D01*
X119757142Y-73854819D02*
X119185714Y-73854819D01*
X119471428Y-73854819D02*
X119471428Y-72854819D01*
X119471428Y-72854819D02*
X119376190Y-72997676D01*
X119376190Y-72997676D02*
X119280952Y-73092914D01*
X119280952Y-73092914D02*
X119185714Y-73140533D01*
D15*
%TO.C,J1*%
X80242500Y-71550000D02*
X80242500Y-70500000D01*
X80442500Y-70700000D02*
X83042500Y-70700000D01*
X80442500Y-85400000D02*
X80442500Y-70700000D01*
X81292500Y-70500000D02*
X80242500Y-70500000D01*
X86942500Y-70700000D02*
X89642500Y-70700000D01*
X89642500Y-70700000D02*
X89642500Y-72600000D01*
X89642500Y-76600000D02*
X89642500Y-85400000D01*
X89642500Y-85400000D02*
X80442500Y-85400000D01*
%TO.C,R2*%
X134965000Y-58914564D02*
X134965000Y-58460436D01*
X136435000Y-58914564D02*
X136435000Y-58460436D01*
%TO.C,C2*%
X89611252Y-65965000D02*
X89088748Y-65965000D01*
X89611252Y-67435000D02*
X89088748Y-67435000D01*
%TO.C,U3*%
X92090000Y-67190000D02*
X93350000Y-67190000D01*
X92090000Y-70950000D02*
X92090000Y-67190000D01*
X98910000Y-67190000D02*
X97650000Y-67190000D01*
X98910000Y-70950000D02*
X98910000Y-67190000D01*
X92190000Y-72230000D02*
X91860000Y-72470000D01*
X91860000Y-71990000D01*
X92190000Y-72230000D01*
G36*
X92190000Y-72230000D02*
G01*
X91860000Y-72470000D01*
X91860000Y-71990000D01*
X92190000Y-72230000D01*
G37*
%TO.C,SW1*%
X129850000Y-68050000D02*
X129850000Y-72550000D01*
X132350000Y-73800000D02*
X133850000Y-73800000D01*
X133850000Y-66800000D02*
X132350000Y-66800000D01*
X136350000Y-72550000D02*
X136350000Y-68050000D01*
%TO.C,J2*%
X126340000Y-41475000D02*
X126340000Y-44235000D01*
X126910000Y-41475000D02*
X126340000Y-41475000D01*
X129450000Y-44235000D02*
X126340000Y-44235000D01*
X131990000Y-41475000D02*
X128530000Y-41475000D01*
X134530000Y-44235000D02*
X131070000Y-44235000D01*
X136150000Y-41475000D02*
X133610000Y-41475000D01*
X136150000Y-44235000D02*
X136150000Y-45705000D01*
X136720000Y-41475000D02*
X133610000Y-41475000D01*
X136720000Y-41475000D02*
X136720000Y-44235000D01*
X136720000Y-44235000D02*
X136150000Y-44235000D01*
%TO.C,C1*%
X85311252Y-65965000D02*
X84788748Y-65965000D01*
X85311252Y-67435000D02*
X84788748Y-67435000D01*
%TO.C,D1*%
X140090000Y-53245000D02*
X140090000Y-50155000D01*
X134540000Y-51700000D02*
G75*
G02*
X140090000Y-50155170I2990000J0D01*
G01*
X140090000Y-53244830D02*
G75*
G02*
X134540000Y-51700000I-2560000J1544830D01*
G01*
X140030000Y-51700000D02*
G75*
G02*
X135030000Y-51700000I-2500000J0D01*
G01*
X135030000Y-51700000D02*
G75*
G02*
X140030000Y-51700000I2500000J0D01*
G01*
%TO.C,U1*%
X84025000Y-38800000D02*
X122945000Y-38800000D01*
X84025000Y-64200000D02*
X84025000Y-38800000D01*
X122945000Y-38800000D02*
X122945000Y-64200000D01*
X122945000Y-64200000D02*
X84025000Y-64200000D01*
%TO.C,U2*%
X125000000Y-48090000D02*
X133000000Y-48090000D01*
X125000000Y-63690000D02*
X125000000Y-48090000D01*
X131980000Y-47840000D02*
X133250000Y-47840000D01*
X133000000Y-48090000D02*
X133000000Y-63690000D01*
X133000000Y-63690000D02*
X125000000Y-63690000D01*
X133250000Y-47840000D02*
X133250000Y-49110000D01*
%TO.C,R1*%
X134765000Y-63039564D02*
X134765000Y-62585436D01*
X136235000Y-63039564D02*
X136235000Y-62585436D01*
%TO.C,F1*%
X94290000Y-80523752D02*
X94290000Y-77751248D01*
X97710000Y-80523752D02*
X97710000Y-77751248D01*
%TO.C,M1*%
X101440000Y-67440000D02*
X106500000Y-67440000D01*
X101440000Y-91810000D02*
X101440000Y-67440000D01*
X102050000Y-91810000D02*
X102300000Y-90310000D01*
X102300000Y-90310000D02*
X108300000Y-90310000D01*
X107800000Y-66250000D02*
X108100000Y-66850000D01*
X107800000Y-66250000D02*
X108400000Y-66250000D01*
X108400000Y-66250000D02*
X108100000Y-66850000D01*
X108550000Y-91810000D02*
X108300000Y-90310000D01*
X109550000Y-91810000D02*
X109800000Y-90310000D01*
X109700000Y-67440000D02*
X114000000Y-67440000D01*
X109800000Y-90310000D02*
X115800000Y-90310000D01*
X116050000Y-91810000D02*
X115800000Y-90310000D01*
X117050000Y-91810000D02*
X117300000Y-90310000D01*
X117200000Y-67440000D02*
X121500000Y-67440000D01*
X117300000Y-90310000D02*
X123300000Y-90310000D01*
X123550000Y-91810000D02*
X123300000Y-90310000D01*
X124700000Y-67440000D02*
X125960000Y-67440000D01*
X125960000Y-67440000D02*
X125960000Y-91810000D01*
X125960000Y-91810000D02*
X101440000Y-91810000D01*
%TD*%
M02*
