%TF.GenerationSoftware,KiCad,Pcbnew,9.0.2*%
%TF.CreationDate,2025-08-02T19:20:04+02:00*%
%TF.ProjectId,Smart Exhaust Control,536d6172-7420-4457-9868-617573742043,rev?*%
%TF.SameCoordinates,Original*%
%TF.FileFunction,Soldermask,Top*%
%TF.FilePolarity,Negative*%
%FSLAX46Y46*%
G04 Gerber Fmt 4.6, Leading zero omitted, Abs format (unit mm)*
G04 Created by KiCad (PCBNEW 9.0.2) date 2025-08-02 19:20:04*
%MOMM*%
%LPD*%
G01*
G04 APERTURE LIST*
G04 Aperture macros list*
%AMRoundRect*
0 Rectangle with rounded corners*
0 $1 Rounding radius*
0 $2 $3 $4 $5 $6 $7 $8 $9 X,Y pos of 4 corners*
0 Add a 4 corners polygon primitive as box body*
4,1,4,$2,$3,$4,$5,$6,$7,$8,$9,$2,$3,0*
0 Add four circle primitives for the rounded corners*
1,1,$1+$1,$2,$3*
1,1,$1+$1,$4,$5*
1,1,$1+$1,$6,$7*
1,1,$1+$1,$8,$9*
0 Add four rect primitives between the rounded corners*
20,1,$1+$1,$2,$3,$4,$5,0*
20,1,$1+$1,$4,$5,$6,$7,0*
20,1,$1+$1,$6,$7,$8,$9,0*
20,1,$1+$1,$8,$9,$2,$3,0*%
G04 Aperture macros list end*
%ADD10R,3.500000X3.500000*%
%ADD11RoundRect,0.750000X1.000000X-0.750000X1.000000X0.750000X-1.000000X0.750000X-1.000000X-0.750000X0*%
%ADD12RoundRect,0.875000X0.875000X-0.875000X0.875000X0.875000X-0.875000X0.875000X-0.875000X-0.875000X0*%
%ADD13RoundRect,0.250000X0.450000X-0.262500X0.450000X0.262500X-0.450000X0.262500X-0.450000X-0.262500X0*%
%ADD14RoundRect,0.250000X0.250000X0.475000X-0.250000X0.475000X-0.250000X-0.475000X0.250000X-0.475000X0*%
%ADD15RoundRect,0.375000X0.375000X-0.625000X0.375000X0.625000X-0.375000X0.625000X-0.375000X-0.625000X0*%
%ADD16RoundRect,0.500000X1.400000X-0.500000X1.400000X0.500000X-1.400000X0.500000X-1.400000X-0.500000X0*%
%ADD17C,2.000000*%
%ADD18R,1.000000X2.510000*%
%ADD19C,3.200000*%
%ADD20R,1.800000X1.800000*%
%ADD21C,1.800000*%
%ADD22R,1.500000X1.500000*%
%ADD23C,1.500000*%
%ADD24RoundRect,0.250000X1.450000X-0.312500X1.450000X0.312500X-1.450000X0.312500X-1.450000X-0.312500X0*%
%ADD25RoundRect,0.250001X-1.149999X-1.899999X1.149999X-1.899999X1.149999X1.899999X-1.149999X1.899999X0*%
%ADD26O,2.800000X4.300000*%
G04 APERTURE END LIST*
D10*
%TO.C,J1*%
X85042500Y-71600000D03*
D11*
X85042500Y-77600000D03*
D12*
X89742500Y-74600000D03*
%TD*%
D13*
%TO.C,R2*%
X135700000Y-59600000D03*
X135700000Y-57775000D03*
%TD*%
D14*
%TO.C,C2*%
X90300000Y-66700000D03*
X88400000Y-66700000D03*
%TD*%
D15*
%TO.C,U3*%
X93200000Y-72250000D03*
X95500000Y-72250000D03*
D16*
X95500000Y-65950000D03*
D15*
X97800000Y-72250000D03*
%TD*%
D17*
%TO.C,SW1*%
X130850000Y-73550000D03*
X130850000Y-67050000D03*
X135350000Y-73550000D03*
X135350000Y-67050000D03*
%TD*%
D18*
%TO.C,J2*%
X135340000Y-44510000D03*
X132800000Y-41200000D03*
X130260000Y-44510000D03*
X127720000Y-41200000D03*
%TD*%
D14*
%TO.C,C1*%
X86000000Y-66700000D03*
X84100000Y-66700000D03*
%TD*%
D19*
%TO.C,H2*%
X78000000Y-35000000D03*
%TD*%
D20*
%TO.C,D1*%
X138800000Y-51700000D03*
D21*
X136260000Y-51700000D03*
%TD*%
D19*
%TO.C,H4*%
X78000000Y-91000000D03*
%TD*%
D22*
%TO.C,U1*%
X85705000Y-62930000D03*
D23*
X88245000Y-62930000D03*
X90785000Y-62930000D03*
X93325000Y-62930000D03*
X95865000Y-62930000D03*
X98405000Y-62930000D03*
X100945000Y-62930000D03*
X103485000Y-62930000D03*
X106025000Y-62930000D03*
X108565000Y-62930000D03*
X111105000Y-62930000D03*
X113645000Y-62930000D03*
X116185000Y-62930000D03*
X118725000Y-62930000D03*
X121265000Y-62930000D03*
X121265000Y-40070000D03*
X118725000Y-40070000D03*
X116185000Y-40070000D03*
X113645000Y-40070000D03*
X111105000Y-40070000D03*
X108565000Y-40070000D03*
X106025000Y-40070000D03*
X103485000Y-40070000D03*
X100945000Y-40070000D03*
X98405000Y-40070000D03*
X95865000Y-40070000D03*
X93325000Y-40070000D03*
X90785000Y-40070000D03*
X88245000Y-40070000D03*
X85705000Y-40070000D03*
%TD*%
D22*
%TO.C,U2*%
X130400000Y-52080000D03*
D23*
X130400000Y-54620000D03*
X130400000Y-57160000D03*
X130400000Y-59700000D03*
%TD*%
D13*
%TO.C,R1*%
X135500000Y-63725000D03*
X135500000Y-61900000D03*
%TD*%
D24*
%TO.C,F1*%
X96000000Y-81275000D03*
X96000000Y-77000000D03*
%TD*%
D19*
%TO.C,H3*%
X141000000Y-91000000D03*
%TD*%
D25*
%TO.C,M1*%
X108100000Y-69400000D03*
D26*
X115600000Y-82600000D03*
X123100000Y-69400000D03*
%TD*%
D19*
%TO.C,H1*%
X141000000Y-35000000D03*
%TD*%
M02*
