%TF.GenerationSoftware,KiCad,Pcbnew,9.0.2*%
%TF.CreationDate,2025-08-02T19:20:04+02:00*%
%TF.ProjectId,Smart Exhaust Control,536d6172-7420-4457-9868-617573742043,rev?*%
%TF.SameCoordinates,Original*%
%TF.FileFunction,Copper,L1,Top*%
%TF.FilePolarity,Positive*%
%FSLAX46Y46*%
G04 Gerber Fmt 4.6, Leading zero omitted, Abs format (unit mm)*
G04 Created by KiCad (PCBNEW 9.0.2) date 2025-08-02 19:20:04*
%MOMM*%
%LPD*%
G01*
G04 APERTURE LIST*
G04 Aperture macros list*
%AMRoundRect*
0 Rectangle with rounded corners*
0 $1 Rounding radius*
0 $2 $3 $4 $5 $6 $7 $8 $9 X,Y pos of 4 corners*
0 Add a 4 corners polygon primitive as box body*
4,1,4,$2,$3,$4,$5,$6,$7,$8,$9,$2,$3,0*
0 Add four circle primitives for the rounded corners*
1,1,$1+$1,$2,$3*
1,1,$1+$1,$4,$5*
1,1,$1+$1,$6,$7*
1,1,$1+$1,$8,$9*
0 Add four rect primitives between the rounded corners*
20,1,$1+$1,$2,$3,$4,$5,0*
20,1,$1+$1,$4,$5,$6,$7,0*
20,1,$1+$1,$6,$7,$8,$9,0*
20,1,$1+$1,$8,$9,$2,$3,0*%
G04 Aperture macros list end*
%TA.AperFunction,ComponentPad*%
%ADD10R,3.500000X3.500000*%
%TD*%
%TA.AperFunction,ComponentPad*%
%ADD11RoundRect,0.750000X1.000000X-0.750000X1.000000X0.750000X-1.000000X0.750000X-1.000000X-0.750000X0*%
%TD*%
%TA.AperFunction,ComponentPad*%
%ADD12RoundRect,0.875000X0.875000X-0.875000X0.875000X0.875000X-0.875000X0.875000X-0.875000X-0.875000X0*%
%TD*%
%TA.AperFunction,SMDPad,CuDef*%
%ADD13RoundRect,0.250000X0.450000X-0.262500X0.450000X0.262500X-0.450000X0.262500X-0.450000X-0.262500X0*%
%TD*%
%TA.AperFunction,SMDPad,CuDef*%
%ADD14RoundRect,0.250000X0.250000X0.475000X-0.250000X0.475000X-0.250000X-0.475000X0.250000X-0.475000X0*%
%TD*%
%TA.AperFunction,SMDPad,CuDef*%
%ADD15RoundRect,0.375000X0.375000X-0.625000X0.375000X0.625000X-0.375000X0.625000X-0.375000X-0.625000X0*%
%TD*%
%TA.AperFunction,SMDPad,CuDef*%
%ADD16RoundRect,0.500000X1.400000X-0.500000X1.400000X0.500000X-1.400000X0.500000X-1.400000X-0.500000X0*%
%TD*%
%TA.AperFunction,ComponentPad*%
%ADD17C,2.000000*%
%TD*%
%TA.AperFunction,SMDPad,CuDef*%
%ADD18R,1.000000X2.510000*%
%TD*%
%TA.AperFunction,ComponentPad*%
%ADD19R,1.800000X1.800000*%
%TD*%
%TA.AperFunction,ComponentPad*%
%ADD20C,1.800000*%
%TD*%
%TA.AperFunction,ComponentPad*%
%ADD21R,1.500000X1.500000*%
%TD*%
%TA.AperFunction,ComponentPad*%
%ADD22C,1.500000*%
%TD*%
%TA.AperFunction,SMDPad,CuDef*%
%ADD23RoundRect,0.250000X1.450000X-0.312500X1.450000X0.312500X-1.450000X0.312500X-1.450000X-0.312500X0*%
%TD*%
%TA.AperFunction,ComponentPad*%
%ADD24RoundRect,0.250001X-1.149999X-1.899999X1.149999X-1.899999X1.149999X1.899999X-1.149999X1.899999X0*%
%TD*%
%TA.AperFunction,ComponentPad*%
%ADD25O,2.800000X4.300000*%
%TD*%
%TA.AperFunction,ViaPad*%
%ADD26C,0.600000*%
%TD*%
%TA.AperFunction,Conductor*%
%ADD27C,0.800000*%
%TD*%
%TA.AperFunction,Conductor*%
%ADD28C,0.400000*%
%TD*%
G04 APERTURE END LIST*
D10*
%TO.P,J1,1*%
%TO.N,+12V*%
X85042500Y-71600000D03*
D11*
%TO.P,J1,2*%
%TO.N,/GND*%
X85042500Y-77600000D03*
D12*
%TO.P,J1,3*%
%TO.N,N/C*%
X89742500Y-74600000D03*
%TD*%
D13*
%TO.P,R2,1*%
%TO.N,/DHT_DATA*%
X135700000Y-59600000D03*
%TO.P,R2,2*%
%TO.N,/vcc*%
X135700000Y-57775000D03*
%TD*%
D14*
%TO.P,C2,1*%
%TO.N,/5V*%
X90300000Y-66700000D03*
%TO.P,C2,2*%
%TO.N,/GND*%
X88400000Y-66700000D03*
%TD*%
D15*
%TO.P,U3,1,GND*%
%TO.N,/GND*%
X93200000Y-72250000D03*
%TO.P,U3,2,VO*%
%TO.N,/5V*%
X95500000Y-72250000D03*
D16*
X95500000Y-65950000D03*
D15*
%TO.P,U3,3,VI*%
%TO.N,+12V*%
X97800000Y-72250000D03*
%TD*%
D17*
%TO.P,SW1,1,1*%
%TO.N,/Button*%
X130850000Y-73550000D03*
X130850000Y-67050000D03*
%TO.P,SW1,2,2*%
%TO.N,/GND*%
X135350000Y-73550000D03*
X135350000Y-67050000D03*
%TD*%
D18*
%TO.P,J2,1,Pin_1*%
%TO.N,/GND*%
X135340000Y-44510000D03*
%TO.P,J2,2,Pin_2*%
%TO.N,/vcc*%
X132800000Y-41200000D03*
%TO.P,J2,3,Pin_3*%
%TO.N,/SCL*%
X130260000Y-44510000D03*
%TO.P,J2,4,Pin_4*%
%TO.N,/SDA*%
X127720000Y-41200000D03*
%TD*%
D14*
%TO.P,C1,1*%
%TO.N,/GND*%
X86000000Y-66700000D03*
%TO.P,C1,2*%
%TO.N,+12V*%
X84100000Y-66700000D03*
%TD*%
D19*
%TO.P,D1,1,K*%
%TO.N,Net-(D1-K)*%
X138800000Y-51700000D03*
D20*
%TO.P,D1,2,A*%
%TO.N,/LED*%
X136260000Y-51700000D03*
%TD*%
D21*
%TO.P,U1,1,GND*%
%TO.N,/GND*%
X85705000Y-62930000D03*
D22*
%TO.P,U1,2,3V3*%
%TO.N,/vcc*%
X88245000Y-62930000D03*
%TO.P,U1,3,3V3*%
X90785000Y-62930000D03*
%TO.P,U1,4,IO2*%
%TO.N,unconnected-(U1-IO2-Pad4)*%
X93325000Y-62930000D03*
%TO.P,U1,5,IO3*%
%TO.N,unconnected-(U1-IO3-Pad5)*%
X95865000Y-62930000D03*
%TO.P,U1,6,GND*%
%TO.N,/GND*%
X98405000Y-62930000D03*
%TO.P,U1,7,RST*%
%TO.N,unconnected-(U1-RST-Pad7)*%
X100945000Y-62930000D03*
%TO.P,U1,8,GND*%
%TO.N,/GND*%
X103485000Y-62930000D03*
%TO.P,U1,9,IO0*%
%TO.N,unconnected-(U1-IO0-Pad9)*%
X106025000Y-62930000D03*
%TO.P,U1,10,IO1*%
%TO.N,unconnected-(U1-IO1-Pad10)*%
X108565000Y-62930000D03*
%TO.P,U1,11,IO10*%
%TO.N,unconnected-(U1-IO10-Pad11)*%
X111105000Y-62930000D03*
%TO.P,U1,12,GND*%
%TO.N,/GND*%
X113645000Y-62930000D03*
%TO.P,U1,13,5V*%
%TO.N,/5V*%
X116185000Y-62930000D03*
%TO.P,U1,14,5V*%
X118725000Y-62930000D03*
%TO.P,U1,15,GND*%
%TO.N,/GND*%
X121265000Y-62930000D03*
%TO.P,U1,16,GND*%
X121265000Y-40070000D03*
%TO.P,U1,17,IO19*%
%TO.N,/DHT_DATA*%
X118725000Y-40070000D03*
%TO.P,U1,18,IO18*%
%TO.N,/Servo PWM*%
X116185000Y-40070000D03*
%TO.P,U1,19,GND*%
%TO.N,/GND*%
X113645000Y-40070000D03*
%TO.P,U1,20,IO4*%
%TO.N,/Button*%
X111105000Y-40070000D03*
%TO.P,U1,21,IO5*%
%TO.N,/SDA*%
X108565000Y-40070000D03*
%TO.P,U1,22,IO6*%
%TO.N,/SCL*%
X106025000Y-40070000D03*
%TO.P,U1,23,IO7*%
%TO.N,unconnected-(U1-IO7-Pad23)*%
X103485000Y-40070000D03*
%TO.P,U1,24,GND*%
%TO.N,/GND*%
X100945000Y-40070000D03*
%TO.P,U1,25,IO8*%
%TO.N,unconnected-(U1-IO8-Pad25)*%
X98405000Y-40070000D03*
%TO.P,U1,26,IO9*%
%TO.N,/LED*%
X95865000Y-40070000D03*
%TO.P,U1,27,GND*%
%TO.N,/GND*%
X93325000Y-40070000D03*
%TO.P,U1,28,RX*%
%TO.N,unconnected-(U1-RX-Pad28)*%
X90785000Y-40070000D03*
%TO.P,U1,29,TX*%
%TO.N,unconnected-(U1-TX-Pad29)*%
X88245000Y-40070000D03*
%TO.P,U1,30,GND*%
%TO.N,/GND*%
X85705000Y-40070000D03*
%TD*%
D21*
%TO.P,U2,1,VDD*%
%TO.N,/vcc*%
X130400000Y-52080000D03*
D22*
%TO.P,U2,2,SDA*%
%TO.N,/DHT_DATA*%
X130400000Y-54620000D03*
%TO.P,U2,3,GND*%
%TO.N,/GND*%
X130400000Y-57160000D03*
%TO.P,U2,4,GND*%
X130400000Y-59700000D03*
%TD*%
D13*
%TO.P,R1,1*%
%TO.N,/GND*%
X135500000Y-63725000D03*
%TO.P,R1,2*%
%TO.N,Net-(D1-K)*%
X135500000Y-61900000D03*
%TD*%
D23*
%TO.P,F1,1*%
%TO.N,+12V*%
X96000000Y-81275000D03*
%TO.P,F1,2*%
X96000000Y-77000000D03*
%TD*%
D24*
%TO.P,M1,1,PWM*%
%TO.N,/Servo PWM*%
X108100000Y-69400000D03*
D25*
%TO.P,M1,2,+*%
%TO.N,/5V*%
X115600000Y-82600000D03*
%TO.P,M1,3,-*%
%TO.N,/GND*%
X123100000Y-69400000D03*
%TD*%
D26*
%TO.N,/5V*%
X96600000Y-68100000D03*
X96550000Y-72600000D03*
%TO.N,/DHT_DATA*%
X118500000Y-45210000D03*
X127400000Y-53931000D03*
X118500000Y-42321000D03*
X134400000Y-59800000D03*
%TD*%
D27*
%TO.N,+12V*%
X83482896Y-79701000D02*
X82691500Y-78909604D01*
X97800000Y-72169726D02*
X97800000Y-72250000D01*
X82691500Y-78909604D02*
X82691500Y-73951000D01*
X85993500Y-70649000D02*
X96279274Y-70649000D01*
X85042500Y-71600000D02*
X85993500Y-70649000D01*
X85042500Y-71600000D02*
X84100000Y-70657500D01*
X96000000Y-81275000D02*
X96000000Y-77000000D01*
X84100000Y-70657500D02*
X84100000Y-66700000D01*
X96279274Y-70649000D02*
X97800000Y-72169726D01*
X93299000Y-79701000D02*
X83482896Y-79701000D01*
X82691500Y-73951000D02*
X85042500Y-71600000D01*
X96000000Y-77000000D02*
X93299000Y-79701000D01*
%TO.N,/GND*%
X121265000Y-62930000D02*
X123100000Y-64765000D01*
X93801000Y-73851000D02*
X93200000Y-73250000D01*
X135350000Y-67050000D02*
X135350000Y-63875000D01*
X97578274Y-69648000D02*
X99151000Y-71220726D01*
X99151000Y-73279274D02*
X98579274Y-73851000D01*
X131751000Y-48099000D02*
X135340000Y-44510000D01*
X88400000Y-66700000D02*
X88400000Y-66735424D01*
X135340000Y-40783000D02*
X135340000Y-44510000D01*
X130400000Y-57160000D02*
X131751000Y-55809000D01*
X88400000Y-66735424D02*
X91312576Y-69648000D01*
X90587176Y-77600000D02*
X93200000Y-74987176D01*
X112294000Y-61579000D02*
X113645000Y-62930000D01*
X104836000Y-61579000D02*
X112294000Y-61579000D01*
X88400000Y-66700000D02*
X86000000Y-66700000D01*
X102134000Y-61579000D02*
X103485000Y-62930000D01*
X98405000Y-62930000D02*
X99756000Y-61579000D01*
X123100000Y-64765000D02*
X123100000Y-69400000D01*
X131751000Y-55809000D02*
X131751000Y-48099000D01*
X86000000Y-66700000D02*
X86000000Y-63225000D01*
X93200000Y-74987176D02*
X93200000Y-72250000D01*
X133901000Y-39344000D02*
X135340000Y-40783000D01*
X99151000Y-71220726D02*
X99151000Y-73279274D01*
X121265000Y-40070000D02*
X121991000Y-39344000D01*
X98579274Y-73851000D02*
X93801000Y-73851000D01*
X99756000Y-61579000D02*
X102134000Y-61579000D01*
X103485000Y-62930000D02*
X104836000Y-61579000D01*
X85042500Y-77600000D02*
X90587176Y-77600000D01*
X91312576Y-69648000D02*
X97578274Y-69648000D01*
X121991000Y-39344000D02*
X133901000Y-39344000D01*
X86000000Y-63225000D02*
X85705000Y-62930000D01*
X93200000Y-73250000D02*
X93200000Y-72250000D01*
X135350000Y-63875000D02*
X135500000Y-63725000D01*
D28*
%TO.N,/5V*%
X96200000Y-72250000D02*
X96550000Y-72600000D01*
D27*
X94750000Y-66700000D02*
X95500000Y-65950000D01*
X116185000Y-62930000D02*
X113165000Y-65950000D01*
X115600000Y-68385000D02*
X115600000Y-81100000D01*
D28*
X96600000Y-67050000D02*
X95500000Y-65950000D01*
D27*
X113165000Y-65950000D02*
X95500000Y-65950000D01*
X113165000Y-65950000D02*
X115600000Y-68385000D01*
D28*
X95500000Y-72250000D02*
X96200000Y-72250000D01*
D27*
X90300000Y-66700000D02*
X94750000Y-66700000D01*
D28*
X96600000Y-68100000D02*
X96600000Y-67050000D01*
%TO.N,/LED*%
X128248000Y-60591389D02*
X129508611Y-61852000D01*
X136801000Y-52241000D02*
X136260000Y-51700000D01*
X95865000Y-40070000D02*
X116386389Y-60591389D01*
X133634920Y-61852000D02*
X134973420Y-60513500D01*
X134973420Y-60513500D02*
X136426580Y-60513500D01*
X136426580Y-60513500D02*
X136801000Y-60139080D01*
X116386389Y-60591389D02*
X128248000Y-60591389D01*
X136801000Y-60139080D02*
X136801000Y-52241000D01*
X129508611Y-61852000D02*
X133634920Y-61852000D01*
%TO.N,Net-(D1-K)*%
X135500000Y-61900000D02*
X136200000Y-61900000D01*
X138800000Y-59300000D02*
X138800000Y-51700000D01*
X136200000Y-61900000D02*
X138800000Y-59300000D01*
D27*
%TO.N,/vcc*%
X129049000Y-53431000D02*
X130400000Y-52080000D01*
X135700000Y-57775000D02*
X134235603Y-57775000D01*
X129049000Y-60259603D02*
X129049000Y-53431000D01*
X130959603Y-61051000D02*
X129840397Y-61051000D01*
X130400000Y-47327000D02*
X132800000Y-44927000D01*
X132800000Y-44927000D02*
X132800000Y-41200000D01*
X130400000Y-52080000D02*
X130400000Y-47327000D01*
X129840397Y-61051000D02*
X129049000Y-60259603D01*
X134235603Y-57775000D02*
X130959603Y-61051000D01*
D28*
%TO.N,/SCL*%
X106025000Y-40070000D02*
X110465000Y-44510000D01*
X110465000Y-44510000D02*
X130260000Y-44510000D01*
%TO.N,/SDA*%
X108565000Y-40070000D02*
X111517000Y-43022000D01*
X125898000Y-43022000D02*
X127720000Y-41200000D01*
X111517000Y-43022000D02*
X125898000Y-43022000D01*
%TO.N,/DHT_DATA*%
X118500000Y-40295000D02*
X118725000Y-40070000D01*
X118500000Y-42321000D02*
X118500000Y-40295000D01*
X134400000Y-59800000D02*
X135500000Y-59800000D01*
X118500000Y-45111000D02*
X118500000Y-45210000D01*
X135500000Y-59800000D02*
X135700000Y-59600000D01*
X118580000Y-45111000D02*
X118500000Y-45111000D01*
X127400000Y-53931000D02*
X118580000Y-45111000D01*
%TO.N,/Button*%
X95388240Y-38919000D02*
X94714000Y-39593240D01*
X94714000Y-40546760D02*
X115946240Y-61779000D01*
X111105000Y-40070000D02*
X109954000Y-38919000D01*
X94714000Y-39593240D02*
X94714000Y-40546760D01*
X125579000Y-61779000D02*
X130850000Y-67050000D01*
X109954000Y-38919000D02*
X95388240Y-38919000D01*
X115946240Y-61779000D02*
X125579000Y-61779000D01*
%TD*%
%TA.AperFunction,Conductor*%
%TO.N,/GND*%
G36*
X102212891Y-39639185D02*
G01*
X102258646Y-39691989D01*
X102268590Y-39761147D01*
X102266426Y-39772446D01*
X102265290Y-39777175D01*
X102234500Y-39971577D01*
X102234500Y-40168422D01*
X102265290Y-40362826D01*
X102326117Y-40550029D01*
X102359606Y-40615754D01*
X102415476Y-40725405D01*
X102531172Y-40884646D01*
X102670354Y-41023828D01*
X102829595Y-41139524D01*
X102912455Y-41181743D01*
X103004970Y-41228882D01*
X103004972Y-41228882D01*
X103004975Y-41228884D01*
X103058148Y-41246161D01*
X103192173Y-41289709D01*
X103386578Y-41320500D01*
X103386583Y-41320500D01*
X103583422Y-41320500D01*
X103777826Y-41289709D01*
X103965025Y-41228884D01*
X104140405Y-41139524D01*
X104299646Y-41023828D01*
X104438828Y-40884646D01*
X104554524Y-40725405D01*
X104643884Y-40550025D01*
X104644515Y-40548787D01*
X104692489Y-40497990D01*
X104760310Y-40481195D01*
X104826445Y-40503732D01*
X104865485Y-40548787D01*
X104955474Y-40725403D01*
X104974136Y-40751088D01*
X105071172Y-40884646D01*
X105210354Y-41023828D01*
X105369595Y-41139524D01*
X105452455Y-41181743D01*
X105544970Y-41228882D01*
X105544972Y-41228882D01*
X105544975Y-41228884D01*
X105598148Y-41246161D01*
X105732173Y-41289709D01*
X105926578Y-41320500D01*
X105926583Y-41320500D01*
X106123414Y-41320500D01*
X106123417Y-41320500D01*
X106200369Y-41308311D01*
X106269659Y-41317265D01*
X106307446Y-41343103D01*
X110018453Y-45054111D01*
X110018454Y-45054112D01*
X110133190Y-45130776D01*
X110231790Y-45171617D01*
X110260671Y-45183580D01*
X110260672Y-45183580D01*
X110260677Y-45183582D01*
X110287545Y-45188925D01*
X110287551Y-45188926D01*
X110287591Y-45188934D01*
X110377937Y-45206905D01*
X110396006Y-45210500D01*
X110396007Y-45210500D01*
X117582152Y-45210500D01*
X117649191Y-45230185D01*
X117694946Y-45282989D01*
X117703769Y-45310308D01*
X117730261Y-45443491D01*
X117730264Y-45443501D01*
X117790602Y-45589172D01*
X117790609Y-45589185D01*
X117878210Y-45720288D01*
X117878213Y-45720292D01*
X117989707Y-45831786D01*
X117989711Y-45831789D01*
X118120814Y-45919390D01*
X118120827Y-45919397D01*
X118266498Y-45979735D01*
X118266503Y-45979737D01*
X118405247Y-46007335D01*
X118421153Y-46010499D01*
X118421156Y-46010500D01*
X118421158Y-46010500D01*
X118437481Y-46010500D01*
X118504520Y-46030185D01*
X118525162Y-46046819D01*
X126603928Y-54125585D01*
X126630808Y-54165814D01*
X126690602Y-54310172D01*
X126690609Y-54310185D01*
X126778210Y-54441288D01*
X126778213Y-54441292D01*
X126889707Y-54552786D01*
X126889711Y-54552789D01*
X127020814Y-54640390D01*
X127020827Y-54640397D01*
X127166498Y-54700735D01*
X127166503Y-54700737D01*
X127321153Y-54731499D01*
X127321156Y-54731500D01*
X127321158Y-54731500D01*
X127478844Y-54731500D01*
X127478845Y-54731499D01*
X127633497Y-54700737D01*
X127779179Y-54640394D01*
X127910289Y-54552789D01*
X127923447Y-54539631D01*
X127936819Y-54526260D01*
X127998142Y-54492775D01*
X128067834Y-54497759D01*
X128123767Y-54539631D01*
X128148184Y-54605095D01*
X128148500Y-54613941D01*
X128148500Y-59766889D01*
X128128815Y-59833928D01*
X128076011Y-59879683D01*
X128024500Y-59890889D01*
X116727908Y-59890889D01*
X116660869Y-59871204D01*
X116640227Y-59854570D01*
X98317838Y-41532181D01*
X98284353Y-41470858D01*
X98289337Y-41401166D01*
X98331209Y-41345233D01*
X98396673Y-41320816D01*
X98405519Y-41320500D01*
X98503422Y-41320500D01*
X98697826Y-41289709D01*
X98885025Y-41228884D01*
X99060405Y-41139524D01*
X99219646Y-41023828D01*
X99358828Y-40884646D01*
X99474524Y-40725405D01*
X99563884Y-40550025D01*
X99624709Y-40362826D01*
X99633429Y-40307771D01*
X99655500Y-40168422D01*
X99655500Y-39971577D01*
X99624709Y-39777175D01*
X99623574Y-39772446D01*
X99627065Y-39702664D01*
X99667730Y-39645846D01*
X99732656Y-39620034D01*
X99744148Y-39619500D01*
X102145852Y-39619500D01*
X102212891Y-39639185D01*
G37*
%TD.AperFunction*%
%TA.AperFunction,Conductor*%
G36*
X145242539Y-30920185D02*
G01*
X145288294Y-30972989D01*
X145299500Y-31024500D01*
X145299500Y-94825500D01*
X145279815Y-94892539D01*
X145227011Y-94938294D01*
X145175500Y-94949500D01*
X73824500Y-94949500D01*
X73757461Y-94929815D01*
X73711706Y-94877011D01*
X73700500Y-94825500D01*
X73700500Y-90878711D01*
X76149500Y-90878711D01*
X76149500Y-91121288D01*
X76181161Y-91361785D01*
X76243947Y-91596104D01*
X76336773Y-91820205D01*
X76336776Y-91820212D01*
X76458064Y-92030289D01*
X76458066Y-92030292D01*
X76458067Y-92030293D01*
X76605733Y-92222736D01*
X76605739Y-92222743D01*
X76777256Y-92394260D01*
X76777262Y-92394265D01*
X76969711Y-92541936D01*
X77179788Y-92663224D01*
X77403900Y-92756054D01*
X77638211Y-92818838D01*
X77818586Y-92842584D01*
X77878711Y-92850500D01*
X77878712Y-92850500D01*
X78121289Y-92850500D01*
X78169388Y-92844167D01*
X78361789Y-92818838D01*
X78596100Y-92756054D01*
X78820212Y-92663224D01*
X79030289Y-92541936D01*
X79222738Y-92394265D01*
X79394265Y-92222738D01*
X79541936Y-92030289D01*
X79663224Y-91820212D01*
X79756054Y-91596100D01*
X79818838Y-91361789D01*
X79850500Y-91121288D01*
X79850500Y-90878712D01*
X79850500Y-90878711D01*
X139149500Y-90878711D01*
X139149500Y-91121288D01*
X139181161Y-91361785D01*
X139243947Y-91596104D01*
X139336773Y-91820205D01*
X139336776Y-91820212D01*
X139458064Y-92030289D01*
X139458066Y-92030292D01*
X139458067Y-92030293D01*
X139605733Y-92222736D01*
X139605739Y-92222743D01*
X139777256Y-92394260D01*
X139777262Y-92394265D01*
X139969711Y-92541936D01*
X140179788Y-92663224D01*
X140403900Y-92756054D01*
X140638211Y-92818838D01*
X140818586Y-92842584D01*
X140878711Y-92850500D01*
X140878712Y-92850500D01*
X141121289Y-92850500D01*
X141169388Y-92844167D01*
X141361789Y-92818838D01*
X141596100Y-92756054D01*
X141820212Y-92663224D01*
X142030289Y-92541936D01*
X142222738Y-92394265D01*
X142394265Y-92222738D01*
X142541936Y-92030289D01*
X142663224Y-91820212D01*
X142756054Y-91596100D01*
X142818838Y-91361789D01*
X142850500Y-91121288D01*
X142850500Y-90878712D01*
X142818838Y-90638211D01*
X142756054Y-90403900D01*
X142663224Y-90179788D01*
X142541936Y-89969711D01*
X142394265Y-89777262D01*
X142394260Y-89777256D01*
X142222743Y-89605739D01*
X142222736Y-89605733D01*
X142030293Y-89458067D01*
X142030292Y-89458066D01*
X142030289Y-89458064D01*
X141820212Y-89336776D01*
X141820205Y-89336773D01*
X141596104Y-89243947D01*
X141361785Y-89181161D01*
X141121289Y-89149500D01*
X141121288Y-89149500D01*
X140878712Y-89149500D01*
X140878711Y-89149500D01*
X140638214Y-89181161D01*
X140403895Y-89243947D01*
X140179794Y-89336773D01*
X140179785Y-89336777D01*
X139969706Y-89458067D01*
X139777263Y-89605733D01*
X139777256Y-89605739D01*
X139605739Y-89777256D01*
X139605733Y-89777263D01*
X139458067Y-89969706D01*
X139336777Y-90179785D01*
X139336773Y-90179794D01*
X139243947Y-90403895D01*
X139181161Y-90638214D01*
X139149500Y-90878711D01*
X79850500Y-90878711D01*
X79818838Y-90638211D01*
X79756054Y-90403900D01*
X79663224Y-90179788D01*
X79541936Y-89969711D01*
X79394265Y-89777262D01*
X79394260Y-89777256D01*
X79222743Y-89605739D01*
X79222736Y-89605733D01*
X79030293Y-89458067D01*
X79030292Y-89458066D01*
X79030289Y-89458064D01*
X78820212Y-89336776D01*
X78820205Y-89336773D01*
X78596104Y-89243947D01*
X78361785Y-89181161D01*
X78121289Y-89149500D01*
X78121288Y-89149500D01*
X77878712Y-89149500D01*
X77878711Y-89149500D01*
X77638214Y-89181161D01*
X77403895Y-89243947D01*
X77179794Y-89336773D01*
X77179785Y-89336777D01*
X76969706Y-89458067D01*
X76777263Y-89605733D01*
X76777256Y-89605739D01*
X76605739Y-89777256D01*
X76605733Y-89777263D01*
X76458067Y-89969706D01*
X76336777Y-90179785D01*
X76336773Y-90179794D01*
X76243947Y-90403895D01*
X76181161Y-90638214D01*
X76149500Y-90878711D01*
X73700500Y-90878711D01*
X73700500Y-73862304D01*
X81791000Y-73862304D01*
X81791000Y-78998300D01*
X81825603Y-79172262D01*
X81825605Y-79172270D01*
X81857026Y-79248128D01*
X81857029Y-79248133D01*
X81859546Y-79254210D01*
X81893487Y-79336151D01*
X81952563Y-79424563D01*
X81955669Y-79429211D01*
X81955672Y-79429217D01*
X81992034Y-79483638D01*
X82908863Y-80400467D01*
X82924703Y-80411050D01*
X82935194Y-80418059D01*
X82935197Y-80418063D01*
X82935198Y-80418062D01*
X83056349Y-80499013D01*
X83138289Y-80532953D01*
X83138290Y-80532953D01*
X83138291Y-80532954D01*
X83147021Y-80536570D01*
X83220230Y-80566895D01*
X83377855Y-80598248D01*
X83394199Y-80601499D01*
X83394203Y-80601500D01*
X83394204Y-80601500D01*
X93387693Y-80601500D01*
X93387694Y-80601499D01*
X93561666Y-80566895D01*
X93643606Y-80532953D01*
X93692355Y-80512761D01*
X93715886Y-80510231D01*
X93761822Y-80505293D01*
X93761824Y-80505294D01*
X93761825Y-80505294D01*
X93770053Y-80509413D01*
X93824301Y-80536568D01*
X93824301Y-80536569D01*
X93824303Y-80536570D01*
X93838105Y-80559833D01*
X93859953Y-80596657D01*
X93859952Y-80596658D01*
X93859954Y-80596660D01*
X93859897Y-80598248D01*
X93857511Y-80666327D01*
X93810001Y-80809703D01*
X93810000Y-80809704D01*
X93799500Y-80912483D01*
X93799500Y-81637501D01*
X93799501Y-81637519D01*
X93810000Y-81740296D01*
X93810001Y-81740299D01*
X93865185Y-81906831D01*
X93865186Y-81906834D01*
X93957288Y-82056156D01*
X94081344Y-82180212D01*
X94230666Y-82272314D01*
X94397203Y-82327499D01*
X94499991Y-82338000D01*
X97500008Y-82337999D01*
X97602797Y-82327499D01*
X97769334Y-82272314D01*
X97918656Y-82180212D01*
X98042712Y-82056156D01*
X98134814Y-81906834D01*
X98189999Y-81740297D01*
X98200500Y-81637509D01*
X98200499Y-80912492D01*
X98189999Y-80809703D01*
X98134814Y-80643166D01*
X98042712Y-80493844D01*
X97918656Y-80369788D01*
X97769334Y-80277686D01*
X97602797Y-80222501D01*
X97602795Y-80222500D01*
X97500016Y-80212000D01*
X97500009Y-80212000D01*
X97024500Y-80212000D01*
X96957461Y-80192315D01*
X96911706Y-80139511D01*
X96900500Y-80088000D01*
X96900500Y-78186999D01*
X96920185Y-78119960D01*
X96972989Y-78074205D01*
X97024500Y-78062999D01*
X97500002Y-78062999D01*
X97500008Y-78062999D01*
X97602797Y-78052499D01*
X97769334Y-77997314D01*
X97918656Y-77905212D01*
X98042712Y-77781156D01*
X98134814Y-77631834D01*
X98189999Y-77465297D01*
X98200500Y-77362509D01*
X98200499Y-76637492D01*
X98189999Y-76534703D01*
X98134814Y-76368166D01*
X98042712Y-76218844D01*
X97918656Y-76094788D01*
X97769334Y-76002686D01*
X97602797Y-75947501D01*
X97602795Y-75947500D01*
X97500010Y-75937000D01*
X94499998Y-75937000D01*
X94499981Y-75937001D01*
X94397203Y-75947500D01*
X94397200Y-75947501D01*
X94230668Y-76002685D01*
X94230663Y-76002687D01*
X94081342Y-76094789D01*
X93957289Y-76218842D01*
X93865187Y-76368163D01*
X93865186Y-76368166D01*
X93810001Y-76534703D01*
X93810001Y-76534704D01*
X93810000Y-76534704D01*
X93799500Y-76637483D01*
X93799500Y-77362501D01*
X93799501Y-77362519D01*
X93810000Y-77465296D01*
X93810001Y-77465299D01*
X93865185Y-77631831D01*
X93865190Y-77631842D01*
X93901259Y-77690318D01*
X93919700Y-77757710D01*
X93898778Y-77824374D01*
X93883402Y-77843096D01*
X92962319Y-78764181D01*
X92900996Y-78797666D01*
X92874638Y-78800500D01*
X83907258Y-78800500D01*
X83840219Y-78780815D01*
X83819577Y-78764181D01*
X83628319Y-78572923D01*
X83594834Y-78511600D01*
X83592000Y-78485242D01*
X83592000Y-74375361D01*
X83611685Y-74308322D01*
X83628315Y-74287684D01*
X84029181Y-73886817D01*
X84090504Y-73853333D01*
X84116862Y-73850499D01*
X86840371Y-73850499D01*
X86840372Y-73850499D01*
X86899983Y-73844091D01*
X87034831Y-73793796D01*
X87150046Y-73707546D01*
X87236296Y-73592331D01*
X87253926Y-73545060D01*
X87295796Y-73489128D01*
X87361259Y-73464710D01*
X87429533Y-73479561D01*
X87478939Y-73528965D01*
X87493933Y-73594971D01*
X87492001Y-73631342D01*
X87492000Y-73631386D01*
X87492000Y-75568613D01*
X87492001Y-75568652D01*
X87494795Y-75621243D01*
X87494795Y-75621244D01*
X87539254Y-75851121D01*
X87539255Y-75851126D01*
X87571663Y-75937001D01*
X87621925Y-76070189D01*
X87740429Y-76272131D01*
X87740434Y-76272138D01*
X87891356Y-76451141D01*
X87891358Y-76451143D01*
X88070361Y-76602065D01*
X88070368Y-76602070D01*
X88272310Y-76720574D01*
X88491374Y-76803245D01*
X88721259Y-76847705D01*
X88773878Y-76850500D01*
X88773886Y-76850500D01*
X90711114Y-76850500D01*
X90711122Y-76850500D01*
X90763741Y-76847705D01*
X90993626Y-76803245D01*
X91212690Y-76720574D01*
X91414632Y-76602070D01*
X91494532Y-76534704D01*
X91593641Y-76451143D01*
X91593643Y-76451141D01*
X91744565Y-76272138D01*
X91744565Y-76272137D01*
X91744570Y-76272132D01*
X91863074Y-76070190D01*
X91945745Y-75851126D01*
X91990205Y-75621241D01*
X91993000Y-75568622D01*
X91993000Y-73631378D01*
X91990205Y-73578759D01*
X91945745Y-73348874D01*
X91863074Y-73129810D01*
X91744570Y-72927868D01*
X91744565Y-72927861D01*
X91593643Y-72748858D01*
X91593641Y-72748856D01*
X91414638Y-72597934D01*
X91414631Y-72597929D01*
X91212689Y-72479425D01*
X91122332Y-72445326D01*
X90993626Y-72396755D01*
X90993621Y-72396754D01*
X90763743Y-72352295D01*
X90711152Y-72349501D01*
X90711129Y-72349500D01*
X90711122Y-72349500D01*
X88773878Y-72349500D01*
X88773870Y-72349500D01*
X88773847Y-72349501D01*
X88721256Y-72352295D01*
X88721255Y-72352295D01*
X88491378Y-72396754D01*
X88491376Y-72396754D01*
X88491374Y-72396755D01*
X88417433Y-72424659D01*
X88272310Y-72479425D01*
X88070368Y-72597929D01*
X88070361Y-72597934D01*
X87891358Y-72748856D01*
X87891356Y-72748858D01*
X87740434Y-72927861D01*
X87740429Y-72927868D01*
X87621925Y-73129810D01*
X87539253Y-73348880D01*
X87538740Y-73351532D01*
X87538212Y-73352552D01*
X87537817Y-73353950D01*
X87537532Y-73353869D01*
X87506675Y-73413609D01*
X87446139Y-73448497D01*
X87376351Y-73445117D01*
X87319468Y-73404544D01*
X87293551Y-73339659D01*
X87292999Y-73327989D01*
X87292999Y-71673499D01*
X87312684Y-71606461D01*
X87365488Y-71560706D01*
X87416999Y-71549500D01*
X94125500Y-71549500D01*
X94192539Y-71569185D01*
X94238294Y-71621989D01*
X94249500Y-71673500D01*
X94249500Y-72951122D01*
X94249501Y-72951125D01*
X94252399Y-72993886D01*
X94252399Y-72993887D01*
X94298360Y-73178696D01*
X94382967Y-73349292D01*
X94382969Y-73349295D01*
X94502277Y-73497721D01*
X94502278Y-73497722D01*
X94650704Y-73617030D01*
X94650707Y-73617032D01*
X94821302Y-73701639D01*
X94821303Y-73701639D01*
X94821307Y-73701641D01*
X95006111Y-73747600D01*
X95048877Y-73750500D01*
X95951122Y-73750499D01*
X95993889Y-73747600D01*
X96178693Y-73701641D01*
X96349296Y-73617030D01*
X96497722Y-73497722D01*
X96538675Y-73446773D01*
X96561690Y-73430751D01*
X96582708Y-73412176D01*
X96592065Y-73409605D01*
X96596016Y-73406855D01*
X96616473Y-73401902D01*
X96625589Y-73400500D01*
X96628842Y-73400500D01*
X96639923Y-73398295D01*
X96642600Y-73397884D01*
X96674633Y-73402170D01*
X96706840Y-73405050D01*
X96709214Y-73406797D01*
X96711853Y-73407150D01*
X96725800Y-73418998D01*
X96758095Y-73442756D01*
X96802277Y-73497721D01*
X96802278Y-73497722D01*
X96950704Y-73617030D01*
X96950707Y-73617032D01*
X97121302Y-73701639D01*
X97121303Y-73701639D01*
X97121307Y-73701641D01*
X97306111Y-73747600D01*
X97348877Y-73750500D01*
X98251122Y-73750499D01*
X98293889Y-73747600D01*
X98478693Y-73701641D01*
X98649296Y-73617030D01*
X98797722Y-73497722D01*
X98917030Y-73349296D01*
X98921810Y-73339659D01*
X99001639Y-73178697D01*
X99001638Y-73178697D01*
X99001641Y-73178693D01*
X99047600Y-72993889D01*
X99050500Y-72951123D01*
X99050499Y-71548878D01*
X99047600Y-71506111D01*
X99001641Y-71321307D01*
X98999046Y-71316075D01*
X98917032Y-71150707D01*
X98917030Y-71150704D01*
X98797722Y-71002278D01*
X98797721Y-71002277D01*
X98649295Y-70882969D01*
X98649292Y-70882967D01*
X98478697Y-70798360D01*
X98293892Y-70752400D01*
X98268229Y-70750660D01*
X98251123Y-70749500D01*
X98251121Y-70749500D01*
X97704636Y-70749500D01*
X97637597Y-70729815D01*
X97616955Y-70713181D01*
X96853309Y-69949535D01*
X96853304Y-69949531D01*
X96798896Y-69913178D01*
X96798890Y-69913175D01*
X96794233Y-69910063D01*
X96705821Y-69850987D01*
X96623880Y-69817046D01*
X96541940Y-69783105D01*
X96541932Y-69783103D01*
X96367970Y-69748500D01*
X96367966Y-69748500D01*
X96367965Y-69748500D01*
X87374918Y-69748500D01*
X87307879Y-69728815D01*
X87262124Y-69676011D01*
X87258736Y-69667833D01*
X87236297Y-69607671D01*
X87236293Y-69607664D01*
X87150047Y-69492455D01*
X87150044Y-69492452D01*
X87034835Y-69406206D01*
X87034828Y-69406202D01*
X86899982Y-69355908D01*
X86899983Y-69355908D01*
X86840383Y-69349501D01*
X86840381Y-69349500D01*
X86840373Y-69349500D01*
X86840365Y-69349500D01*
X85124500Y-69349500D01*
X85057461Y-69329815D01*
X85011706Y-69277011D01*
X85000500Y-69225500D01*
X85000500Y-67585132D01*
X85018960Y-67520036D01*
X85034814Y-67494334D01*
X85089999Y-67327797D01*
X85100500Y-67225009D01*
X85100499Y-66174992D01*
X85100498Y-66174983D01*
X89299500Y-66174983D01*
X89299500Y-67225001D01*
X89299501Y-67225019D01*
X89310000Y-67327796D01*
X89310001Y-67327799D01*
X89357183Y-67470184D01*
X89365186Y-67494334D01*
X89457288Y-67643656D01*
X89581344Y-67767712D01*
X89730666Y-67859814D01*
X89897203Y-67914999D01*
X89999991Y-67925500D01*
X90600008Y-67925499D01*
X90600016Y-67925498D01*
X90600019Y-67925498D01*
X90656302Y-67919748D01*
X90702797Y-67914999D01*
X90869334Y-67859814D01*
X91018656Y-67767712D01*
X91142712Y-67643656D01*
X91142712Y-67643655D01*
X91147819Y-67638549D01*
X91149705Y-67640435D01*
X91196625Y-67607212D01*
X91236868Y-67600500D01*
X94838693Y-67600500D01*
X94838694Y-67600499D01*
X95012666Y-67565895D01*
X95094606Y-67531953D01*
X95176547Y-67498013D01*
X95222735Y-67467150D01*
X95229563Y-67463717D01*
X95256717Y-67458766D01*
X95283055Y-67450519D01*
X95285270Y-67450499D01*
X95775500Y-67450499D01*
X95842539Y-67470184D01*
X95888294Y-67522988D01*
X95899500Y-67574499D01*
X95899500Y-67674684D01*
X95890061Y-67722136D01*
X95830264Y-67866498D01*
X95830261Y-67866510D01*
X95799500Y-68021153D01*
X95799500Y-68178846D01*
X95830261Y-68333489D01*
X95830264Y-68333501D01*
X95890602Y-68479172D01*
X95890609Y-68479185D01*
X95978210Y-68610288D01*
X95978213Y-68610292D01*
X96089707Y-68721786D01*
X96089711Y-68721789D01*
X96220814Y-68809390D01*
X96220827Y-68809397D01*
X96366498Y-68869735D01*
X96366503Y-68869737D01*
X96521153Y-68900499D01*
X96521156Y-68900500D01*
X96521158Y-68900500D01*
X96678844Y-68900500D01*
X96678845Y-68900499D01*
X96833497Y-68869737D01*
X96979179Y-68809394D01*
X97110289Y-68721789D01*
X97221789Y-68610289D01*
X97309394Y-68479179D01*
X97369737Y-68333497D01*
X97400500Y-68178842D01*
X97400500Y-68021158D01*
X97400500Y-68021155D01*
X97400499Y-68021153D01*
X97381472Y-67925498D01*
X97369737Y-67866503D01*
X97309939Y-67722136D01*
X97308312Y-67713959D01*
X97305523Y-67709619D01*
X97300500Y-67674684D01*
X97300500Y-67444695D01*
X97320185Y-67377656D01*
X97367089Y-67334786D01*
X97453407Y-67289698D01*
X97611109Y-67161109D01*
X97739698Y-67003407D01*
X97777046Y-66931908D01*
X97784788Y-66917088D01*
X97833275Y-66866781D01*
X97894696Y-66850500D01*
X106246661Y-66850500D01*
X106313700Y-66870185D01*
X106359455Y-66922989D01*
X106369399Y-66992147D01*
X106352199Y-67039595D01*
X106277249Y-67161109D01*
X106265186Y-67180666D01*
X106210001Y-67347203D01*
X106210000Y-67347204D01*
X106199500Y-67449984D01*
X106199500Y-71350015D01*
X106210000Y-71452795D01*
X106210001Y-71452796D01*
X106265186Y-71619335D01*
X106265187Y-71619337D01*
X106357286Y-71768651D01*
X106357289Y-71768655D01*
X106481344Y-71892710D01*
X106481348Y-71892713D01*
X106630662Y-71984812D01*
X106630664Y-71984813D01*
X106630666Y-71984814D01*
X106797203Y-72039999D01*
X106899992Y-72050500D01*
X106899997Y-72050500D01*
X109300003Y-72050500D01*
X109300008Y-72050500D01*
X109402797Y-72039999D01*
X109569334Y-71984814D01*
X109718655Y-71892711D01*
X109842711Y-71768655D01*
X109934814Y-71619334D01*
X109989999Y-71452797D01*
X110000500Y-71350008D01*
X110000500Y-67449992D01*
X109989999Y-67347203D01*
X109934814Y-67180666D01*
X109847800Y-67039596D01*
X109829360Y-66972205D01*
X109850282Y-66905542D01*
X109903924Y-66860772D01*
X109953339Y-66850500D01*
X112740638Y-66850500D01*
X112807677Y-66870185D01*
X112828319Y-66886819D01*
X114663181Y-68721681D01*
X114696666Y-68783004D01*
X114699500Y-68809362D01*
X114699500Y-80103803D01*
X114679815Y-80170842D01*
X114637501Y-80211190D01*
X114617912Y-80222500D01*
X114541873Y-80266401D01*
X114541870Y-80266402D01*
X114541865Y-80266406D01*
X114344228Y-80418058D01*
X114344218Y-80418066D01*
X114168066Y-80594218D01*
X114168060Y-80594225D01*
X114016400Y-80791873D01*
X113891837Y-81007623D01*
X113891830Y-81007638D01*
X113796498Y-81237792D01*
X113732017Y-81478438D01*
X113699501Y-81725424D01*
X113699500Y-81725441D01*
X113699500Y-83474558D01*
X113699501Y-83474575D01*
X113732017Y-83721561D01*
X113796498Y-83962207D01*
X113891830Y-84192361D01*
X113891837Y-84192376D01*
X114016400Y-84408126D01*
X114168060Y-84605774D01*
X114168066Y-84605781D01*
X114344218Y-84781933D01*
X114344225Y-84781939D01*
X114541873Y-84933599D01*
X114757623Y-85058162D01*
X114757638Y-85058169D01*
X114856825Y-85099253D01*
X114987793Y-85153502D01*
X115228435Y-85217982D01*
X115475435Y-85250500D01*
X115475442Y-85250500D01*
X115724558Y-85250500D01*
X115724565Y-85250500D01*
X115971565Y-85217982D01*
X116212207Y-85153502D01*
X116442373Y-85058164D01*
X116658127Y-84933599D01*
X116855776Y-84781938D01*
X117031938Y-84605776D01*
X117183599Y-84408127D01*
X117308164Y-84192373D01*
X117403502Y-83962207D01*
X117467982Y-83721565D01*
X117500500Y-83474565D01*
X117500500Y-81725435D01*
X117467982Y-81478435D01*
X117403502Y-81237793D01*
X117308164Y-81007627D01*
X117253237Y-80912491D01*
X117183599Y-80791873D01*
X117031939Y-80594225D01*
X117031933Y-80594218D01*
X116855781Y-80418066D01*
X116855772Y-80418058D01*
X116658134Y-80266406D01*
X116658132Y-80266404D01*
X116658127Y-80266401D01*
X116574908Y-80218354D01*
X116562499Y-80211190D01*
X116514284Y-80160622D01*
X116500500Y-80103803D01*
X116500500Y-73431902D01*
X129349500Y-73431902D01*
X129349500Y-73668097D01*
X129386446Y-73901368D01*
X129459433Y-74125996D01*
X129541816Y-74287680D01*
X129566657Y-74336433D01*
X129705483Y-74527510D01*
X129872490Y-74694517D01*
X130063567Y-74833343D01*
X130162991Y-74884002D01*
X130274003Y-74940566D01*
X130274005Y-74940566D01*
X130274008Y-74940568D01*
X130394412Y-74979689D01*
X130498631Y-75013553D01*
X130731903Y-75050500D01*
X130731908Y-75050500D01*
X130968097Y-75050500D01*
X131201368Y-75013553D01*
X131425992Y-74940568D01*
X131636433Y-74833343D01*
X131827510Y-74694517D01*
X131994517Y-74527510D01*
X132133343Y-74336433D01*
X132240568Y-74125992D01*
X132313553Y-73901368D01*
X132350500Y-73668097D01*
X132350500Y-73431902D01*
X132313553Y-73198631D01*
X132279689Y-73094412D01*
X132240568Y-72974008D01*
X132240566Y-72974005D01*
X132240566Y-72974003D01*
X132133342Y-72763566D01*
X132122656Y-72748858D01*
X131994517Y-72572490D01*
X131827510Y-72405483D01*
X131636433Y-72266657D01*
X131425996Y-72159433D01*
X131201368Y-72086446D01*
X130968097Y-72049500D01*
X130968092Y-72049500D01*
X130731908Y-72049500D01*
X130731903Y-72049500D01*
X130498631Y-72086446D01*
X130274003Y-72159433D01*
X130063566Y-72266657D01*
X129954550Y-72345862D01*
X129872490Y-72405483D01*
X129872488Y-72405485D01*
X129872487Y-72405485D01*
X129705485Y-72572487D01*
X129705485Y-72572488D01*
X129705483Y-72572490D01*
X129687000Y-72597930D01*
X129566657Y-72763566D01*
X129459433Y-72974003D01*
X129386446Y-73198631D01*
X129349500Y-73431902D01*
X116500500Y-73431902D01*
X116500500Y-68296309D01*
X116499194Y-68289745D01*
X116499194Y-68289741D01*
X116465896Y-68122341D01*
X116465895Y-68122334D01*
X116423986Y-68021158D01*
X116398013Y-67958453D01*
X116332104Y-67859814D01*
X116299464Y-67810964D01*
X116299459Y-67810958D01*
X114526181Y-66037680D01*
X114492696Y-65976357D01*
X114497680Y-65906665D01*
X114526179Y-65862320D01*
X116171681Y-64216819D01*
X116233004Y-64183334D01*
X116259362Y-64180500D01*
X116283422Y-64180500D01*
X116477826Y-64149709D01*
X116665025Y-64088884D01*
X116840405Y-63999524D01*
X116999646Y-63883828D01*
X117138828Y-63744646D01*
X117254524Y-63585405D01*
X117343884Y-63410025D01*
X117344515Y-63408787D01*
X117392489Y-63357990D01*
X117460310Y-63341195D01*
X117526445Y-63363732D01*
X117565485Y-63408787D01*
X117655474Y-63585403D01*
X117690234Y-63633246D01*
X117771172Y-63744646D01*
X117910354Y-63883828D01*
X118069595Y-63999524D01*
X118152455Y-64041743D01*
X118244970Y-64088882D01*
X118244972Y-64088882D01*
X118244975Y-64088884D01*
X118345317Y-64121487D01*
X118432173Y-64149709D01*
X118626578Y-64180500D01*
X118626583Y-64180500D01*
X118823422Y-64180500D01*
X119017826Y-64149709D01*
X119205025Y-64088884D01*
X119380405Y-63999524D01*
X119539646Y-63883828D01*
X119678828Y-63744646D01*
X119794524Y-63585405D01*
X119883884Y-63410025D01*
X119944709Y-63222826D01*
X119975500Y-63028422D01*
X119975500Y-62831577D01*
X119944709Y-62637175D01*
X119943574Y-62632446D01*
X119947065Y-62562664D01*
X119987730Y-62505846D01*
X120052656Y-62480034D01*
X120064148Y-62479500D01*
X125237481Y-62479500D01*
X125304520Y-62499185D01*
X125325162Y-62515819D01*
X129362518Y-66553175D01*
X129396003Y-66614498D01*
X129392769Y-66679170D01*
X129386447Y-66698627D01*
X129386447Y-66698628D01*
X129349500Y-66931902D01*
X129349500Y-67168097D01*
X129386446Y-67401368D01*
X129459433Y-67625996D01*
X129531641Y-67767710D01*
X129566657Y-67836433D01*
X129705483Y-68027510D01*
X129872490Y-68194517D01*
X130063567Y-68333343D01*
X130162991Y-68384002D01*
X130274003Y-68440566D01*
X130274005Y-68440566D01*
X130274008Y-68440568D01*
X130392819Y-68479172D01*
X130498631Y-68513553D01*
X130731903Y-68550500D01*
X130731908Y-68550500D01*
X130968097Y-68550500D01*
X131201368Y-68513553D01*
X131425992Y-68440568D01*
X131636433Y-68333343D01*
X131827510Y-68194517D01*
X131994517Y-68027510D01*
X132133343Y-67836433D01*
X132240568Y-67625992D01*
X132313553Y-67401368D01*
X132317309Y-67377656D01*
X132350500Y-67168097D01*
X132350500Y-66931902D01*
X132313553Y-66698631D01*
X132240566Y-66474003D01*
X132133342Y-66263566D01*
X132068994Y-66174999D01*
X131994517Y-66072490D01*
X131827510Y-65905483D01*
X131636433Y-65766657D01*
X131589099Y-65742539D01*
X131425996Y-65659433D01*
X131201368Y-65586446D01*
X130968097Y-65549500D01*
X130968092Y-65549500D01*
X130731908Y-65549500D01*
X130731903Y-65549500D01*
X130498628Y-65586447D01*
X130498627Y-65586447D01*
X130479170Y-65592769D01*
X130409329Y-65594762D01*
X130353175Y-65562518D01*
X126294227Y-61503570D01*
X126260742Y-61442247D01*
X126265726Y-61372555D01*
X126307598Y-61316622D01*
X126373062Y-61292205D01*
X126381908Y-61291889D01*
X127906481Y-61291889D01*
X127973520Y-61311574D01*
X127994162Y-61328208D01*
X129062064Y-62396111D01*
X129062065Y-62396112D01*
X129176801Y-62472776D01*
X129256640Y-62505846D01*
X129304282Y-62525580D01*
X129304283Y-62525580D01*
X129304288Y-62525582D01*
X129331156Y-62530925D01*
X129331162Y-62530926D01*
X129331202Y-62530934D01*
X129421548Y-62548905D01*
X129439617Y-62552500D01*
X129439618Y-62552500D01*
X133703916Y-62552500D01*
X133812377Y-62530925D01*
X133839248Y-62525580D01*
X133944861Y-62481834D01*
X133966727Y-62472777D01*
X133966728Y-62472776D01*
X133966731Y-62472775D01*
X134081463Y-62396114D01*
X134131081Y-62346496D01*
X134192404Y-62313010D01*
X134262095Y-62317994D01*
X134318029Y-62359865D01*
X134336468Y-62395169D01*
X134362184Y-62472776D01*
X134365186Y-62481833D01*
X134365187Y-62481836D01*
X134386148Y-62515819D01*
X134457288Y-62631156D01*
X134581344Y-62755212D01*
X134730666Y-62847314D01*
X134897203Y-62902499D01*
X134999991Y-62913000D01*
X136000008Y-62912999D01*
X136000016Y-62912998D01*
X136000019Y-62912998D01*
X136058735Y-62907000D01*
X136102797Y-62902499D01*
X136269334Y-62847314D01*
X136418656Y-62755212D01*
X136542712Y-62631156D01*
X136634814Y-62481834D01*
X136638449Y-62470863D01*
X136668473Y-62422182D01*
X139344114Y-59746543D01*
X139420775Y-59631811D01*
X139473580Y-59504329D01*
X139473580Y-59504325D01*
X139473582Y-59504322D01*
X139478934Y-59477411D01*
X139478934Y-59477409D01*
X139500500Y-59368993D01*
X139500500Y-53224499D01*
X139520185Y-53157460D01*
X139572989Y-53111705D01*
X139624500Y-53100499D01*
X139747871Y-53100499D01*
X139747872Y-53100499D01*
X139807483Y-53094091D01*
X139942331Y-53043796D01*
X140057546Y-52957546D01*
X140143796Y-52842331D01*
X140194091Y-52707483D01*
X140200500Y-52647873D01*
X140200499Y-50752128D01*
X140194091Y-50692517D01*
X140173601Y-50637581D01*
X140143797Y-50557671D01*
X140143793Y-50557664D01*
X140057547Y-50442455D01*
X140057544Y-50442452D01*
X139942335Y-50356206D01*
X139942328Y-50356202D01*
X139807482Y-50305908D01*
X139807483Y-50305908D01*
X139747883Y-50299501D01*
X139747881Y-50299500D01*
X139747873Y-50299500D01*
X139747864Y-50299500D01*
X137852129Y-50299500D01*
X137852123Y-50299501D01*
X137792516Y-50305908D01*
X137657671Y-50356202D01*
X137657664Y-50356206D01*
X137542455Y-50442452D01*
X137542452Y-50442455D01*
X137456206Y-50557664D01*
X137456203Y-50557669D01*
X137426398Y-50637581D01*
X137384526Y-50693514D01*
X137319062Y-50717931D01*
X137250789Y-50703079D01*
X137222535Y-50681928D01*
X137172363Y-50631756D01*
X137172358Y-50631752D01*
X136994025Y-50502187D01*
X136994024Y-50502186D01*
X136994022Y-50502185D01*
X136876791Y-50442452D01*
X136797606Y-50402104D01*
X136797603Y-50402103D01*
X136587952Y-50333985D01*
X136479086Y-50316742D01*
X136370222Y-50299500D01*
X136149778Y-50299500D01*
X136077201Y-50310995D01*
X135932047Y-50333985D01*
X135722396Y-50402103D01*
X135722393Y-50402104D01*
X135525974Y-50502187D01*
X135347641Y-50631752D01*
X135347636Y-50631756D01*
X135191756Y-50787636D01*
X135191752Y-50787641D01*
X135062187Y-50965974D01*
X134962104Y-51162393D01*
X134962103Y-51162396D01*
X134893985Y-51372047D01*
X134859500Y-51589778D01*
X134859500Y-51810221D01*
X134893985Y-52027952D01*
X134962103Y-52237603D01*
X134962104Y-52237606D01*
X135062187Y-52434025D01*
X135191752Y-52612358D01*
X135191756Y-52612363D01*
X135347636Y-52768243D01*
X135347641Y-52768247D01*
X135449606Y-52842328D01*
X135525978Y-52897815D01*
X135654375Y-52963237D01*
X135722393Y-52997895D01*
X135722396Y-52997896D01*
X135886908Y-53051348D01*
X135932049Y-53066015D01*
X135995900Y-53076128D01*
X136059032Y-53106055D01*
X136095963Y-53165366D01*
X136100500Y-53198600D01*
X136100500Y-56638000D01*
X136080815Y-56705039D01*
X136028011Y-56750794D01*
X135976500Y-56762000D01*
X135199998Y-56762000D01*
X135199980Y-56762001D01*
X135097203Y-56772500D01*
X135097200Y-56772501D01*
X134930668Y-56827685D01*
X134930659Y-56827690D01*
X134884697Y-56856039D01*
X134819601Y-56874500D01*
X134146907Y-56874500D01*
X133972942Y-56909103D01*
X133972926Y-56909108D01*
X133857056Y-56957102D01*
X133857057Y-56957103D01*
X133809057Y-56976986D01*
X133708998Y-57043844D01*
X133661568Y-57075535D01*
X133661564Y-57075538D01*
X130622922Y-60114181D01*
X130561599Y-60147666D01*
X130535241Y-60150500D01*
X130264758Y-60150500D01*
X130197719Y-60130815D01*
X130177077Y-60114181D01*
X129985819Y-59922922D01*
X129952334Y-59861599D01*
X129949500Y-59835241D01*
X129949500Y-55959147D01*
X129969185Y-55892108D01*
X130021989Y-55846353D01*
X130091147Y-55836409D01*
X130102458Y-55838576D01*
X130107168Y-55839707D01*
X130107174Y-55839709D01*
X130107179Y-55839709D01*
X130107180Y-55839710D01*
X130301578Y-55870500D01*
X130301583Y-55870500D01*
X130498422Y-55870500D01*
X130692826Y-55839709D01*
X130702982Y-55836409D01*
X130880025Y-55778884D01*
X131055405Y-55689524D01*
X131214646Y-55573828D01*
X131353828Y-55434646D01*
X131469524Y-55275405D01*
X131558884Y-55100025D01*
X131619709Y-54912826D01*
X131650500Y-54718422D01*
X131650500Y-54521577D01*
X131619709Y-54327173D01*
X131583511Y-54215768D01*
X131558884Y-54139975D01*
X131558882Y-54139972D01*
X131558882Y-54139970D01*
X131469523Y-53964594D01*
X131353828Y-53805354D01*
X131214646Y-53666172D01*
X131061380Y-53554817D01*
X131018715Y-53499486D01*
X131012736Y-53429873D01*
X131045342Y-53368078D01*
X131106181Y-53333721D01*
X131134266Y-53330499D01*
X131197871Y-53330499D01*
X131197872Y-53330499D01*
X131257483Y-53324091D01*
X131392331Y-53273796D01*
X131507546Y-53187546D01*
X131593796Y-53072331D01*
X131644091Y-52937483D01*
X131650500Y-52877873D01*
X131650499Y-51282128D01*
X131644091Y-51222517D01*
X131621667Y-51162396D01*
X131593797Y-51087671D01*
X131593793Y-51087664D01*
X131507547Y-50972455D01*
X131507544Y-50972452D01*
X131392335Y-50886206D01*
X131392332Y-50886205D01*
X131392331Y-50886204D01*
X131381161Y-50882038D01*
X131325231Y-50840166D01*
X131300816Y-50774701D01*
X131300500Y-50765858D01*
X131300500Y-47751361D01*
X131320185Y-47684322D01*
X131336819Y-47663680D01*
X133499464Y-45501035D01*
X133557400Y-45414328D01*
X133598013Y-45353547D01*
X133617895Y-45305547D01*
X133665895Y-45189666D01*
X133700500Y-45015691D01*
X133700500Y-44838308D01*
X133700500Y-42796438D01*
X133720185Y-42729399D01*
X133725234Y-42722126D01*
X133743796Y-42697331D01*
X133794091Y-42562483D01*
X133800500Y-42502873D01*
X133800499Y-39897128D01*
X133794091Y-39837517D01*
X133792118Y-39832228D01*
X133743797Y-39702671D01*
X133743793Y-39702664D01*
X133657547Y-39587455D01*
X133657544Y-39587452D01*
X133542335Y-39501206D01*
X133542328Y-39501202D01*
X133407482Y-39450908D01*
X133407483Y-39450908D01*
X133347883Y-39444501D01*
X133347881Y-39444500D01*
X133347873Y-39444500D01*
X133347864Y-39444500D01*
X132252129Y-39444500D01*
X132252123Y-39444501D01*
X132192516Y-39450908D01*
X132057671Y-39501202D01*
X132057664Y-39501206D01*
X131942455Y-39587452D01*
X131942452Y-39587455D01*
X131856206Y-39702664D01*
X131856202Y-39702671D01*
X131805908Y-39837517D01*
X131799501Y-39897116D01*
X131799501Y-39897123D01*
X131799500Y-39897135D01*
X131799500Y-42502870D01*
X131799501Y-42502876D01*
X131805908Y-42562483D01*
X131856203Y-42697329D01*
X131874766Y-42722126D01*
X131899184Y-42787590D01*
X131899500Y-42796438D01*
X131899500Y-44502637D01*
X131879815Y-44569676D01*
X131863181Y-44590318D01*
X131472180Y-44981319D01*
X131410857Y-45014804D01*
X131341165Y-45009820D01*
X131285232Y-44967948D01*
X131260815Y-44902484D01*
X131260499Y-44893638D01*
X131260499Y-43207129D01*
X131260498Y-43207123D01*
X131260497Y-43207116D01*
X131254091Y-43147517D01*
X131203796Y-43012669D01*
X131203795Y-43012668D01*
X131203793Y-43012664D01*
X131117547Y-42897455D01*
X131117544Y-42897452D01*
X131002335Y-42811206D01*
X131002328Y-42811202D01*
X130867482Y-42760908D01*
X130867483Y-42760908D01*
X130807883Y-42754501D01*
X130807881Y-42754500D01*
X130807873Y-42754500D01*
X130807864Y-42754500D01*
X129712129Y-42754500D01*
X129712123Y-42754501D01*
X129652516Y-42760908D01*
X129517671Y-42811202D01*
X129517664Y-42811206D01*
X129402455Y-42897452D01*
X129402452Y-42897455D01*
X129316206Y-43012664D01*
X129316202Y-43012671D01*
X129265908Y-43147517D01*
X129259501Y-43207116D01*
X129259501Y-43207123D01*
X129259500Y-43207135D01*
X129259500Y-43685500D01*
X129239815Y-43752539D01*
X129187011Y-43798294D01*
X129135500Y-43809500D01*
X126389063Y-43809500D01*
X126322024Y-43789815D01*
X126276269Y-43737011D01*
X126266325Y-43667853D01*
X126295350Y-43604297D01*
X126320174Y-43582397D01*
X126330679Y-43575377D01*
X126344543Y-43566114D01*
X126946224Y-42964431D01*
X127007545Y-42930948D01*
X127077236Y-42935932D01*
X127077238Y-42935933D01*
X127112511Y-42949089D01*
X127112512Y-42949089D01*
X127112517Y-42949091D01*
X127172127Y-42955500D01*
X128267872Y-42955499D01*
X128327483Y-42949091D01*
X128462331Y-42898796D01*
X128577546Y-42812546D01*
X128663796Y-42697331D01*
X128714091Y-42562483D01*
X128720500Y-42502873D01*
X128720499Y-39897128D01*
X128714091Y-39837517D01*
X128712118Y-39832228D01*
X128663797Y-39702671D01*
X128663793Y-39702664D01*
X128577547Y-39587455D01*
X128577544Y-39587452D01*
X128462335Y-39501206D01*
X128462328Y-39501202D01*
X128327482Y-39450908D01*
X128327483Y-39450908D01*
X128267883Y-39444501D01*
X128267881Y-39444500D01*
X128267873Y-39444500D01*
X128267864Y-39444500D01*
X127172129Y-39444500D01*
X127172123Y-39444501D01*
X127112516Y-39450908D01*
X126977671Y-39501202D01*
X126977664Y-39501206D01*
X126862455Y-39587452D01*
X126862452Y-39587455D01*
X126776206Y-39702664D01*
X126776202Y-39702671D01*
X126725908Y-39837517D01*
X126719501Y-39897116D01*
X126719501Y-39897123D01*
X126719500Y-39897135D01*
X126719500Y-41158480D01*
X126699815Y-41225519D01*
X126683181Y-41246161D01*
X125644162Y-42285181D01*
X125582839Y-42318666D01*
X125556481Y-42321500D01*
X119418046Y-42321500D01*
X119351007Y-42301815D01*
X119305252Y-42249011D01*
X119296429Y-42221691D01*
X119269738Y-42087510D01*
X119269737Y-42087503D01*
X119209939Y-41943136D01*
X119200500Y-41895684D01*
X119200500Y-41307176D01*
X119220185Y-41240137D01*
X119268203Y-41196693D01*
X119380405Y-41139524D01*
X119539646Y-41023828D01*
X119678828Y-40884646D01*
X119794524Y-40725405D01*
X119883884Y-40550025D01*
X119944709Y-40362826D01*
X119953429Y-40307771D01*
X119975500Y-40168422D01*
X119975500Y-39971577D01*
X119944709Y-39777173D01*
X119883882Y-39589970D01*
X119813026Y-39450908D01*
X119794524Y-39414595D01*
X119678828Y-39255354D01*
X119539646Y-39116172D01*
X119380405Y-39000476D01*
X119205029Y-38911117D01*
X119017826Y-38850290D01*
X118823422Y-38819500D01*
X118823417Y-38819500D01*
X118626583Y-38819500D01*
X118626578Y-38819500D01*
X118432173Y-38850290D01*
X118244970Y-38911117D01*
X118069594Y-39000476D01*
X117978741Y-39066485D01*
X117910354Y-39116172D01*
X117910352Y-39116174D01*
X117910351Y-39116174D01*
X117771174Y-39255351D01*
X117771174Y-39255352D01*
X117771172Y-39255354D01*
X117721485Y-39323741D01*
X117655476Y-39414594D01*
X117565485Y-39591213D01*
X117517511Y-39642009D01*
X117449690Y-39658804D01*
X117383555Y-39636267D01*
X117344515Y-39591213D01*
X117298652Y-39501201D01*
X117254524Y-39414595D01*
X117138828Y-39255354D01*
X116999646Y-39116172D01*
X116840405Y-39000476D01*
X116665029Y-38911117D01*
X116477826Y-38850290D01*
X116283422Y-38819500D01*
X116283417Y-38819500D01*
X116086583Y-38819500D01*
X116086578Y-38819500D01*
X115892173Y-38850290D01*
X115704970Y-38911117D01*
X115529594Y-39000476D01*
X115438741Y-39066485D01*
X115370354Y-39116172D01*
X115370352Y-39116174D01*
X115370351Y-39116174D01*
X115231174Y-39255351D01*
X115231174Y-39255352D01*
X115231172Y-39255354D01*
X115181485Y-39323741D01*
X115115476Y-39414594D01*
X115026117Y-39589970D01*
X114965290Y-39777173D01*
X114934500Y-39971577D01*
X114934500Y-40168422D01*
X114965290Y-40362826D01*
X115026117Y-40550029D01*
X115059606Y-40615754D01*
X115115476Y-40725405D01*
X115231172Y-40884646D01*
X115370354Y-41023828D01*
X115529595Y-41139524D01*
X115612455Y-41181743D01*
X115704970Y-41228882D01*
X115704972Y-41228882D01*
X115704975Y-41228884D01*
X115758148Y-41246161D01*
X115892173Y-41289709D01*
X116086578Y-41320500D01*
X116086583Y-41320500D01*
X116283422Y-41320500D01*
X116477826Y-41289709D01*
X116665025Y-41228884D01*
X116840405Y-41139524D01*
X116999646Y-41023828D01*
X117138828Y-40884646D01*
X117254524Y-40725405D01*
X117343884Y-40550025D01*
X117344515Y-40548787D01*
X117392489Y-40497990D01*
X117460310Y-40481195D01*
X117526445Y-40503732D01*
X117565485Y-40548787D01*
X117655474Y-40725403D01*
X117708323Y-40798142D01*
X117771172Y-40884646D01*
X117771173Y-40884647D01*
X117774036Y-40888587D01*
X117772710Y-40889550D01*
X117798359Y-40946776D01*
X117799500Y-40963559D01*
X117799500Y-41895684D01*
X117790061Y-41943136D01*
X117730264Y-42087498D01*
X117730261Y-42087510D01*
X117703571Y-42221691D01*
X117671186Y-42283602D01*
X117610471Y-42318176D01*
X117581954Y-42321500D01*
X111858518Y-42321500D01*
X111791479Y-42301815D01*
X111770837Y-42285181D01*
X111017838Y-41532181D01*
X110984353Y-41470858D01*
X110989337Y-41401166D01*
X111031209Y-41345233D01*
X111096673Y-41320816D01*
X111105519Y-41320500D01*
X111203422Y-41320500D01*
X111397826Y-41289709D01*
X111585025Y-41228884D01*
X111760405Y-41139524D01*
X111919646Y-41023828D01*
X112058828Y-40884646D01*
X112174524Y-40725405D01*
X112263884Y-40550025D01*
X112324709Y-40362826D01*
X112333429Y-40307771D01*
X112355500Y-40168422D01*
X112355500Y-39971577D01*
X112324709Y-39777173D01*
X112263882Y-39589970D01*
X112193026Y-39450908D01*
X112174524Y-39414595D01*
X112058828Y-39255354D01*
X111919646Y-39116172D01*
X111760405Y-39000476D01*
X111585029Y-38911117D01*
X111397826Y-38850290D01*
X111203422Y-38819500D01*
X111203417Y-38819500D01*
X111006583Y-38819500D01*
X111006577Y-38819500D01*
X110929630Y-38831687D01*
X110860337Y-38822732D01*
X110822552Y-38796895D01*
X110400546Y-38374888D01*
X110400545Y-38374887D01*
X110285807Y-38298222D01*
X110158332Y-38245421D01*
X110158322Y-38245418D01*
X110022996Y-38218500D01*
X110022994Y-38218500D01*
X110022993Y-38218500D01*
X95319247Y-38218500D01*
X95319243Y-38218500D01*
X95222000Y-38237843D01*
X95221998Y-38237843D01*
X95210831Y-38240065D01*
X95183911Y-38245420D01*
X95131106Y-38267292D01*
X95056429Y-38298225D01*
X95056428Y-38298226D01*
X95035439Y-38312249D01*
X95035432Y-38312253D01*
X94941697Y-38374886D01*
X94941693Y-38374889D01*
X94169888Y-39146693D01*
X94169887Y-39146694D01*
X94093222Y-39261432D01*
X94040421Y-39388907D01*
X94040418Y-39388919D01*
X94018084Y-39501201D01*
X94018084Y-39501202D01*
X94018084Y-39501204D01*
X94013500Y-39524247D01*
X94013500Y-40477766D01*
X94013500Y-40615754D01*
X94013500Y-40615756D01*
X94013499Y-40615756D01*
X94040418Y-40751082D01*
X94040421Y-40751092D01*
X94093222Y-40878567D01*
X94169887Y-40993305D01*
X94169888Y-40993306D01*
X115181855Y-62005272D01*
X115215340Y-62066595D01*
X115210356Y-62136287D01*
X115194492Y-62165838D01*
X115115478Y-62274591D01*
X115026117Y-62449970D01*
X114965290Y-62637173D01*
X114934500Y-62831577D01*
X114934500Y-62855638D01*
X114914815Y-62922677D01*
X114898181Y-62943319D01*
X112828319Y-65013181D01*
X112766996Y-65046666D01*
X112740638Y-65049500D01*
X97894696Y-65049500D01*
X97827657Y-65029815D01*
X97784788Y-64982912D01*
X97739699Y-64896595D01*
X97739698Y-64896593D01*
X97668864Y-64809723D01*
X97611109Y-64738890D01*
X97453409Y-64610304D01*
X97453410Y-64610304D01*
X97453407Y-64610302D01*
X97273049Y-64516091D01*
X97273048Y-64516090D01*
X97273045Y-64516089D01*
X97155829Y-64482550D01*
X97077418Y-64460114D01*
X97077415Y-64460113D01*
X97077413Y-64460113D01*
X97011102Y-64454217D01*
X96958037Y-64449500D01*
X96958032Y-64449500D01*
X94041971Y-64449500D01*
X94041965Y-64449500D01*
X94041964Y-64449501D01*
X94030316Y-64450536D01*
X93922584Y-64460113D01*
X93726954Y-64516089D01*
X93636772Y-64563196D01*
X93546593Y-64610302D01*
X93546591Y-64610303D01*
X93546590Y-64610304D01*
X93388890Y-64738890D01*
X93260304Y-64896590D01*
X93166089Y-65076954D01*
X93110114Y-65272583D01*
X93110113Y-65272586D01*
X93099500Y-65391966D01*
X93099500Y-65675500D01*
X93079815Y-65742539D01*
X93027011Y-65788294D01*
X92975500Y-65799500D01*
X91236868Y-65799500D01*
X91169829Y-65779815D01*
X91148653Y-65760616D01*
X91147819Y-65761451D01*
X91018657Y-65632289D01*
X91018656Y-65632288D01*
X90905540Y-65562518D01*
X90869336Y-65540187D01*
X90869331Y-65540185D01*
X90867862Y-65539698D01*
X90702797Y-65485001D01*
X90702795Y-65485000D01*
X90600010Y-65474500D01*
X89999998Y-65474500D01*
X89999980Y-65474501D01*
X89897203Y-65485000D01*
X89897200Y-65485001D01*
X89730668Y-65540185D01*
X89730663Y-65540187D01*
X89581342Y-65632289D01*
X89457289Y-65756342D01*
X89365187Y-65905663D01*
X89365186Y-65905666D01*
X89310001Y-66072203D01*
X89310001Y-66072204D01*
X89310000Y-66072204D01*
X89299500Y-66174983D01*
X85100498Y-66174983D01*
X85089999Y-66072203D01*
X85034814Y-65905666D01*
X84942712Y-65756344D01*
X84818656Y-65632288D01*
X84705540Y-65562518D01*
X84669336Y-65540187D01*
X84669331Y-65540185D01*
X84667862Y-65539698D01*
X84502797Y-65485001D01*
X84502795Y-65485000D01*
X84400010Y-65474500D01*
X83799998Y-65474500D01*
X83799980Y-65474501D01*
X83697203Y-65485000D01*
X83697200Y-65485001D01*
X83530668Y-65540185D01*
X83530663Y-65540187D01*
X83381342Y-65632289D01*
X83257289Y-65756342D01*
X83165187Y-65905663D01*
X83165186Y-65905666D01*
X83110001Y-66072203D01*
X83110001Y-66072204D01*
X83110000Y-66072204D01*
X83099500Y-66174983D01*
X83099500Y-67225001D01*
X83099501Y-67225019D01*
X83110000Y-67327796D01*
X83110001Y-67327799D01*
X83157183Y-67470184D01*
X83165186Y-67494334D01*
X83181039Y-67520036D01*
X83199500Y-67585132D01*
X83199500Y-69264411D01*
X83179815Y-69331450D01*
X83127011Y-69377205D01*
X83118834Y-69380593D01*
X83050169Y-69406203D01*
X83050164Y-69406206D01*
X82934955Y-69492452D01*
X82934952Y-69492455D01*
X82848706Y-69607664D01*
X82848702Y-69607671D01*
X82798408Y-69742517D01*
X82792001Y-69802116D01*
X82792000Y-69802135D01*
X82792000Y-72525637D01*
X82772315Y-72592676D01*
X82755681Y-72613318D01*
X81992040Y-73376958D01*
X81992037Y-73376961D01*
X81978374Y-73397410D01*
X81978369Y-73397417D01*
X81976310Y-73400500D01*
X81893487Y-73524453D01*
X81870993Y-73578759D01*
X81867753Y-73586580D01*
X81867750Y-73586586D01*
X81825606Y-73688331D01*
X81825603Y-73688341D01*
X81813239Y-73750501D01*
X81791000Y-73862304D01*
X73700500Y-73862304D01*
X73700500Y-62831577D01*
X86994500Y-62831577D01*
X86994500Y-63028422D01*
X87025290Y-63222826D01*
X87086117Y-63410029D01*
X87175475Y-63585403D01*
X87175476Y-63585405D01*
X87291172Y-63744646D01*
X87430354Y-63883828D01*
X87589595Y-63999524D01*
X87672455Y-64041743D01*
X87764970Y-64088882D01*
X87764972Y-64088882D01*
X87764975Y-64088884D01*
X87865317Y-64121487D01*
X87952173Y-64149709D01*
X88146578Y-64180500D01*
X88146583Y-64180500D01*
X88343422Y-64180500D01*
X88537826Y-64149709D01*
X88725025Y-64088884D01*
X88900405Y-63999524D01*
X89059646Y-63883828D01*
X89198828Y-63744646D01*
X89314524Y-63585405D01*
X89403884Y-63410025D01*
X89404515Y-63408787D01*
X89452489Y-63357990D01*
X89520310Y-63341195D01*
X89586445Y-63363732D01*
X89625485Y-63408787D01*
X89715474Y-63585403D01*
X89750234Y-63633246D01*
X89831172Y-63744646D01*
X89970354Y-63883828D01*
X90129595Y-63999524D01*
X90212455Y-64041743D01*
X90304970Y-64088882D01*
X90304972Y-64088882D01*
X90304975Y-64088884D01*
X90405317Y-64121487D01*
X90492173Y-64149709D01*
X90686578Y-64180500D01*
X90686583Y-64180500D01*
X90883422Y-64180500D01*
X91077826Y-64149709D01*
X91265025Y-64088884D01*
X91440405Y-63999524D01*
X91599646Y-63883828D01*
X91738828Y-63744646D01*
X91854524Y-63585405D01*
X91943884Y-63410025D01*
X91944515Y-63408787D01*
X91992489Y-63357990D01*
X92060310Y-63341195D01*
X92126445Y-63363732D01*
X92165485Y-63408787D01*
X92255474Y-63585403D01*
X92290234Y-63633246D01*
X92371172Y-63744646D01*
X92510354Y-63883828D01*
X92669595Y-63999524D01*
X92752455Y-64041743D01*
X92844970Y-64088882D01*
X92844972Y-64088882D01*
X92844975Y-64088884D01*
X92945317Y-64121487D01*
X93032173Y-64149709D01*
X93226578Y-64180500D01*
X93226583Y-64180500D01*
X93423422Y-64180500D01*
X93617826Y-64149709D01*
X93805025Y-64088884D01*
X93980405Y-63999524D01*
X94139646Y-63883828D01*
X94278828Y-63744646D01*
X94394524Y-63585405D01*
X94483884Y-63410025D01*
X94484515Y-63408787D01*
X94532489Y-63357990D01*
X94600310Y-63341195D01*
X94666445Y-63363732D01*
X94705485Y-63408787D01*
X94795474Y-63585403D01*
X94830234Y-63633246D01*
X94911172Y-63744646D01*
X95050354Y-63883828D01*
X95209595Y-63999524D01*
X95292455Y-64041743D01*
X95384970Y-64088882D01*
X95384972Y-64088882D01*
X95384975Y-64088884D01*
X95485317Y-64121487D01*
X95572173Y-64149709D01*
X95766578Y-64180500D01*
X95766583Y-64180500D01*
X95963422Y-64180500D01*
X96157826Y-64149709D01*
X96345025Y-64088884D01*
X96520405Y-63999524D01*
X96679646Y-63883828D01*
X96818828Y-63744646D01*
X96934524Y-63585405D01*
X97023884Y-63410025D01*
X97084709Y-63222826D01*
X97115500Y-63028422D01*
X97115500Y-62831577D01*
X99694500Y-62831577D01*
X99694500Y-63028422D01*
X99725290Y-63222826D01*
X99786117Y-63410029D01*
X99875475Y-63585403D01*
X99875476Y-63585405D01*
X99991172Y-63744646D01*
X100130354Y-63883828D01*
X100289595Y-63999524D01*
X100372455Y-64041743D01*
X100464970Y-64088882D01*
X100464972Y-64088882D01*
X100464975Y-64088884D01*
X100565317Y-64121487D01*
X100652173Y-64149709D01*
X100846578Y-64180500D01*
X100846583Y-64180500D01*
X101043422Y-64180500D01*
X101237826Y-64149709D01*
X101425025Y-64088884D01*
X101600405Y-63999524D01*
X101759646Y-63883828D01*
X101898828Y-63744646D01*
X102014524Y-63585405D01*
X102103884Y-63410025D01*
X102164709Y-63222826D01*
X102195500Y-63028422D01*
X102195500Y-62831577D01*
X104774500Y-62831577D01*
X104774500Y-63028422D01*
X104805290Y-63222826D01*
X104866117Y-63410029D01*
X104955475Y-63585403D01*
X104955476Y-63585405D01*
X105071172Y-63744646D01*
X105210354Y-63883828D01*
X105369595Y-63999524D01*
X105452455Y-64041743D01*
X105544970Y-64088882D01*
X105544972Y-64088882D01*
X105544975Y-64088884D01*
X105645317Y-64121487D01*
X105732173Y-64149709D01*
X105926578Y-64180500D01*
X105926583Y-64180500D01*
X106123422Y-64180500D01*
X106317826Y-64149709D01*
X106505025Y-64088884D01*
X106680405Y-63999524D01*
X106839646Y-63883828D01*
X106978828Y-63744646D01*
X107094524Y-63585405D01*
X107183884Y-63410025D01*
X107184515Y-63408787D01*
X107232489Y-63357990D01*
X107300310Y-63341195D01*
X107366445Y-63363732D01*
X107405485Y-63408787D01*
X107495474Y-63585403D01*
X107530234Y-63633246D01*
X107611172Y-63744646D01*
X107750354Y-63883828D01*
X107909595Y-63999524D01*
X107992455Y-64041743D01*
X108084970Y-64088882D01*
X108084972Y-64088882D01*
X108084975Y-64088884D01*
X108185317Y-64121487D01*
X108272173Y-64149709D01*
X108466578Y-64180500D01*
X108466583Y-64180500D01*
X108663422Y-64180500D01*
X108857826Y-64149709D01*
X109045025Y-64088884D01*
X109220405Y-63999524D01*
X109379646Y-63883828D01*
X109518828Y-63744646D01*
X109634524Y-63585405D01*
X109723884Y-63410025D01*
X109724515Y-63408787D01*
X109772489Y-63357990D01*
X109840310Y-63341195D01*
X109906445Y-63363732D01*
X109945485Y-63408787D01*
X110035474Y-63585403D01*
X110070234Y-63633246D01*
X110151172Y-63744646D01*
X110290354Y-63883828D01*
X110449595Y-63999524D01*
X110532455Y-64041743D01*
X110624970Y-64088882D01*
X110624972Y-64088882D01*
X110624975Y-64088884D01*
X110725317Y-64121487D01*
X110812173Y-64149709D01*
X111006578Y-64180500D01*
X111006583Y-64180500D01*
X111203422Y-64180500D01*
X111397826Y-64149709D01*
X111585025Y-64088884D01*
X111760405Y-63999524D01*
X111919646Y-63883828D01*
X112058828Y-63744646D01*
X112174524Y-63585405D01*
X112263884Y-63410025D01*
X112324709Y-63222826D01*
X112355500Y-63028422D01*
X112355500Y-62831577D01*
X112324709Y-62637173D01*
X112274236Y-62481836D01*
X112263884Y-62449975D01*
X112263882Y-62449972D01*
X112263882Y-62449970D01*
X112196637Y-62317994D01*
X112174524Y-62274595D01*
X112058828Y-62115354D01*
X111919646Y-61976172D01*
X111760405Y-61860476D01*
X111585029Y-61771117D01*
X111397826Y-61710290D01*
X111203422Y-61679500D01*
X111203417Y-61679500D01*
X111006583Y-61679500D01*
X111006578Y-61679500D01*
X110812173Y-61710290D01*
X110624970Y-61771117D01*
X110449594Y-61860476D01*
X110358741Y-61926485D01*
X110290354Y-61976172D01*
X110290352Y-61976174D01*
X110290351Y-61976174D01*
X110151174Y-62115351D01*
X110151174Y-62115352D01*
X110151172Y-62115354D01*
X110114493Y-62165838D01*
X110035476Y-62274594D01*
X109945485Y-62451213D01*
X109897511Y-62502009D01*
X109829690Y-62518804D01*
X109763555Y-62496267D01*
X109724515Y-62451213D01*
X109671159Y-62346496D01*
X109634524Y-62274595D01*
X109518828Y-62115354D01*
X109379646Y-61976172D01*
X109220405Y-61860476D01*
X109045029Y-61771117D01*
X108857826Y-61710290D01*
X108663422Y-61679500D01*
X108663417Y-61679500D01*
X108466583Y-61679500D01*
X108466578Y-61679500D01*
X108272173Y-61710290D01*
X108084970Y-61771117D01*
X107909594Y-61860476D01*
X107818741Y-61926485D01*
X107750354Y-61976172D01*
X107750352Y-61976174D01*
X107750351Y-61976174D01*
X107611174Y-62115351D01*
X107611174Y-62115352D01*
X107611172Y-62115354D01*
X107574493Y-62165838D01*
X107495476Y-62274594D01*
X107405485Y-62451213D01*
X107357511Y-62502009D01*
X107289690Y-62518804D01*
X107223555Y-62496267D01*
X107184515Y-62451213D01*
X107131159Y-62346496D01*
X107094524Y-62274595D01*
X106978828Y-62115354D01*
X106839646Y-61976172D01*
X106680405Y-61860476D01*
X106505029Y-61771117D01*
X106317826Y-61710290D01*
X106123422Y-61679500D01*
X106123417Y-61679500D01*
X105926583Y-61679500D01*
X105926578Y-61679500D01*
X105732173Y-61710290D01*
X105544970Y-61771117D01*
X105369594Y-61860476D01*
X105278741Y-61926485D01*
X105210354Y-61976172D01*
X105210352Y-61976174D01*
X105210351Y-61976174D01*
X105071174Y-62115351D01*
X105071174Y-62115352D01*
X105071172Y-62115354D01*
X105034493Y-62165838D01*
X104955476Y-62274594D01*
X104866117Y-62449970D01*
X104805290Y-62637173D01*
X104774500Y-62831577D01*
X102195500Y-62831577D01*
X102164709Y-62637173D01*
X102114236Y-62481836D01*
X102103884Y-62449975D01*
X102103882Y-62449972D01*
X102103882Y-62449970D01*
X102036637Y-62317994D01*
X102014524Y-62274595D01*
X101898828Y-62115354D01*
X101759646Y-61976172D01*
X101600405Y-61860476D01*
X101425029Y-61771117D01*
X101237826Y-61710290D01*
X101043422Y-61679500D01*
X101043417Y-61679500D01*
X100846583Y-61679500D01*
X100846578Y-61679500D01*
X100652173Y-61710290D01*
X100464970Y-61771117D01*
X100289594Y-61860476D01*
X100198741Y-61926485D01*
X100130354Y-61976172D01*
X100130352Y-61976174D01*
X100130351Y-61976174D01*
X99991174Y-62115351D01*
X99991174Y-62115352D01*
X99991172Y-62115354D01*
X99954493Y-62165838D01*
X99875476Y-62274594D01*
X99786117Y-62449970D01*
X99725290Y-62637173D01*
X99694500Y-62831577D01*
X97115500Y-62831577D01*
X97084709Y-62637173D01*
X97034236Y-62481836D01*
X97023884Y-62449975D01*
X97023882Y-62449972D01*
X97023882Y-62449970D01*
X96956637Y-62317994D01*
X96934524Y-62274595D01*
X96818828Y-62115354D01*
X96679646Y-61976172D01*
X96520405Y-61860476D01*
X96345029Y-61771117D01*
X96157826Y-61710290D01*
X95963422Y-61679500D01*
X95963417Y-61679500D01*
X95766583Y-61679500D01*
X95766578Y-61679500D01*
X95572173Y-61710290D01*
X95384970Y-61771117D01*
X95209594Y-61860476D01*
X95118741Y-61926485D01*
X95050354Y-61976172D01*
X95050352Y-61976174D01*
X95050351Y-61976174D01*
X94911174Y-62115351D01*
X94911174Y-62115352D01*
X94911172Y-62115354D01*
X94874493Y-62165838D01*
X94795476Y-62274594D01*
X94705485Y-62451213D01*
X94657511Y-62502009D01*
X94589690Y-62518804D01*
X94523555Y-62496267D01*
X94484515Y-62451213D01*
X94431159Y-62346496D01*
X94394524Y-62274595D01*
X94278828Y-62115354D01*
X94139646Y-61976172D01*
X93980405Y-61860476D01*
X93805029Y-61771117D01*
X93617826Y-61710290D01*
X93423422Y-61679500D01*
X93423417Y-61679500D01*
X93226583Y-61679500D01*
X93226578Y-61679500D01*
X93032173Y-61710290D01*
X92844970Y-61771117D01*
X92669594Y-61860476D01*
X92578741Y-61926485D01*
X92510354Y-61976172D01*
X92510352Y-61976174D01*
X92510351Y-61976174D01*
X92371174Y-62115351D01*
X92371174Y-62115352D01*
X92371172Y-62115354D01*
X92334493Y-62165838D01*
X92255476Y-62274594D01*
X92165485Y-62451213D01*
X92117511Y-62502009D01*
X92049690Y-62518804D01*
X91983555Y-62496267D01*
X91944515Y-62451213D01*
X91891159Y-62346496D01*
X91854524Y-62274595D01*
X91738828Y-62115354D01*
X91599646Y-61976172D01*
X91440405Y-61860476D01*
X91265029Y-61771117D01*
X91077826Y-61710290D01*
X90883422Y-61679500D01*
X90883417Y-61679500D01*
X90686583Y-61679500D01*
X90686578Y-61679500D01*
X90492173Y-61710290D01*
X90304970Y-61771117D01*
X90129594Y-61860476D01*
X90038741Y-61926485D01*
X89970354Y-61976172D01*
X89970352Y-61976174D01*
X89970351Y-61976174D01*
X89831174Y-62115351D01*
X89831174Y-62115352D01*
X89831172Y-62115354D01*
X89794493Y-62165838D01*
X89715476Y-62274594D01*
X89625485Y-62451213D01*
X89577511Y-62502009D01*
X89509690Y-62518804D01*
X89443555Y-62496267D01*
X89404515Y-62451213D01*
X89351159Y-62346496D01*
X89314524Y-62274595D01*
X89198828Y-62115354D01*
X89059646Y-61976172D01*
X88900405Y-61860476D01*
X88725029Y-61771117D01*
X88537826Y-61710290D01*
X88343422Y-61679500D01*
X88343417Y-61679500D01*
X88146583Y-61679500D01*
X88146578Y-61679500D01*
X87952173Y-61710290D01*
X87764970Y-61771117D01*
X87589594Y-61860476D01*
X87498741Y-61926485D01*
X87430354Y-61976172D01*
X87430352Y-61976174D01*
X87430351Y-61976174D01*
X87291174Y-62115351D01*
X87291174Y-62115352D01*
X87291172Y-62115354D01*
X87254493Y-62165838D01*
X87175476Y-62274594D01*
X87086117Y-62449970D01*
X87025290Y-62637173D01*
X86994500Y-62831577D01*
X73700500Y-62831577D01*
X73700500Y-39971577D01*
X86994500Y-39971577D01*
X86994500Y-40168422D01*
X87025290Y-40362826D01*
X87086117Y-40550029D01*
X87119606Y-40615754D01*
X87175476Y-40725405D01*
X87291172Y-40884646D01*
X87430354Y-41023828D01*
X87589595Y-41139524D01*
X87672455Y-41181743D01*
X87764970Y-41228882D01*
X87764972Y-41228882D01*
X87764975Y-41228884D01*
X87818148Y-41246161D01*
X87952173Y-41289709D01*
X88146578Y-41320500D01*
X88146583Y-41320500D01*
X88343422Y-41320500D01*
X88537826Y-41289709D01*
X88725025Y-41228884D01*
X88900405Y-41139524D01*
X89059646Y-41023828D01*
X89198828Y-40884646D01*
X89314524Y-40725405D01*
X89403884Y-40550025D01*
X89404515Y-40548787D01*
X89452489Y-40497990D01*
X89520310Y-40481195D01*
X89586445Y-40503732D01*
X89625485Y-40548787D01*
X89715474Y-40725403D01*
X89734136Y-40751088D01*
X89831172Y-40884646D01*
X89970354Y-41023828D01*
X90129595Y-41139524D01*
X90212455Y-41181743D01*
X90304970Y-41228882D01*
X90304972Y-41228882D01*
X90304975Y-41228884D01*
X90358148Y-41246161D01*
X90492173Y-41289709D01*
X90686578Y-41320500D01*
X90686583Y-41320500D01*
X90883422Y-41320500D01*
X91077826Y-41289709D01*
X91265025Y-41228884D01*
X91440405Y-41139524D01*
X91599646Y-41023828D01*
X91738828Y-40884646D01*
X91854524Y-40725405D01*
X91943884Y-40550025D01*
X92004709Y-40362826D01*
X92013429Y-40307771D01*
X92035500Y-40168422D01*
X92035500Y-39971577D01*
X92004709Y-39777173D01*
X91943882Y-39589970D01*
X91873026Y-39450908D01*
X91854524Y-39414595D01*
X91738828Y-39255354D01*
X91599646Y-39116172D01*
X91440405Y-39000476D01*
X91265029Y-38911117D01*
X91077826Y-38850290D01*
X90883422Y-38819500D01*
X90883417Y-38819500D01*
X90686583Y-38819500D01*
X90686578Y-38819500D01*
X90492173Y-38850290D01*
X90304970Y-38911117D01*
X90129594Y-39000476D01*
X90038741Y-39066485D01*
X89970354Y-39116172D01*
X89970352Y-39116174D01*
X89970351Y-39116174D01*
X89831174Y-39255351D01*
X89831174Y-39255352D01*
X89831172Y-39255354D01*
X89781485Y-39323741D01*
X89715476Y-39414594D01*
X89625485Y-39591213D01*
X89577511Y-39642009D01*
X89509690Y-39658804D01*
X89443555Y-39636267D01*
X89404515Y-39591213D01*
X89358652Y-39501201D01*
X89314524Y-39414595D01*
X89198828Y-39255354D01*
X89059646Y-39116172D01*
X88900405Y-39000476D01*
X88725029Y-38911117D01*
X88537826Y-38850290D01*
X88343422Y-38819500D01*
X88343417Y-38819500D01*
X88146583Y-38819500D01*
X88146578Y-38819500D01*
X87952173Y-38850290D01*
X87764970Y-38911117D01*
X87589594Y-39000476D01*
X87498741Y-39066485D01*
X87430354Y-39116172D01*
X87430352Y-39116174D01*
X87430351Y-39116174D01*
X87291174Y-39255351D01*
X87291174Y-39255352D01*
X87291172Y-39255354D01*
X87241485Y-39323741D01*
X87175476Y-39414594D01*
X87086117Y-39589970D01*
X87025290Y-39777173D01*
X86994500Y-39971577D01*
X73700500Y-39971577D01*
X73700500Y-34878711D01*
X76149500Y-34878711D01*
X76149500Y-35121288D01*
X76181161Y-35361785D01*
X76243947Y-35596104D01*
X76336773Y-35820205D01*
X76336776Y-35820212D01*
X76458064Y-36030289D01*
X76458066Y-36030292D01*
X76458067Y-36030293D01*
X76605733Y-36222736D01*
X76605739Y-36222743D01*
X76777256Y-36394260D01*
X76777262Y-36394265D01*
X76969711Y-36541936D01*
X77179788Y-36663224D01*
X77403900Y-36756054D01*
X77638211Y-36818838D01*
X77818586Y-36842584D01*
X77878711Y-36850500D01*
X77878712Y-36850500D01*
X78121289Y-36850500D01*
X78169388Y-36844167D01*
X78361789Y-36818838D01*
X78596100Y-36756054D01*
X78820212Y-36663224D01*
X79030289Y-36541936D01*
X79222738Y-36394265D01*
X79394265Y-36222738D01*
X79541936Y-36030289D01*
X79663224Y-35820212D01*
X79756054Y-35596100D01*
X79818838Y-35361789D01*
X79850500Y-35121288D01*
X79850500Y-34878712D01*
X79850500Y-34878711D01*
X139149500Y-34878711D01*
X139149500Y-35121288D01*
X139181161Y-35361785D01*
X139243947Y-35596104D01*
X139336773Y-35820205D01*
X139336776Y-35820212D01*
X139458064Y-36030289D01*
X139458066Y-36030292D01*
X139458067Y-36030293D01*
X139605733Y-36222736D01*
X139605739Y-36222743D01*
X139777256Y-36394260D01*
X139777262Y-36394265D01*
X139969711Y-36541936D01*
X140179788Y-36663224D01*
X140403900Y-36756054D01*
X140638211Y-36818838D01*
X140818586Y-36842584D01*
X140878711Y-36850500D01*
X140878712Y-36850500D01*
X141121289Y-36850500D01*
X141169388Y-36844167D01*
X141361789Y-36818838D01*
X141596100Y-36756054D01*
X141820212Y-36663224D01*
X142030289Y-36541936D01*
X142222738Y-36394265D01*
X142394265Y-36222738D01*
X142541936Y-36030289D01*
X142663224Y-35820212D01*
X142756054Y-35596100D01*
X142818838Y-35361789D01*
X142850500Y-35121288D01*
X142850500Y-34878712D01*
X142818838Y-34638211D01*
X142756054Y-34403900D01*
X142663224Y-34179788D01*
X142541936Y-33969711D01*
X142394265Y-33777262D01*
X142394260Y-33777256D01*
X142222743Y-33605739D01*
X142222736Y-33605733D01*
X142030293Y-33458067D01*
X142030292Y-33458066D01*
X142030289Y-33458064D01*
X141820212Y-33336776D01*
X141820205Y-33336773D01*
X141596104Y-33243947D01*
X141361785Y-33181161D01*
X141121289Y-33149500D01*
X141121288Y-33149500D01*
X140878712Y-33149500D01*
X140878711Y-33149500D01*
X140638214Y-33181161D01*
X140403895Y-33243947D01*
X140179794Y-33336773D01*
X140179785Y-33336777D01*
X139969706Y-33458067D01*
X139777263Y-33605733D01*
X139777256Y-33605739D01*
X139605739Y-33777256D01*
X139605733Y-33777263D01*
X139458067Y-33969706D01*
X139336777Y-34179785D01*
X139336773Y-34179794D01*
X139243947Y-34403895D01*
X139181161Y-34638214D01*
X139149500Y-34878711D01*
X79850500Y-34878711D01*
X79818838Y-34638211D01*
X79756054Y-34403900D01*
X79663224Y-34179788D01*
X79541936Y-33969711D01*
X79394265Y-33777262D01*
X79394260Y-33777256D01*
X79222743Y-33605739D01*
X79222736Y-33605733D01*
X79030293Y-33458067D01*
X79030292Y-33458066D01*
X79030289Y-33458064D01*
X78820212Y-33336776D01*
X78820205Y-33336773D01*
X78596104Y-33243947D01*
X78361785Y-33181161D01*
X78121289Y-33149500D01*
X78121288Y-33149500D01*
X77878712Y-33149500D01*
X77878711Y-33149500D01*
X77638214Y-33181161D01*
X77403895Y-33243947D01*
X77179794Y-33336773D01*
X77179785Y-33336777D01*
X76969706Y-33458067D01*
X76777263Y-33605733D01*
X76777256Y-33605739D01*
X76605739Y-33777256D01*
X76605733Y-33777263D01*
X76458067Y-33969706D01*
X76336777Y-34179785D01*
X76336773Y-34179794D01*
X76243947Y-34403895D01*
X76181161Y-34638214D01*
X76149500Y-34878711D01*
X73700500Y-34878711D01*
X73700500Y-31024500D01*
X73720185Y-30957461D01*
X73772989Y-30911706D01*
X73824500Y-30900500D01*
X145175500Y-30900500D01*
X145242539Y-30920185D01*
G37*
%TD.AperFunction*%
%TD*%
M02*
