%TF.GenerationSoftware,KiCad,Pcbnew,9.0.2*%
%TF.CreationDate,2025-08-02T19:20:44+02:00*%
%TF.ProjectId,Smart Exhaust Control,536d6172-7420-4457-9868-617573742043,rev?*%
%TF.SameCoordinates,Original*%
%TF.FileFunction,Plated,1,2,PTH,Mixed*%
%TF.FilePolarity,Positive*%
%FSLAX46Y46*%
G04 Gerber Fmt 4.6, Leading zero omitted, Abs format (unit mm)*
G04 Created by KiCad (PCBNEW 9.0.2) date 2025-08-02 19:20:44*
%MOMM*%
%LPD*%
G01*
G04 APERTURE LIST*
%TA.AperFunction,ViaDrill*%
%ADD10C,0.300000*%
%TD*%
%TA.AperFunction,ComponentDrill*%
%ADD11C,0.800000*%
%TD*%
%TA.AperFunction,ComponentDrill*%
%ADD12C,0.900000*%
%TD*%
G04 aperture for slot hole*
%TA.AperFunction,ComponentDrill*%
%ADD13C,1.000000*%
%TD*%
%TA.AperFunction,ComponentDrill*%
%ADD14C,1.100000*%
%TD*%
%TA.AperFunction,ComponentDrill*%
%ADD15C,2.100000*%
%TD*%
G04 APERTURE END LIST*
D10*
X96550000Y-72600000D03*
X96600000Y-68100000D03*
X118500000Y-42321000D03*
X118500000Y-45210000D03*
X127400000Y-53931000D03*
X134400000Y-59800000D03*
D11*
%TO.C,U2*%
X130400000Y-52080000D03*
X130400000Y-54620000D03*
X130400000Y-57160000D03*
X130400000Y-59700000D03*
D12*
%TO.C,U1*%
X85705000Y-40070000D03*
X85705000Y-62930000D03*
X88245000Y-40070000D03*
X88245000Y-62930000D03*
X90785000Y-40070000D03*
X90785000Y-62930000D03*
X93325000Y-40070000D03*
X93325000Y-62930000D03*
X95865000Y-40070000D03*
X95865000Y-62930000D03*
X98405000Y-40070000D03*
X98405000Y-62930000D03*
X100945000Y-40070000D03*
X100945000Y-62930000D03*
X103485000Y-40070000D03*
X103485000Y-62930000D03*
X106025000Y-40070000D03*
X106025000Y-62930000D03*
X108565000Y-40070000D03*
X108565000Y-62930000D03*
X111105000Y-40070000D03*
X111105000Y-62930000D03*
X113645000Y-40070000D03*
X113645000Y-62930000D03*
X116185000Y-40070000D03*
X116185000Y-62930000D03*
X118725000Y-40070000D03*
X118725000Y-62930000D03*
X121265000Y-40070000D03*
X121265000Y-62930000D03*
%TO.C,D1*%
X136260000Y-51700000D03*
X138800000Y-51700000D03*
D13*
%TO.C,J1*%
X86042500Y-71600000D02*
X84042500Y-71600000D01*
X86042500Y-77600000D02*
X84042500Y-77600000D01*
X89742500Y-73600000D02*
X89742500Y-75600000D01*
D14*
%TO.C,SW1*%
X130850000Y-67050000D03*
X130850000Y-73550000D03*
X135350000Y-67050000D03*
X135350000Y-73550000D03*
D15*
%TO.C,M1*%
X108100000Y-69400000D03*
X115600000Y-82600000D03*
X123100000Y-69400000D03*
M02*
